<?xml version="1.0" encoding="UTF-8" standalone="no"?><svg xmlns="http://www.w3.org/2000/svg" xmlns:xlink="http://www.w3.org/1999/xlink" contentScriptType="application/ecmascript" contentStyleType="text/css" height="285px" preserveAspectRatio="none" style="width:98px;height:285px;background:#FFFFFF;" version="1.1" viewBox="0 0 98 285" width="98px" zoomAndPan="magnify"><defs><filter height="300%" id="f19disa61p6289" width="300%" x="-1" y="-1"><feGaussianBlur result="blurOut" stdDeviation="2.0"/><feColorMatrix in="blurOut" result="blurOut2" type="matrix" values="0 0 0 0 0 0 0 0 0 0 0 0 0 0 0 0 0 0 .4 0"/><feOffset dx="4.0" dy="4.0" in="blurOut2" result="blurOut3"/><feBlend in="SourceGraphic" in2="blurOut3" mode="normal"/></filter></defs><g><!--MD5=[3b31b93e6348312c3f196e025a82695a]
class RolesUI--><rect codeLine="2" fill="#FEFECE" filter="url(#f19disa61p6289)" height="48" id="RolesUI" style="stroke:#A80036;stroke-width:1.5;" width="77" x="7" y="7"/><ellipse cx="22" cy="23" fill="#ADD1B2" rx="11" ry="11" style="stroke:#A80036;stroke-width:1.0;"/><path d="M24,19.5 Q24.2031,19 24.4375,18.75 Q24.6719,18.5 24.9375,18.5 Q25.4063,18.5 25.7031,18.7813 Q26,19.0625 26,19.7188 L26,21.2813 Q26,21.9375 25.7188,22.2188 Q25.4375,22.5 25,22.5 Q24.6094,22.5 24.3594,22.3281 Q24.1094,22.1563 24,21.7031 Q23.9531,21.3906 23.7813,21.2188 Q23.4688,20.8906 22.9063,20.7031 Q22.3438,20.5 21.7813,20.5 Q21.0781,20.5 20.4844,20.7813 Q19.9063,21.0625 19.4531,21.6875 Q19,22.3125 19,23.1719 L19,24.0938 Q19,25.125 19.8438,25.8125 Q20.6875,26.5 22.1875,26.5 Q23.0781,26.5 23.7031,26.2969 Q24.0625,26.1875 24.4688,25.8281 Q24.7344,25.625 24.875,25.5625 Q25.0156,25.5 25.1875,25.5 Q25.5156,25.5 25.75,25.7656 Q26,26.0156 26,26.375 Q26,26.7188 25.6563,27.125 Q25.1563,27.7188 24.3594,28.0469 Q23.3125,28.5 22.0313,28.5 Q20.5313,28.5 19.3281,27.9063 Q18.3594,27.4375 17.6719,26.4219 Q17,25.4063 17,24.2031 L17,23.1094 Q17,21.8594 17.5938,20.7656 Q18.2031,19.6719 19.25,19.0938 Q20.3125,18.5 21.5,18.5 Q22.2188,18.5 22.8438,18.75 Q23.4688,19 24,19.5 Z " fill="#000000"/><text fill="#000000" font-family="sans-serif" font-size="12" lengthAdjust="spacing" textLength="45" x="36" y="27.9102">RolesUI</text><line style="stroke:#A80036;stroke-width:1.5;" x1="8" x2="83" y1="39" y2="39"/><line style="stroke:#A80036;stroke-width:1.5;" x1="8" x2="83" y1="47" y2="47"/><!--MD5=[a0336aaa8110b78d9cacadb9d45e00a3]
class Border--><rect codeLine="3" fill="#FEFECE" filter="url(#f19disa61p6289)" height="48" id="Border" style="stroke:#A80036;stroke-width:1.5;" width="69" x="11" y="223"/><ellipse cx="26" cy="239" fill="#ADD1B2" rx="11" ry="11" style="stroke:#A80036;stroke-width:1.0;"/><path d="M28,235.5 Q28.2031,235 28.4375,234.75 Q28.6719,234.5 28.9375,234.5 Q29.4063,234.5 29.7031,234.7813 Q30,235.0625 30,235.7188 L30,237.2813 Q30,237.9375 29.7188,238.2188 Q29.4375,238.5 29,238.5 Q28.6094,238.5 28.3594,238.3281 Q28.1094,238.1563 28,237.7031 Q27.9531,237.3906 27.7813,237.2188 Q27.4688,236.8906 26.9063,236.7031 Q26.3438,236.5 25.7813,236.5 Q25.0781,236.5 24.4844,236.7813 Q23.9063,237.0625 23.4531,237.6875 Q23,238.3125 23,239.1719 L23,240.0938 Q23,241.125 23.8438,241.8125 Q24.6875,242.5 26.1875,242.5 Q27.0781,242.5 27.7031,242.2969 Q28.0625,242.1875 28.4688,241.8281 Q28.7344,241.625 28.875,241.5625 Q29.0156,241.5 29.1875,241.5 Q29.5156,241.5 29.75,241.7656 Q30,242.0156 30,242.375 Q30,242.7188 29.6563,243.125 Q29.1563,243.7188 28.3594,244.0469 Q27.3125,244.5 26.0313,244.5 Q24.5313,244.5 23.3281,243.9063 Q22.3594,243.4375 21.6719,242.4219 Q21,241.4063 21,240.2031 L21,239.1094 Q21,237.8594 21.5938,236.7656 Q22.2031,235.6719 23.25,235.0938 Q24.3125,234.5 25.5,234.5 Q26.2188,234.5 26.8438,234.75 Q27.4688,235 28,235.5 Z " fill="#000000"/><text fill="#000000" font-family="sans-serif" font-size="12" lengthAdjust="spacing" textLength="37" x="40" y="243.9102">Border</text><line style="stroke:#A80036;stroke-width:1.5;" x1="12" x2="79" y1="255" y2="255"/><line style="stroke:#A80036;stroke-width:1.5;" x1="12" x2="79" y1="263" y2="263"/><!--MD5=[a64a835c3d62471a77f615251fdde58a]
class Position--><rect codeLine="4" fill="#FEFECE" filter="url(#f19disa61p6289)" height="48" id="Position" style="stroke:#A80036;stroke-width:1.5;" width="77" x="7" y="115"/><ellipse cx="22" cy="131" fill="#ADD1B2" rx="11" ry="11" style="stroke:#A80036;stroke-width:1.0;"/><path d="M24,127.5 Q24.2031,127 24.4375,126.75 Q24.6719,126.5 24.9375,126.5 Q25.4063,126.5 25.7031,126.7813 Q26,127.0625 26,127.7188 L26,129.2813 Q26,129.9375 25.7188,130.2188 Q25.4375,130.5 25,130.5 Q24.6094,130.5 24.3594,130.3281 Q24.1094,130.1563 24,129.7031 Q23.9531,129.3906 23.7813,129.2188 Q23.4688,128.8906 22.9063,128.7031 Q22.3438,128.5 21.7813,128.5 Q21.0781,128.5 20.4844,128.7813 Q19.9063,129.0625 19.4531,129.6875 Q19,130.3125 19,131.1719 L19,132.0938 Q19,133.125 19.8438,133.8125 Q20.6875,134.5 22.1875,134.5 Q23.0781,134.5 23.7031,134.2969 Q24.0625,134.1875 24.4688,133.8281 Q24.7344,133.625 24.875,133.5625 Q25.0156,133.5 25.1875,133.5 Q25.5156,133.5 25.75,133.7656 Q26,134.0156 26,134.375 Q26,134.7188 25.6563,135.125 Q25.1563,135.7188 24.3594,136.0469 Q23.3125,136.5 22.0313,136.5 Q20.5313,136.5 19.3281,135.9063 Q18.3594,135.4375 17.6719,134.4219 Q17,133.4063 17,132.2031 L17,131.1094 Q17,129.8594 17.5938,128.7656 Q18.2031,127.6719 19.25,127.0938 Q20.3125,126.5 21.5,126.5 Q22.2188,126.5 22.8438,126.75 Q23.4688,127 24,127.5 Z " fill="#000000"/><text fill="#000000" font-family="sans-serif" font-size="12" lengthAdjust="spacing" textLength="45" x="36" y="135.9102">Position</text><line style="stroke:#A80036;stroke-width:1.5;" x1="8" x2="83" y1="147" y2="147"/><line style="stroke:#A80036;stroke-width:1.5;" x1="8" x2="83" y1="155" y2="155"/><!--MD5=[b8d28ad62eb789052366a016ec5935c6]
link RolesUI to Position--><path codeLine="7" d="M45.5,55 C45.5,71 45.5,92.45 45.5,109.53 " fill="none" id="RolesUI-to-Position" style="stroke:#A80036;stroke-width:1.0;"/><polygon fill="#A80036" points="45.5,114.68,49.5,105.68,45.5,109.68,41.5,105.68,45.5,114.68" style="stroke:#A80036;stroke-width:1.0;"/><!--MD5=[ca71757eafbcd614ab7a651a42c81a0a]
link Position to Border--><path codeLine="10" d="M45.5,163 C45.5,179 45.5,200.45 45.5,217.53 " fill="none" id="Position-to-Border" style="stroke:#A80036;stroke-width:1.0;"/><polygon fill="#A80036" points="45.5,222.68,49.5,213.68,45.5,217.68,41.5,213.68,45.5,222.68" style="stroke:#A80036;stroke-width:1.0;"/><!--MD5=[9bca9131b28ba0a7723149b075e6791f]
@startuml

class RolesUI
class Border
class Position


RolesUI - -> Position


Position - -> Border




@enduml

PlantUML version 1.2021.16(Wed Dec 08 17:25:22 GMT 2021)
(GPL source distribution)
Java Runtime: OpenJDK Runtime Environment
JVM: OpenJDK 64-Bit Server VM
Default Encoding: Cp1252
Language: pt
Country: PT
--></g></svg>