<?xml version="1.0" encoding="UTF-8" standalone="no"?><svg xmlns="http://www.w3.org/2000/svg" xmlns:xlink="http://www.w3.org/1999/xlink" contentScriptType="application/ecmascript" contentStyleType="text/css" height="193px" preserveAspectRatio="none" style="width:1274px;height:193px;background:#FFFFFF;" version="1.1" viewBox="0 0 1274 193" width="1274px" zoomAndPan="magnify"><defs><filter height="300%" id="f1nb317lipmdx" width="300%" x="-1" y="-1"><feGaussianBlur result="blurOut" stdDeviation="2.0"/><feColorMatrix in="blurOut" result="blurOut2" type="matrix" values="0 0 0 0 0 0 0 0 0 0 0 0 0 0 0 0 0 0 .4 0"/><feOffset dx="4.0" dy="4.0" in="blurOut2" result="blurOut3"/><feBlend in="SourceGraphic" in2="blurOut3" mode="normal"/></filter></defs><g><!--MD5=[3b31b93e6348312c3f196e025a82695a]
class RolesUI--><rect codeLine="3" fill="#FEFECE" filter="url(#f1nb317lipmdx)" height="172.5234" id="RolesUI" style="stroke:#A80036;stroke-width:1.5;" width="176" x="7" y="7"/><ellipse cx="68.25" cy="23" fill="#ADD1B2" rx="11" ry="11" style="stroke:#A80036;stroke-width:1.0;"/><path d="M70.25,19.5 Q70.4531,19 70.6875,18.75 Q70.9219,18.5 71.1875,18.5 Q71.6563,18.5 71.9531,18.7813 Q72.25,19.0625 72.25,19.7188 L72.25,21.2813 Q72.25,21.9375 71.9688,22.2188 Q71.6875,22.5 71.25,22.5 Q70.8594,22.5 70.6094,22.3281 Q70.3594,22.1563 70.25,21.7031 Q70.2031,21.3906 70.0313,21.2188 Q69.7188,20.8906 69.1563,20.7031 Q68.5938,20.5 68.0313,20.5 Q67.3281,20.5 66.7344,20.7813 Q66.1563,21.0625 65.7031,21.6875 Q65.25,22.3125 65.25,23.1719 L65.25,24.0938 Q65.25,25.125 66.0938,25.8125 Q66.9375,26.5 68.4375,26.5 Q69.3281,26.5 69.9531,26.2969 Q70.3125,26.1875 70.7188,25.8281 Q70.9844,25.625 71.125,25.5625 Q71.2656,25.5 71.4375,25.5 Q71.7656,25.5 72,25.7656 Q72.25,26.0156 72.25,26.375 Q72.25,26.7188 71.9063,27.125 Q71.4063,27.7188 70.6094,28.0469 Q69.5625,28.5 68.2813,28.5 Q66.7813,28.5 65.5781,27.9063 Q64.6094,27.4375 63.9219,26.4219 Q63.25,25.4063 63.25,24.2031 L63.25,23.1094 Q63.25,21.8594 63.8438,20.7656 Q64.4531,19.6719 65.5,19.0938 Q66.5625,18.5 67.75,18.5 Q68.4688,18.5 69.0938,18.75 Q69.7188,19 70.25,19.5 Z " fill="#000000"/><text fill="#000000" font-family="sans-serif" font-size="12" lengthAdjust="spacing" textLength="45" x="88.75" y="27.9102">RolesUI</text><line style="stroke:#A80036;stroke-width:1.5;" x1="8" x2="182" y1="39" y2="39"/><text fill="#000000" font-family="sans-serif" font-size="11" lengthAdjust="spacing" textLength="77" x="13" y="54.4189">BorderStore bs;</text><text fill="#000000" font-family="sans-serif" font-size="11" lengthAdjust="spacing" textLength="82" x="13" y="68.2549">CountryStore cs;</text><text fill="#000000" font-family="sans-serif" font-size="11" lengthAdjust="spacing" textLength="63" x="13" y="82.0908">PortStore ps;</text><text fill="#000000" font-family="sans-serif" font-size="11" lengthAdjust="spacing" textLength="87" x="13" y="95.9268">SeaDistStore sds;</text><text fill="#000000" font-family="sans-serif" font-size="11" lengthAdjust="spacing" textLength="65" x="13" y="109.7627">ShipStore ss;</text><text fill="#000000" font-family="sans-serif" font-size="11" lengthAdjust="spacing" textLength="85" x="13" y="123.5986">SupplyEnergy se;</text><text fill="#000000" font-family="sans-serif" font-size="11" lengthAdjust="spacing" textLength="99" x="13" y="137.4346">PositionMatrixGraph;</text><text fill="#000000" font-family="sans-serif" font-size="11" lengthAdjust="spacing" textLength="72" x="13" y="151.2705">Centrality cent;</text><line style="stroke:#A80036;stroke-width:1.5;" x1="8" x2="182" y1="157.6875" y2="157.6875"/><ellipse cx="18" cy="168.6875" fill="#84BE84" rx="3" ry="3" style="stroke:#038048;stroke-width:1.0;"/><text fill="#000000" font-family="sans-serif" font-size="11" lengthAdjust="spacing" textLength="150" x="27" y="173.1064">void traficManager(string user)</text><!--MD5=[25b9f9e2fa5344f5bf997e14c4c6979e]
class PositionMatrixGraph--><rect codeLine="17" fill="#FEFECE" filter="url(#f1nb317lipmdx)" height="103.3438" id="PositionMatrixGraph" style="stroke:#A80036;stroke-width:1.5;" width="242" x="218" y="42"/><ellipse cx="279.75" cy="58" fill="#ADD1B2" rx="11" ry="11" style="stroke:#A80036;stroke-width:1.0;"/><path d="M281.75,54.5 Q281.9531,54 282.1875,53.75 Q282.4219,53.5 282.6875,53.5 Q283.1563,53.5 283.4531,53.7813 Q283.75,54.0625 283.75,54.7188 L283.75,56.2813 Q283.75,56.9375 283.4688,57.2188 Q283.1875,57.5 282.75,57.5 Q282.3594,57.5 282.1094,57.3281 Q281.8594,57.1563 281.75,56.7031 Q281.7031,56.3906 281.5313,56.2188 Q281.2188,55.8906 280.6563,55.7031 Q280.0938,55.5 279.5313,55.5 Q278.8281,55.5 278.2344,55.7813 Q277.6563,56.0625 277.2031,56.6875 Q276.75,57.3125 276.75,58.1719 L276.75,59.0938 Q276.75,60.125 277.5938,60.8125 Q278.4375,61.5 279.9375,61.5 Q280.8281,61.5 281.4531,61.2969 Q281.8125,61.1875 282.2188,60.8281 Q282.4844,60.625 282.625,60.5625 Q282.7656,60.5 282.9375,60.5 Q283.2656,60.5 283.5,60.7656 Q283.75,61.0156 283.75,61.375 Q283.75,61.7188 283.4063,62.125 Q282.9063,62.7188 282.1094,63.0469 Q281.0625,63.5 279.7813,63.5 Q278.2813,63.5 277.0781,62.9063 Q276.1094,62.4375 275.4219,61.4219 Q274.75,60.4063 274.75,59.2031 L274.75,58.1094 Q274.75,56.8594 275.3438,55.7656 Q275.9531,54.6719 277,54.0938 Q278.0625,53.5 279.25,53.5 Q279.9688,53.5 280.5938,53.75 Q281.2188,54 281.75,54.5 Z " fill="#000000"/><text fill="#000000" font-family="sans-serif" font-size="12" lengthAdjust="spacing" textLength="110" x="300.25" y="62.9102">PositionMatrixGraph</text><line style="stroke:#A80036;stroke-width:1.5;" x1="219" x2="459" y1="74" y2="74"/><rect fill="none" height="6" style="stroke:#C82930;stroke-width:1.0;" width="6" x="226" y="82"/><text fill="#000000" font-family="sans-serif" font-size="11" lengthAdjust="spacing" textLength="216" x="238" y="89.4189">MatrixGraph&lt;Position, Double&gt; completeMap;</text><rect fill="none" height="6" style="stroke:#C82930;stroke-width:1.0;" width="6" x="226" y="95.8359"/><text fill="#000000" font-family="sans-serif" font-size="11" lengthAdjust="spacing" textLength="84" x="238" y="103.2549">ShipSummary ss;</text><line style="stroke:#A80036;stroke-width:1.5;" x1="219" x2="459" y1="109.6719" y2="109.6719"/><ellipse cx="229" cy="120.6719" fill="#84BE84" rx="3" ry="3" style="stroke:#038048;stroke-width:1.0;"/><text fill="#000000" font-family="sans-serif" font-size="11" lengthAdjust="spacing" textLength="188" x="238" y="125.0908">Graph&lt;Position, Double&gt; getLandMap()</text><ellipse cx="229" cy="134.5078" fill="#84BE84" rx="3" ry="3" style="stroke:#038048;stroke-width:1.0;"/><text fill="#000000" font-family="sans-serif" font-size="11" lengthAdjust="spacing" textLength="183" x="238" y="138.9268">Graph&lt;Position, Double&gt; getSeaMap()</text><!--MD5=[afe26e3be9910fed37601ec9e12252ab]
class Algoritms--><rect codeLine="25" fill="#FEFECE" filter="url(#f1nb317lipmdx)" height="61.8359" id="Algoritms" style="stroke:#A80036;stroke-width:1.5;" width="765" x="495.5" y="62.5"/><ellipse cx="847.75" cy="78.5" fill="#ADD1B2" rx="11" ry="11" style="stroke:#A80036;stroke-width:1.0;"/><path d="M849.75,75 Q849.9531,74.5 850.1875,74.25 Q850.4219,74 850.6875,74 Q851.1563,74 851.4531,74.2813 Q851.75,74.5625 851.75,75.2188 L851.75,76.7813 Q851.75,77.4375 851.4688,77.7188 Q851.1875,78 850.75,78 Q850.3594,78 850.1094,77.8281 Q849.8594,77.6563 849.75,77.2031 Q849.7031,76.8906 849.5313,76.7188 Q849.2188,76.3906 848.6563,76.2031 Q848.0938,76 847.5313,76 Q846.8281,76 846.2344,76.2813 Q845.6563,76.5625 845.2031,77.1875 Q844.75,77.8125 844.75,78.6719 L844.75,79.5938 Q844.75,80.625 845.5938,81.3125 Q846.4375,82 847.9375,82 Q848.8281,82 849.4531,81.7969 Q849.8125,81.6875 850.2188,81.3281 Q850.4844,81.125 850.625,81.0625 Q850.7656,81 850.9375,81 Q851.2656,81 851.5,81.2656 Q851.75,81.5156 851.75,81.875 Q851.75,82.2188 851.4063,82.625 Q850.9063,83.2188 850.1094,83.5469 Q849.0625,84 847.7813,84 Q846.2813,84 845.0781,83.4063 Q844.1094,82.9375 843.4219,81.9219 Q842.75,80.9063 842.75,79.7031 L842.75,78.6094 Q842.75,77.3594 843.3438,76.2656 Q843.9531,75.1719 845,74.5938 Q846.0625,74 847.25,74 Q847.9688,74 848.5938,74.25 Q849.2188,74.5 849.75,75 Z " fill="#000000"/><text fill="#000000" font-family="sans-serif" font-size="12" lengthAdjust="spacing" textLength="52" x="868.25" y="83.4102">Algoritms</text><line style="stroke:#A80036;stroke-width:1.5;" x1="496.5" x2="1259.5" y1="94.5" y2="94.5"/><line style="stroke:#A80036;stroke-width:1.5;" x1="496.5" x2="1259.5" y1="102.5" y2="102.5"/><ellipse cx="506.5" cy="113.5" fill="#84BE84" rx="3" ry="3" style="stroke:#038048;stroke-width:1.0;"/><text fill="#000000" font-family="sans-serif" font-size="11" lengthAdjust="spacing" textLength="739" x="515.5" y="117.9189">boolean shortestPaths(Graph&lt;V, E&gt; g, V vOrig, Comparator&lt;E&gt; ce, BinaryOperator&lt;E&gt; sum, E zero, ArrayList&lt;LinkedList&lt;V&gt;&gt; paths, ArrayList&lt;E&gt; dists)</text><!--MD5=[22ff5fd1a5e6363b2c9fd1471b1e500a]
link RolesUI to PositionMatrixGraph--><path codeLine="30" d="M183.16,93.5 C193.01,93.5 202.86,93.5 212.71,93.5 " fill="none" id="RolesUI-to-PositionMatrixGraph" style="stroke:#A80036;stroke-width:1.0;"/><polygon fill="#A80036" points="217.86,93.5,208.86,89.5,212.86,93.5,208.86,97.5,217.86,93.5" style="stroke:#A80036;stroke-width:1.0;"/><!--MD5=[1096c4656b6674e93b308bc466141f31]
link PositionMatrixGraph to Algoritms--><path codeLine="31" d="M460.06,93.5 C470.03,93.5 479.99,93.5 489.95,93.5 " fill="none" id="PositionMatrixGraph-to-Algoritms" style="stroke:#A80036;stroke-width:1.0;"/><polygon fill="#A80036" points="495.16,93.5,486.16,89.5,490.16,93.5,486.16,97.5,495.16,93.5" style="stroke:#A80036;stroke-width:1.0;"/><!--MD5=[153c78100422b8a26637cf6c24542a32]
@startuml
'https://plantuml.com/class-diagram

class RolesUI {
    BorderStore bs;
    CountryStore cs;
    PortStore ps;
    SeaDistStore sds;
    ShipStore ss;
    SupplyEnergy se;
    PositionMatrixGraph;
    Centrality cent;

    + void traficManager(string user)
}


class PositionMatrixGraph{
    - MatrixGraph<Position, Double> completeMap;
    - ShipSummary ss;

    + Graph<Position, Double> getLandMap()
    + Graph<Position, Double> getSeaMap()
}

class Algoritms{
    + boolean shortestPaths(Graph<V, E> g, V vOrig, Comparator<E> ce, BinaryOperator<E> sum, E zero, ArrayList<LinkedList<V>> paths, ArrayList<E> dists)
}


RolesUI -> PositionMatrixGraph
PositionMatrixGraph -> Algoritms

@enduml

@startuml

class RolesUI {
    BorderStore bs;
    CountryStore cs;
    PortStore ps;
    SeaDistStore sds;
    ShipStore ss;
    SupplyEnergy se;
    PositionMatrixGraph;
    Centrality cent;

    + void traficManager(string user)
}


class PositionMatrixGraph{
    - MatrixGraph<Position, Double> completeMap;
    - ShipSummary ss;

    + Graph<Position, Double> getLandMap()
    + Graph<Position, Double> getSeaMap()
}

class Algoritms{
    + boolean shortestPaths(Graph<V, E> g, V vOrig, Comparator<E> ce, BinaryOperator<E> sum, E zero, ArrayList<LinkedList<V>> paths, ArrayList<E> dists)
}


RolesUI -> PositionMatrixGraph
PositionMatrixGraph -> Algoritms

@enduml

PlantUML version 1.2022.0(Tue Jan 11 16:16:42 GMT 2022)
(GPL source distribution)
Java Runtime: OpenJDK Runtime Environment
JVM: OpenJDK 64-Bit Server VM
Default Encoding: Cp1252
Language: pt
Country: PT
--></g></svg>