<?xml version="1.0" encoding="UTF-8" standalone="no"?><svg xmlns="http://www.w3.org/2000/svg" xmlns:xlink="http://www.w3.org/1999/xlink" contentScriptType="application/ecmascript" contentStyleType="text/css" height="285px" preserveAspectRatio="none" style="width:210px;height:285px;background:#FFFFFF;" version="1.1" viewBox="0 0 210 285" width="210px" zoomAndPan="magnify"><defs><filter height="300%" id="f19iwze5t2gcce" width="300%" x="-1" y="-1"><feGaussianBlur result="blurOut" stdDeviation="2.0"/><feColorMatrix in="blurOut" result="blurOut2" type="matrix" values="0 0 0 0 0 0 0 0 0 0 0 0 0 0 0 0 0 0 .4 0"/><feOffset dx="4.0" dy="4.0" in="blurOut2" result="blurOut3"/><feBlend in="SourceGraphic" in2="blurOut3" mode="normal"/></filter></defs><g><!--MD5=[868cc55e1ee169ebd3aac63161a0438c]
class ColorMap--><rect codeLine="1" fill="#FEFECE" filter="url(#f19iwze5t2gcce)" height="48" id="ColorMap" style="stroke:#A80036;stroke-width:1.5;" width="90" x="58" y="7"/><ellipse cx="73" cy="23" fill="#ADD1B2" rx="11" ry="11" style="stroke:#A80036;stroke-width:1.0;"/><path d="M75.9688,28.6406 Q75.3906,28.9375 74.75,29.0781 Q74.1094,29.2344 73.4063,29.2344 Q70.9063,29.2344 69.5781,27.5938 Q68.2656,25.9375 68.2656,22.8125 Q68.2656,19.6875 69.5781,18.0313 Q70.9063,16.375 73.4063,16.375 Q74.1094,16.375 74.75,16.5313 Q75.4063,16.6875 75.9688,16.9844 L75.9688,19.7031 Q75.3438,19.125 74.75,18.8594 Q74.1563,18.5781 73.5313,18.5781 Q72.1875,18.5781 71.5,19.6563 Q70.8125,20.7188 70.8125,22.8125 Q70.8125,24.9063 71.5,25.9844 Q72.1875,27.0469 73.5313,27.0469 Q74.1563,27.0469 74.75,26.7813 Q75.3438,26.5 75.9688,25.9219 L75.9688,28.6406 Z " fill="#000000"/><text fill="#000000" font-family="sans-serif" font-size="12" lengthAdjust="spacing" textLength="58" x="87" y="27.1543">ColorMap</text><line style="stroke:#A80036;stroke-width:1.5;" x1="59" x2="147" y1="39" y2="39"/><line style="stroke:#A80036;stroke-width:1.5;" x1="59" x2="147" y1="47" y2="47"/><!--MD5=[25b9f9e2fa5344f5bf997e14c4c6979e]
class PositionMatrixGraph--><rect codeLine="2" fill="#FEFECE" filter="url(#f19iwze5t2gcce)" height="48" id="PositionMatrixGraph" style="stroke:#A80036;stroke-width:1.5;" width="157" x="24.5" y="115"/><ellipse cx="39.5" cy="131" fill="#ADD1B2" rx="11" ry="11" style="stroke:#A80036;stroke-width:1.0;"/><path d="M42.4688,136.6406 Q41.8906,136.9375 41.25,137.0781 Q40.6094,137.2344 39.9063,137.2344 Q37.4063,137.2344 36.0781,135.5938 Q34.7656,133.9375 34.7656,130.8125 Q34.7656,127.6875 36.0781,126.0313 Q37.4063,124.375 39.9063,124.375 Q40.6094,124.375 41.25,124.5313 Q41.9063,124.6875 42.4688,124.9844 L42.4688,127.7031 Q41.8438,127.125 41.25,126.8594 Q40.6563,126.5781 40.0313,126.5781 Q38.6875,126.5781 38,127.6563 Q37.3125,128.7188 37.3125,130.8125 Q37.3125,132.9063 38,133.9844 Q38.6875,135.0469 40.0313,135.0469 Q40.6563,135.0469 41.25,134.7813 Q41.8438,134.5 42.4688,133.9219 L42.4688,136.6406 Z " fill="#000000"/><text fill="#000000" font-family="sans-serif" font-size="12" lengthAdjust="spacing" textLength="125" x="53.5" y="135.1543">PositionMatrixGraph</text><line style="stroke:#A80036;stroke-width:1.5;" x1="25.5" x2="180.5" y1="147" y2="147"/><line style="stroke:#A80036;stroke-width:1.5;" x1="25.5" x2="180.5" y1="155" y2="155"/><!--MD5=[deb4e1f6eb1e3c1256fdb830f96abfbb]
class Country--><rect codeLine="3" fill="#FEFECE" filter="url(#f19iwze5t2gcce)" height="48" id="Country" style="stroke:#A80036;stroke-width:1.5;" width="80" x="7" y="223"/><ellipse cx="22" cy="239" fill="#ADD1B2" rx="11" ry="11" style="stroke:#A80036;stroke-width:1.0;"/><path d="M24.9688,244.6406 Q24.3906,244.9375 23.75,245.0781 Q23.1094,245.2344 22.4063,245.2344 Q19.9063,245.2344 18.5781,243.5938 Q17.2656,241.9375 17.2656,238.8125 Q17.2656,235.6875 18.5781,234.0313 Q19.9063,232.375 22.4063,232.375 Q23.1094,232.375 23.75,232.5313 Q24.4063,232.6875 24.9688,232.9844 L24.9688,235.7031 Q24.3438,235.125 23.75,234.8594 Q23.1563,234.5781 22.5313,234.5781 Q21.1875,234.5781 20.5,235.6563 Q19.8125,236.7188 19.8125,238.8125 Q19.8125,240.9063 20.5,241.9844 Q21.1875,243.0469 22.5313,243.0469 Q23.1563,243.0469 23.75,242.7813 Q24.3438,242.5 24.9688,241.9219 L24.9688,244.6406 Z " fill="#000000"/><text fill="#000000" font-family="sans-serif" font-size="12" lengthAdjust="spacing" textLength="48" x="36" y="243.1543">Country</text><line style="stroke:#A80036;stroke-width:1.5;" x1="8" x2="86" y1="255" y2="255"/><line style="stroke:#A80036;stroke-width:1.5;" x1="8" x2="86" y1="263" y2="263"/><!--MD5=[a0336aaa8110b78d9cacadb9d45e00a3]
class Border--><rect codeLine="4" fill="#FEFECE" filter="url(#f19iwze5t2gcce)" height="48" id="Border" style="stroke:#A80036;stroke-width:1.5;" width="74" x="122" y="223"/><ellipse cx="137" cy="239" fill="#ADD1B2" rx="11" ry="11" style="stroke:#A80036;stroke-width:1.0;"/><path d="M139.9688,244.6406 Q139.3906,244.9375 138.75,245.0781 Q138.1094,245.2344 137.4063,245.2344 Q134.9063,245.2344 133.5781,243.5938 Q132.2656,241.9375 132.2656,238.8125 Q132.2656,235.6875 133.5781,234.0313 Q134.9063,232.375 137.4063,232.375 Q138.1094,232.375 138.75,232.5313 Q139.4063,232.6875 139.9688,232.9844 L139.9688,235.7031 Q139.3438,235.125 138.75,234.8594 Q138.1563,234.5781 137.5313,234.5781 Q136.1875,234.5781 135.5,235.6563 Q134.8125,236.7188 134.8125,238.8125 Q134.8125,240.9063 135.5,241.9844 Q136.1875,243.0469 137.5313,243.0469 Q138.1563,243.0469 138.75,242.7813 Q139.3438,242.5 139.9688,241.9219 L139.9688,244.6406 Z " fill="#000000"/><text fill="#000000" font-family="sans-serif" font-size="12" lengthAdjust="spacing" textLength="42" x="151" y="243.1543">Border</text><line style="stroke:#A80036;stroke-width:1.5;" x1="123" x2="195" y1="255" y2="255"/><line style="stroke:#A80036;stroke-width:1.5;" x1="123" x2="195" y1="263" y2="263"/><!--MD5=[ac98d5faae3958f0aebc6b2277c8065f]
link ColorMap to PositionMatrixGraph--><path codeLine="6" d="M103,55 C103,71 103,92.45 103,109.53 " fill="none" id="ColorMap-to-PositionMatrixGraph" style="stroke:#A80036;stroke-width:1.0;"/><polygon fill="#A80036" points="103,114.68,107,105.68,103,109.68,99,105.68,103,114.68" style="stroke:#A80036;stroke-width:1.0;"/><!--MD5=[b0ad7379dfe9ca994092022a32646f8e]
link PositionMatrixGraph to Country--><path codeLine="7" d="M90.85,163 C82.32,179.14 70.87,200.82 61.81,217.97 " fill="none" id="PositionMatrixGraph-to-Country" style="stroke:#A80036;stroke-width:1.0;"/><polygon fill="#A80036" points="59.32,222.68,67.0571,216.5859,61.6529,218.2576,59.9812,212.8534,59.32,222.68" style="stroke:#A80036;stroke-width:1.0;"/><!--MD5=[221d5423becaf5899cf911dd8750668d]
link PositionMatrixGraph to Border--><path codeLine="8" d="M115.15,163 C123.68,179.14 135.13,200.82 144.19,217.97 " fill="none" id="PositionMatrixGraph-to-Border" style="stroke:#A80036;stroke-width:1.0;"/><polygon fill="#A80036" points="146.68,222.68,146.0188,212.8534,144.3471,218.2576,138.9429,216.5859,146.68,222.68" style="stroke:#A80036;stroke-width:1.0;"/><!--MD5=[ed9622944d95d383a222d328c196dfdd]
@startuml
class ColorMap
class PositionMatrixGraph
class Country
class Border

ColorMap- ->PositionMatrixGraph
PositionMatrixGraph- ->Country
PositionMatrixGraph- ->Border
@enduml

PlantUML version 1.2021.16(Wed Dec 08 17:25:22 UTC 2021)
(GPL source distribution)
Java Runtime: OpenJDK Runtime Environment
JVM: OpenJDK 64-Bit Server VM
Default Encoding: UTF-8
Language: en
Country: US
--></g></svg>