<?xml version="1.0" encoding="UTF-8" standalone="no"?><svg xmlns="http://www.w3.org/2000/svg" xmlns:xlink="http://www.w3.org/1999/xlink" contentScriptType="application/ecmascript" contentStyleType="text/css" height="285px" preserveAspectRatio="none" style="width:119px;height:285px;background:#FFFFFF;" version="1.1" viewBox="0 0 119 285" width="119px" zoomAndPan="magnify"><defs><filter height="300%" id="fb4iceinzmwdc" width="300%" x="-1" y="-1"><feGaussianBlur result="blurOut" stdDeviation="2.0"/><feColorMatrix in="blurOut" result="blurOut2" type="matrix" values="0 0 0 0 0 0 0 0 0 0 0 0 0 0 0 0 0 0 .4 0"/><feOffset dx="4.0" dy="4.0" in="blurOut2" result="blurOut3"/><feBlend in="SourceGraphic" in2="blurOut3" mode="normal"/></filter></defs><g><!--MD5=[3b31b93e6348312c3f196e025a82695a]
class RolesUI--><rect codeLine="1" fill="#FEFECE" filter="url(#fb4iceinzmwdc)" height="48" id="RolesUI" style="stroke:#A80036;stroke-width:1.5;" width="78" x="17" y="7"/><ellipse cx="32" cy="23" fill="#ADD1B2" rx="11" ry="11" style="stroke:#A80036;stroke-width:1.0;"/><path d="M34.9688,28.6406 Q34.3906,28.9375 33.75,29.0781 Q33.1094,29.2344 32.4063,29.2344 Q29.9063,29.2344 28.5781,27.5938 Q27.2656,25.9375 27.2656,22.8125 Q27.2656,19.6875 28.5781,18.0313 Q29.9063,16.375 32.4063,16.375 Q33.1094,16.375 33.75,16.5313 Q34.4063,16.6875 34.9688,16.9844 L34.9688,19.7031 Q34.3438,19.125 33.75,18.8594 Q33.1563,18.5781 32.5313,18.5781 Q31.1875,18.5781 30.5,19.6563 Q29.8125,20.7188 29.8125,22.8125 Q29.8125,24.9063 30.5,25.9844 Q31.1875,27.0469 32.5313,27.0469 Q33.1563,27.0469 33.75,26.7813 Q34.3438,26.5 34.9688,25.9219 L34.9688,28.6406 Z " fill="#000000"/><text fill="#000000" font-family="sans-serif" font-size="12" lengthAdjust="spacing" textLength="46" x="46" y="27.1543">RolesUI</text><line style="stroke:#A80036;stroke-width:1.5;" x1="18" x2="94" y1="39" y2="39"/><line style="stroke:#A80036;stroke-width:1.5;" x1="18" x2="94" y1="47" y2="47"/><!--MD5=[4533588fb66c6fa31a6e04bf29ae6161]
class Algorithms--><rect codeLine="2" fill="#FEFECE" filter="url(#fb4iceinzmwdc)" height="48" id="Algorithms" style="stroke:#A80036;stroke-width:1.5;" width="98" x="7" y="223"/><ellipse cx="22" cy="239" fill="#ADD1B2" rx="11" ry="11" style="stroke:#A80036;stroke-width:1.0;"/><path d="M24.9688,244.6406 Q24.3906,244.9375 23.75,245.0781 Q23.1094,245.2344 22.4063,245.2344 Q19.9063,245.2344 18.5781,243.5938 Q17.2656,241.9375 17.2656,238.8125 Q17.2656,235.6875 18.5781,234.0313 Q19.9063,232.375 22.4063,232.375 Q23.1094,232.375 23.75,232.5313 Q24.4063,232.6875 24.9688,232.9844 L24.9688,235.7031 Q24.3438,235.125 23.75,234.8594 Q23.1563,234.5781 22.5313,234.5781 Q21.1875,234.5781 20.5,235.6563 Q19.8125,236.7188 19.8125,238.8125 Q19.8125,240.9063 20.5,241.9844 Q21.1875,243.0469 22.5313,243.0469 Q23.1563,243.0469 23.75,242.7813 Q24.3438,242.5 24.9688,241.9219 L24.9688,244.6406 Z " fill="#000000"/><text fill="#000000" font-family="sans-serif" font-size="12" lengthAdjust="spacing" textLength="66" x="36" y="243.1543">Algorithms</text><line style="stroke:#A80036;stroke-width:1.5;" x1="8" x2="104" y1="255" y2="255"/><line style="stroke:#A80036;stroke-width:1.5;" x1="8" x2="104" y1="263" y2="263"/><!--MD5=[ec764fd255517cf4e1e73b5288bf6dc7]
class Circuit--><rect codeLine="3" fill="#FEFECE" filter="url(#fb4iceinzmwdc)" height="48" id="Circuit" style="stroke:#A80036;stroke-width:1.5;" width="71" x="20.5" y="115"/><ellipse cx="35.5" cy="131" fill="#ADD1B2" rx="11" ry="11" style="stroke:#A80036;stroke-width:1.0;"/><path d="M38.4688,136.6406 Q37.8906,136.9375 37.25,137.0781 Q36.6094,137.2344 35.9063,137.2344 Q33.4063,137.2344 32.0781,135.5938 Q30.7656,133.9375 30.7656,130.8125 Q30.7656,127.6875 32.0781,126.0313 Q33.4063,124.375 35.9063,124.375 Q36.6094,124.375 37.25,124.5313 Q37.9063,124.6875 38.4688,124.9844 L38.4688,127.7031 Q37.8438,127.125 37.25,126.8594 Q36.6563,126.5781 36.0313,126.5781 Q34.6875,126.5781 34,127.6563 Q33.3125,128.7188 33.3125,130.8125 Q33.3125,132.9063 34,133.9844 Q34.6875,135.0469 36.0313,135.0469 Q36.6563,135.0469 37.25,134.7813 Q37.8438,134.5 38.4688,133.9219 L38.4688,136.6406 Z " fill="#000000"/><text fill="#000000" font-family="sans-serif" font-size="12" lengthAdjust="spacing" textLength="39" x="49.5" y="135.1543">Circuit</text><line style="stroke:#A80036;stroke-width:1.5;" x1="21.5" x2="90.5" y1="147" y2="147"/><line style="stroke:#A80036;stroke-width:1.5;" x1="21.5" x2="90.5" y1="155" y2="155"/><!--MD5=[fd2d145c0dd3eabbcf19f803bc5bf8de]
link RolesUI to Circuit--><path codeLine="5" d="M56,55 C56,71 56,92.45 56,109.53 " fill="none" id="RolesUI-to-Circuit" style="stroke:#A80036;stroke-width:1.0;"/><polygon fill="#A80036" points="56,114.68,60,105.68,56,109.68,52,105.68,56,114.68" style="stroke:#A80036;stroke-width:1.0;"/><!--MD5=[6fcd6c6451232c9d4a5fd0ce22d8cff9]
link Circuit to Algorithms--><path codeLine="7" d="M56,163 C56,179 56,200.45 56,217.53 " fill="none" id="Circuit-to-Algorithms" style="stroke:#A80036;stroke-width:1.0;"/><polygon fill="#A80036" points="56,222.68,60,213.68,56,217.68,52,213.68,56,222.68" style="stroke:#A80036;stroke-width:1.0;"/><!--MD5=[27e7818e2149492bdc7892b62c8e1d94]
@startuml
class RolesUI
class Algorithms
class Circuit

RolesUI - -> Circuit

Circuit - -> Algorithms
@enduml

PlantUML version 1.2021.16(Wed Dec 08 17:25:22 UTC 2021)
(GPL source distribution)
Java Runtime: OpenJDK Runtime Environment
JVM: OpenJDK 64-Bit Server VM
Default Encoding: UTF-8
Language: en
Country: US
--></g></svg>