<?xml version="1.0" encoding="UTF-8" standalone="no"?><svg xmlns="http://www.w3.org/2000/svg" xmlns:xlink="http://www.w3.org/1999/xlink" contentScriptType="application/ecmascript" contentStyleType="text/css" height="629px" preserveAspectRatio="none" style="width:801px;height:629px;background:#FFFFFF;" version="1.1" viewBox="0 0 801 629" width="801px" zoomAndPan="magnify"><defs><filter height="300%" id="f18lahhnfy80md" width="300%" x="-1" y="-1"><feGaussianBlur result="blurOut" stdDeviation="2.0"/><feColorMatrix in="blurOut" result="blurOut2" type="matrix" values="0 0 0 0 0 0 0 0 0 0 0 0 0 0 0 0 0 0 .4 0"/><feOffset dx="4.0" dy="4.0" in="blurOut2" result="blurOut3"/><feBlend in="SourceGraphic" in2="blurOut3" mode="normal"/></filter></defs><g><!--MD5=[0dc7f2ddb409b58bcf52b12238c25399]
class Ship--><rect codeLine="4" fill="#FEFECE" filter="url(#f18lahhnfy80md)" height="342.5078" id="Ship" style="stroke:#A80036;stroke-width:1.5;" width="144" x="343.5" y="273"/><ellipse cx="397.75" cy="289" fill="#ADD1B2" rx="11" ry="11" style="stroke:#A80036;stroke-width:1.0;"/><path d="M400.7188,294.6406 Q400.1406,294.9375 399.5,295.0781 Q398.8594,295.2344 398.1563,295.2344 Q395.6563,295.2344 394.3281,293.5938 Q393.0156,291.9375 393.0156,288.8125 Q393.0156,285.6875 394.3281,284.0313 Q395.6563,282.375 398.1563,282.375 Q398.8594,282.375 399.5,282.5313 Q400.1563,282.6875 400.7188,282.9844 L400.7188,285.7031 Q400.0938,285.125 399.5,284.8594 Q398.9063,284.5781 398.2813,284.5781 Q396.9375,284.5781 396.25,285.6563 Q395.5625,286.7188 395.5625,288.8125 Q395.5625,290.9063 396.25,291.9844 Q396.9375,293.0469 398.2813,293.0469 Q398.9063,293.0469 399.5,292.7813 Q400.0938,292.5 400.7188,291.9219 L400.7188,294.6406 Z " fill="#000000"/><text fill="#000000" font-family="sans-serif" font-size="12" lengthAdjust="spacing" textLength="27" x="418.25" y="293.1543">Ship</text><line style="stroke:#A80036;stroke-width:1.5;" x1="344.5" x2="486.5" y1="305" y2="305"/><rect fill="none" height="6" style="stroke:#C82930;stroke-width:1.0;" width="6" x="351.5" y="313"/><text fill="#000000" font-family="sans-serif" font-size="11" lengthAdjust="spacing" textLength="32" x="363.5" y="319.2104">mmsi</text><rect fill="none" height="6" style="stroke:#C82930;stroke-width:1.0;" width="6" x="351.5" y="325.8047"/><text fill="#000000" font-family="sans-serif" font-size="11" lengthAdjust="spacing" textLength="72" x="363.5" y="332.0151">dynamicShip</text><rect fill="none" height="6" style="stroke:#C82930;stroke-width:1.0;" width="6" x="351.5" y="338.6094"/><text fill="#000000" font-family="sans-serif" font-size="11" lengthAdjust="spacing" textLength="32" x="363.5" y="344.8198">name</text><rect fill="none" height="6" style="stroke:#C82930;stroke-width:1.0;" width="6" x="351.5" y="351.4141"/><text fill="#000000" font-family="sans-serif" font-size="11" lengthAdjust="spacing" textLength="21" x="363.5" y="357.6245">imo</text><rect fill="none" height="6" style="stroke:#C82930;stroke-width:1.0;" width="6" x="351.5" y="364.2188"/><text fill="#000000" font-family="sans-serif" font-size="11" lengthAdjust="spacing" textLength="44" x="363.5" y="370.4292">callSign</text><rect fill="none" height="6" style="stroke:#C82930;stroke-width:1.0;" width="6" x="351.5" y="377.0234"/><text fill="#000000" font-family="sans-serif" font-size="11" lengthAdjust="spacing" textLength="24" x="363.5" y="383.2339">type</text><rect fill="none" height="6" style="stroke:#C82930;stroke-width:1.0;" width="6" x="351.5" y="389.8281"/><text fill="#000000" font-family="sans-serif" font-size="11" lengthAdjust="spacing" textLength="35" x="363.5" y="396.0386">length</text><rect fill="none" height="6" style="stroke:#C82930;stroke-width:1.0;" width="6" x="351.5" y="402.6328"/><text fill="#000000" font-family="sans-serif" font-size="11" lengthAdjust="spacing" textLength="30" x="363.5" y="408.8433">width</text><rect fill="none" height="6" style="stroke:#C82930;stroke-width:1.0;" width="6" x="351.5" y="415.4375"/><text fill="#000000" font-family="sans-serif" font-size="11" lengthAdjust="spacing" textLength="27" x="363.5" y="421.6479">draft</text><rect fill="none" height="6" style="stroke:#C82930;stroke-width:1.0;" width="6" x="351.5" y="428.2422"/><text fill="#000000" font-family="sans-serif" font-size="11" lengthAdjust="spacing" textLength="32" x="363.5" y="434.4526">cargo</text><ellipse cx="354.5" cy="444.0469" rx="3" ry="3" style="stroke:#038048;stroke-width:1.0;fill:none;"/><text fill="#000000" font-family="sans-serif" font-size="11" lengthAdjust="spacing" textLength="118" x="363.5" y="447.2573">initializeDynamicShip</text><ellipse cx="354.5" cy="456.8516" rx="3" ry="3" style="stroke:#038048;stroke-width:1.0;fill:none;"/><text fill="#000000" font-family="sans-serif" font-size="11" lengthAdjust="spacing" textLength="48" x="363.5" y="460.062">getMmsi</text><ellipse cx="354.5" cy="469.6563" rx="3" ry="3" style="stroke:#038048;stroke-width:1.0;fill:none;"/><text fill="#000000" font-family="sans-serif" font-size="11" lengthAdjust="spacing" textLength="39" x="363.5" y="472.8667">getImo</text><ellipse cx="354.5" cy="482.4609" rx="3" ry="3" style="stroke:#038048;stroke-width:1.0;fill:none;"/><text fill="#000000" font-family="sans-serif" font-size="11" lengthAdjust="spacing" textLength="91" x="363.5" y="485.6714">getDynamicShip</text><ellipse cx="354.5" cy="495.2656" rx="3" ry="3" style="stroke:#038048;stroke-width:1.0;fill:none;"/><text fill="#000000" font-family="sans-serif" font-size="11" lengthAdjust="spacing" textLength="64" x="363.5" y="498.4761">getCallSign</text><ellipse cx="354.5" cy="508.0703" rx="3" ry="3" style="stroke:#038048;stroke-width:1.0;fill:none;"/><text fill="#000000" font-family="sans-serif" font-size="11" lengthAdjust="spacing" textLength="51" x="363.5" y="511.2808">getName</text><ellipse cx="354.5" cy="520.875" rx="3" ry="3" style="stroke:#038048;stroke-width:1.0;fill:none;"/><text fill="#000000" font-family="sans-serif" font-size="11" lengthAdjust="spacing" textLength="45" x="363.5" y="524.0854">getType</text><ellipse cx="354.5" cy="533.6797" rx="3" ry="3" style="stroke:#038048;stroke-width:1.0;fill:none;"/><text fill="#000000" font-family="sans-serif" font-size="11" lengthAdjust="spacing" textLength="56" x="363.5" y="536.8901">getLength</text><ellipse cx="354.5" cy="546.4844" rx="3" ry="3" style="stroke:#038048;stroke-width:1.0;fill:none;"/><text fill="#000000" font-family="sans-serif" font-size="11" lengthAdjust="spacing" textLength="48" x="363.5" y="549.6948">getWidth</text><ellipse cx="354.5" cy="559.2891" rx="3" ry="3" style="stroke:#038048;stroke-width:1.0;fill:none;"/><text fill="#000000" font-family="sans-serif" font-size="11" lengthAdjust="spacing" textLength="46" x="363.5" y="562.4995">getDraft</text><ellipse cx="354.5" cy="572.0938" rx="3" ry="3" style="stroke:#038048;stroke-width:1.0;fill:none;"/><text fill="#000000" font-family="sans-serif" font-size="11" lengthAdjust="spacing" textLength="52" x="363.5" y="575.3042">getCargo</text><ellipse cx="354.5" cy="584.8984" rx="3" ry="3" style="stroke:#038048;stroke-width:1.0;fill:none;"/><text fill="#000000" font-family="sans-serif" font-size="11" lengthAdjust="spacing" textLength="94" x="363.5" y="588.1089">addDynamicShip</text><ellipse cx="354.5" cy="597.7031" rx="3" ry="3" style="stroke:#038048;stroke-width:1.0;fill:none;"/><text fill="#000000" font-family="sans-serif" font-size="11" lengthAdjust="spacing" textLength="69" x="363.5" y="600.9136">setShipData</text><line style="stroke:#A80036;stroke-width:1.5;" x1="344.5" x2="486.5" y1="607.5078" y2="607.5078"/><!--MD5=[95f401ea9d0c63da0b3e1cc781f0d3e9]
class ShipBST--><rect codeLine="30" fill="#FEFECE" filter="url(#f18lahhnfy80md)" height="73.6094" id="ShipBST" style="stroke:#A80036;stroke-width:1.5;" width="85" x="15" y="407.5"/><ellipse cx="31.35" cy="423.5" fill="#ADD1B2" rx="11" ry="11" style="stroke:#A80036;stroke-width:1.0;"/><path d="M34.3188,429.1406 Q33.7406,429.4375 33.1,429.5781 Q32.4594,429.7344 31.7563,429.7344 Q29.2563,429.7344 27.9281,428.0938 Q26.6156,426.4375 26.6156,423.3125 Q26.6156,420.1875 27.9281,418.5313 Q29.2563,416.875 31.7563,416.875 Q32.4594,416.875 33.1,417.0313 Q33.7563,417.1875 34.3188,417.4844 L34.3188,420.2031 Q33.6938,419.625 33.1,419.3594 Q32.5063,419.0781 31.8813,419.0781 Q30.5375,419.0781 29.85,420.1563 Q29.1625,421.2188 29.1625,423.3125 Q29.1625,425.4063 29.85,426.4844 Q30.5375,427.5469 31.8813,427.5469 Q32.5063,427.5469 33.1,427.2813 Q33.6938,427 34.3188,426.4219 L34.3188,429.1406 Z " fill="#000000"/><text fill="#000000" font-family="sans-serif" font-size="12" lengthAdjust="spacing" textLength="50" x="45.65" y="427.6543">ShipBST</text><line style="stroke:#A80036;stroke-width:1.5;" x1="16" x2="99" y1="439.5" y2="439.5"/><ellipse cx="26" cy="450.5" rx="3" ry="3" style="stroke:#038048;stroke-width:1.0;fill:none;"/><text fill="#000000" font-family="sans-serif" font-size="11" lengthAdjust="spacing" textLength="33" x="35" y="453.7104">insert</text><ellipse cx="26" cy="463.3047" rx="3" ry="3" style="stroke:#038048;stroke-width:1.0;fill:none;"/><text fill="#000000" font-family="sans-serif" font-size="11" lengthAdjust="spacing" textLength="59" x="35" y="466.5151">printTrees</text><line style="stroke:#A80036;stroke-width:1.5;" x1="16" x2="99" y1="473.1094" y2="473.1094"/><!--MD5=[60b59e3d7d8b95aff167b5157d975660]
class CSVReader--><rect codeLine="35" fill="#FEFECE" filter="url(#f18lahhnfy80md)" height="99.2188" id="CSVReader" style="stroke:#A80036;stroke-width:1.5;" width="101" x="7" y="52"/><ellipse cx="22" cy="68" fill="#ADD1B2" rx="11" ry="11" style="stroke:#A80036;stroke-width:1.0;"/><path d="M24.9688,73.6406 Q24.3906,73.9375 23.75,74.0781 Q23.1094,74.2344 22.4063,74.2344 Q19.9063,74.2344 18.5781,72.5938 Q17.2656,70.9375 17.2656,67.8125 Q17.2656,64.6875 18.5781,63.0313 Q19.9063,61.375 22.4063,61.375 Q23.1094,61.375 23.75,61.5313 Q24.4063,61.6875 24.9688,61.9844 L24.9688,64.7031 Q24.3438,64.125 23.75,63.8594 Q23.1563,63.5781 22.5313,63.5781 Q21.1875,63.5781 20.5,64.6563 Q19.8125,65.7188 19.8125,67.8125 Q19.8125,69.9063 20.5,70.9844 Q21.1875,72.0469 22.5313,72.0469 Q23.1563,72.0469 23.75,71.7813 Q24.3438,71.5 24.9688,70.9219 L24.9688,73.6406 Z " fill="#000000"/><text fill="#000000" font-family="sans-serif" font-size="12" lengthAdjust="spacing" textLength="69" x="36" y="72.1543">CSVReader</text><line style="stroke:#A80036;stroke-width:1.5;" x1="8" x2="107" y1="84" y2="84"/><ellipse cx="18" cy="95" rx="3" ry="3" style="stroke:#038048;stroke-width:1.0;fill:none;"/><text fill="#000000" font-family="sans-serif" font-size="11" lengthAdjust="spacing" textLength="49" x="27" y="98.2104">readCSV</text><ellipse cx="18" cy="107.8047" rx="3" ry="3" style="stroke:#038048;stroke-width:1.0;fill:none;"/><text fill="#000000" font-family="sans-serif" font-size="11" lengthAdjust="spacing" textLength="38" x="27" y="111.0151">cutImo</text><ellipse cx="18" cy="120.6094" rx="3" ry="3" style="stroke:#038048;stroke-width:1.0;fill:none;"/><text fill="#000000" font-family="sans-serif" font-size="11" lengthAdjust="spacing" textLength="47" x="27" y="123.8198">fixCargo</text><ellipse cx="18" cy="133.4141" rx="3" ry="3" style="stroke:#038048;stroke-width:1.0;fill:none;"/><text fill="#000000" font-family="sans-serif" font-size="11" lengthAdjust="spacing" textLength="52" x="27" y="136.6245">existShip</text><line style="stroke:#A80036;stroke-width:1.5;" x1="8" x2="107" y1="143.2188" y2="143.2188"/><!--MD5=[50e233f59fab4337023e7a3e9f6aae82]
class ShipImo--><rect codeLine="50" fill="#FEFECE" filter="url(#f18lahhnfy80md)" height="73.6094" id="ShipImo" style="stroke:#A80036;stroke-width:1.5;" width="153" x="143" y="64.5"/><ellipse cx="190.75" cy="80.5" fill="#ADD1B2" rx="11" ry="11" style="stroke:#A80036;stroke-width:1.0;"/><path d="M193.7188,86.1406 Q193.1406,86.4375 192.5,86.5781 Q191.8594,86.7344 191.1563,86.7344 Q188.6563,86.7344 187.3281,85.0938 Q186.0156,83.4375 186.0156,80.3125 Q186.0156,77.1875 187.3281,75.5313 Q188.6563,73.875 191.1563,73.875 Q191.8594,73.875 192.5,74.0313 Q193.1563,74.1875 193.7188,74.4844 L193.7188,77.2031 Q193.0938,76.625 192.5,76.3594 Q191.9063,76.0781 191.2813,76.0781 Q189.9375,76.0781 189.25,77.1563 Q188.5625,78.2188 188.5625,80.3125 Q188.5625,82.4063 189.25,83.4844 Q189.9375,84.5469 191.2813,84.5469 Q191.9063,84.5469 192.5,84.2813 Q193.0938,84 193.7188,83.4219 L193.7188,86.1406 Z " fill="#000000"/><text fill="#000000" font-family="sans-serif" font-size="12" lengthAdjust="spacing" textLength="49" x="211.25" y="84.6543">ShipImo</text><line style="stroke:#A80036;stroke-width:1.5;" x1="144" x2="295" y1="96.5" y2="96.5"/><line style="stroke:#A80036;stroke-width:1.5;" x1="144" x2="295" y1="104.5" y2="104.5"/><ellipse cx="154" cy="115.5" fill="#84BE84" rx="3" ry="3" style="stroke:#038048;stroke-width:1.0;"/><text fill="#000000" font-family="sans-serif" font-size="11" lengthAdjust="spacing" textLength="118" x="163" y="118.7104">compareTo(ShipImo)</text><ellipse cx="154" cy="128.3047" fill="#84BE84" rx="3" ry="3" style="stroke:#038048;stroke-width:1.0;"/><text fill="#000000" font-family="sans-serif" font-size="11" lengthAdjust="spacing" textLength="127" x="163" y="131.5151">compareTo(ShipMmsi)</text><!--MD5=[0b518a767dd1028241969b5a153606c0]
class ShipCallSign--><rect codeLine="46" fill="#FEFECE" filter="url(#f18lahhnfy80md)" height="60.8047" id="ShipCallSign" style="stroke:#A80036;stroke-width:1.5;" width="169" x="331" y="71"/><ellipse cx="373.45" cy="87" fill="#ADD1B2" rx="11" ry="11" style="stroke:#A80036;stroke-width:1.0;"/><path d="M376.4188,92.6406 Q375.8406,92.9375 375.2,93.0781 Q374.5594,93.2344 373.8563,93.2344 Q371.3563,93.2344 370.0281,91.5938 Q368.7156,89.9375 368.7156,86.8125 Q368.7156,83.6875 370.0281,82.0313 Q371.3563,80.375 373.8563,80.375 Q374.5594,80.375 375.2,80.5313 Q375.8563,80.6875 376.4188,80.9844 L376.4188,83.7031 Q375.7938,83.125 375.2,82.8594 Q374.6063,82.5781 373.9813,82.5781 Q372.6375,82.5781 371.95,83.6563 Q371.2625,84.7188 371.2625,86.8125 Q371.2625,88.9063 371.95,89.9844 Q372.6375,91.0469 373.9813,91.0469 Q374.6063,91.0469 375.2,90.7813 Q375.7938,90.5 376.4188,89.9219 L376.4188,92.6406 Z " fill="#000000"/><text fill="#000000" font-family="sans-serif" font-size="12" lengthAdjust="spacing" textLength="76" x="393.55" y="91.1543">ShipCallSign</text><line style="stroke:#A80036;stroke-width:1.5;" x1="332" x2="499" y1="103" y2="103"/><line style="stroke:#A80036;stroke-width:1.5;" x1="332" x2="499" y1="111" y2="111"/><ellipse cx="342" cy="122" fill="#84BE84" rx="3" ry="3" style="stroke:#038048;stroke-width:1.0;"/><text fill="#000000" font-family="sans-serif" font-size="11" lengthAdjust="spacing" textLength="143" x="351" y="125.2104">compareTo(ShipCallSign)</text><!--MD5=[2095ddb0514215aa695048ab4ab59d57]
class DynamicShip--><rect codeLine="54" fill="#FEFECE" filter="url(#f18lahhnfy80md)" height="188.8516" id="DynamicShip" style="stroke:#A80036;stroke-width:1.5;" width="127" x="535" y="7"/><ellipse cx="557.2" cy="23" fill="#ADD1B2" rx="11" ry="11" style="stroke:#A80036;stroke-width:1.0;"/><path d="M560.1688,28.6406 Q559.5906,28.9375 558.95,29.0781 Q558.3094,29.2344 557.6063,29.2344 Q555.1063,29.2344 553.7781,27.5938 Q552.4656,25.9375 552.4656,22.8125 Q552.4656,19.6875 553.7781,18.0313 Q555.1063,16.375 557.6063,16.375 Q558.3094,16.375 558.95,16.5313 Q559.6063,16.6875 560.1688,16.9844 L560.1688,19.7031 Q559.5438,19.125 558.95,18.8594 Q558.3563,18.5781 557.7313,18.5781 Q556.3875,18.5781 555.7,19.6563 Q555.0125,20.7188 555.0125,22.8125 Q555.0125,24.9063 555.7,25.9844 Q556.3875,27.0469 557.7313,27.0469 Q558.3563,27.0469 558.95,26.7813 Q559.5438,26.5 560.1688,25.9219 L560.1688,28.6406 Z " fill="#000000"/><text fill="#000000" font-family="sans-serif" font-size="12" lengthAdjust="spacing" textLength="79" x="572.8" y="27.1543">DynamicShip</text><line style="stroke:#A80036;stroke-width:1.5;" x1="536" x2="661" y1="39" y2="39"/><rect fill="none" height="6" style="stroke:#C82930;stroke-width:1.0;" width="6" x="543" y="47"/><text fill="#000000" font-family="sans-serif" font-size="11" lengthAdjust="spacing" textLength="25" x="555" y="53.2104">date</text><rect fill="none" height="6" style="stroke:#C82930;stroke-width:1.0;" width="6" x="543" y="59.8047"/><text fill="#000000" font-family="sans-serif" font-size="11" lengthAdjust="spacing" textLength="42" x="555" y="66.0151">latitude</text><rect fill="none" height="6" style="stroke:#C82930;stroke-width:1.0;" width="6" x="543" y="72.6094"/><text fill="#000000" font-family="sans-serif" font-size="11" lengthAdjust="spacing" textLength="52" x="555" y="78.8198">longitude</text><rect fill="none" height="6" style="stroke:#C82930;stroke-width:1.0;" width="6" x="543" y="85.4141"/><text fill="#000000" font-family="sans-serif" font-size="11" lengthAdjust="spacing" textLength="21" x="555" y="91.6245">sog</text><rect fill="none" height="6" style="stroke:#C82930;stroke-width:1.0;" width="6" x="543" y="98.2188"/><text fill="#000000" font-family="sans-serif" font-size="11" lengthAdjust="spacing" textLength="20" x="555" y="104.4292">cog</text><rect fill="none" height="6" style="stroke:#C82930;stroke-width:1.0;" width="6" x="543" y="111.0234"/><text fill="#000000" font-family="sans-serif" font-size="11" lengthAdjust="spacing" textLength="45" x="555" y="117.2339">heading</text><rect fill="none" height="6" style="stroke:#C82930;stroke-width:1.0;" width="6" x="543" y="123.8281"/><text fill="#000000" font-family="sans-serif" font-size="11" lengthAdjust="spacing" textLength="101" x="555" y="130.0386">transcrieverClass</text><ellipse cx="546" cy="139.6328" rx="3" ry="3" style="stroke:#038048;stroke-width:1.0;fill:none;"/><text fill="#000000" font-family="sans-serif" font-size="11" lengthAdjust="spacing" textLength="35" x="555" y="142.8433">getLat</text><ellipse cx="546" cy="152.4375" rx="3" ry="3" style="stroke:#038048;stroke-width:1.0;fill:none;"/><text fill="#000000" font-family="sans-serif" font-size="11" lengthAdjust="spacing" textLength="38" x="555" y="155.6479">getLon</text><ellipse cx="546" cy="165.2422" rx="3" ry="3" style="stroke:#038048;stroke-width:1.0;fill:none;"/><text fill="#000000" font-family="sans-serif" font-size="11" lengthAdjust="spacing" textLength="40" x="555" y="168.4526">getSog</text><ellipse cx="546" cy="178.0469" rx="3" ry="3" style="stroke:#038048;stroke-width:1.0;fill:none;"/><text fill="#000000" font-family="sans-serif" font-size="11" lengthAdjust="spacing" textLength="40" x="555" y="181.2573">getCog</text><line style="stroke:#A80036;stroke-width:1.5;" x1="536" x2="661" y1="187.8516" y2="187.8516"/><!--MD5=[5dacd712d020480885519bfd15090734]
class ShipMmsi--><rect fill="#FEFECE" filter="url(#f18lahhnfy80md)" height="48" id="ShipMmsi" style="stroke:#A80036;stroke-width:1.5;" width="90" x="697.5" y="77.5"/><ellipse cx="712.5" cy="93.5" fill="#ADD1B2" rx="11" ry="11" style="stroke:#A80036;stroke-width:1.0;"/><path d="M715.4688,99.1406 Q714.8906,99.4375 714.25,99.5781 Q713.6094,99.7344 712.9063,99.7344 Q710.4063,99.7344 709.0781,98.0938 Q707.7656,96.4375 707.7656,93.3125 Q707.7656,90.1875 709.0781,88.5313 Q710.4063,86.875 712.9063,86.875 Q713.6094,86.875 714.25,87.0313 Q714.9063,87.1875 715.4688,87.4844 L715.4688,90.2031 Q714.8438,89.625 714.25,89.3594 Q713.6563,89.0781 713.0313,89.0781 Q711.6875,89.0781 711,90.1563 Q710.3125,91.2188 710.3125,93.3125 Q710.3125,95.4063 711,96.4844 Q711.6875,97.5469 713.0313,97.5469 Q713.6563,97.5469 714.25,97.2813 Q714.8438,97 715.4688,96.4219 L715.4688,99.1406 Z " fill="#000000"/><text fill="#000000" font-family="sans-serif" font-size="12" lengthAdjust="spacing" textLength="58" x="726.5" y="97.6543">ShipMmsi</text><line style="stroke:#A80036;stroke-width:1.5;" x1="698.5" x2="786.5" y1="109.5" y2="109.5"/><line style="stroke:#A80036;stroke-width:1.5;" x1="698.5" x2="786.5" y1="117.5" y2="117.5"/><!--MD5=[f0bc9d973ad72e4c57eb2704050f0591]
link CSVReader to Ship--><path codeLine="69" d="M89.9769,151.2979 C100.5995,166.2498 112.9199,182.306 125.5,196 C191.7766,268.145 278.154,339.792 339.3506,387.4823 " fill="none" id="CSVReader-to-Ship" style="stroke:#A80036;stroke-width:1.0;stroke-dasharray:7.0,7.0;"/><polygon fill="#A80036" points="343.3446,390.5887,338.6961,381.9059,339.3978,387.519,333.7846,388.2207,343.3446,390.5887" style="stroke:#A80036;stroke-width:1.0;"/><text fill="#000000" font-family="sans-serif" font-size="13" lengthAdjust="spacing" textLength="48" x="170.5" y="239.0669">creates</text><text fill="#000000" font-family="sans-serif" font-size="13" lengthAdjust="spacing" textLength="8" x="85.9815" y="171.4163">1</text><text fill="#000000" font-family="sans-serif" font-size="13" lengthAdjust="spacing" textLength="7" x="328.5426" y="381.3548">*</text><!--MD5=[1de50e09b6762e9638f5e4b0b12aeb4d]
link CSVReader to ShipBST--><path codeLine="70" d="M56.0289,151.1731 C55.4243,173.9696 54.7969,201.354 54.5,226 C53.7623,287.2411 55.148,358.1352 56.2724,402.1535 " fill="none" id="CSVReader-to-ShipBST" style="stroke:#A80036;stroke-width:1.0;stroke-dasharray:7.0,7.0;"/><polygon fill="#A80036" points="56.4081,407.3859,60.1733,398.2852,56.2784,402.3876,52.176,398.4927,56.4081,407.3859" style="stroke:#A80036;stroke-width:1.0;"/><text fill="#000000" font-family="sans-serif" font-size="13" lengthAdjust="spacing" textLength="48" x="55.5" y="239.0669">creates</text><text fill="#000000" font-family="sans-serif" font-size="13" lengthAdjust="spacing" textLength="8" x="47.2595" y="171.2739">1</text><text fill="#000000" font-family="sans-serif" font-size="13" lengthAdjust="spacing" textLength="7" x="48.5902" y="396.5525">*</text><!--MD5=[4786085e2e11f0d74968d24f1586a6ed]
link ShipImo to Ship--><path codeLine="71" d="M240.6617,138.5329 C264.5867,180.4018 304.8858,250.9251 340.7678,313.7187 " fill="none" id="ShipImo-to-Ship" style="stroke:#A80036;stroke-width:1.0;"/><polygon fill="#A80036" points="343.3434,318.226,342.351,308.4273,340.8627,313.8848,335.4051,312.3965,343.3434,318.226" style="stroke:#A80036;stroke-width:1.0;"/><!--MD5=[e2eba2c5bdf2433bea7ce9b015bf4a17]
link ShipCallSign to Ship--><path codeLine="72" d="M415.5,132.2408 C415.5,163.7811 415.5,215.515 415.5,267.8854 " fill="none" id="ShipCallSign-to-Ship" style="stroke:#A80036;stroke-width:1.0;"/><polygon fill="#A80036" points="415.5,272.9549,419.5,263.9549,415.5,267.9549,411.5,263.9549,415.5,272.9549" style="stroke:#A80036;stroke-width:1.0;"/><!--MD5=[335d766dfb677354100cb378670019c7]
link ShipMmsi to Ship--><path codeLine="73" d="M728.3823,125.8668 C716.453,145.6118 698.3404,173.7143 679.5,196 C621.7588,264.3005 546.7849,333.337 491.4961,381.2513 " fill="none" id="ShipMmsi-to-Ship" style="stroke:#A80036;stroke-width:1.0;"/><polygon fill="#A80036" points="487.5498,384.6643,496.9737,381.8025,491.3317,381.3936,491.7406,375.7515,487.5498,384.6643" style="stroke:#A80036;stroke-width:1.0;"/><!--MD5=[ff7460063a1daf88c7563882140f532f]
link DynamicShip to Ship--><path codeLine="74" d="M548.01,196.1342 C530.0666,229.7658 509.4703,268.3698 489.9477,304.9614 " fill="none" id="DynamicShip-to-Ship" style="stroke:#A80036;stroke-width:1.0;stroke-dasharray:7.0,7.0;"/><polygon fill="#A80036" points="487.5725,309.4133,495.3382,303.3558,489.9262,305.0019,488.28,299.5899,487.5725,309.4133" style="stroke:#A80036;stroke-width:1.0;"/><text fill="#000000" font-family="sans-serif" font-size="13" lengthAdjust="spacing" textLength="23" x="530.5" y="239.0669">has</text><text fill="#000000" font-family="sans-serif" font-size="13" lengthAdjust="spacing" textLength="8" x="535.8381" y="216.0315">1</text><text fill="#000000" font-family="sans-serif" font-size="13" lengthAdjust="spacing" textLength="8" x="495.4175" y="291.8082">1</text><!--MD5=[9d0692b1b2a3622eb7dbe9460c4ba168]
@startuml
skinparam classAtributionIconSize 0


class Ship {
    -mmsi
    -dynamicShip
    -name
    -imo
    -callSign
    -type
    -length
    -width
    -draft
    -cargo
    +initializeDynamicShip
    +getMmsi
    +getImo
    +getDynamicShip
    +getCallSign
    +getName
    +getType
    +getLength
    +getWidth
    +getDraft
    +getCargo
    +addDynamicShip
    +setShipData
  }

class ShipBST {
    +insert
    +printTrees
}

class CSVReader {
    +readCSV
    +cutImo
    +fixCargo
    +existShip
}

class ShipImo {
    +compareTo(ShipImo)
}

class ShipCallSign {
    +compareTo(ShipCallSign)
}

class ShipImo {
    +compareTo(ShipMmsi)
}

class DynamicShip {
    -date
    -latitude
    -longitude
    -sog
    -cog
    -heading
    -transcrieverClass
    +getLat
    +getLon
    +getSog
    +getCog
}


CSVReader "1" ..> "*" Ship  : creates
CSVReader "1" ..> "*" ShipBST  : creates
ShipImo  - ->  Ship
ShipCallSign - -> Ship
ShipMmsi - -> Ship
DynamicShip "1" ..> "1" Ship: has
@enduml

PlantUML version 1.2021.7(Sun May 23 12:40:07 UTC 2021)
(GPL source distribution)
Java Runtime: OpenJDK Runtime Environment
JVM: OpenJDK 64-Bit Server VM
Default Encoding: UTF-8
Language: en
Country: US
--></g></svg>