<?xml version="1.0" encoding="UTF-8" standalone="no"?><svg xmlns="http://www.w3.org/2000/svg" xmlns:xlink="http://www.w3.org/1999/xlink" contentScriptType="application/ecmascript" contentStyleType="text/css" height="661px" preserveAspectRatio="none" style="width:1378px;height:661px;background:#FFFFFF;" version="1.1" viewBox="0 0 1378 661" width="1378px" zoomAndPan="magnify"><defs><filter height="300%" id="fq8bts6llaqvm" width="300%" x="-1" y="-1"><feGaussianBlur result="blurOut" stdDeviation="2.0"/><feColorMatrix in="blurOut" result="blurOut2" type="matrix" values="0 0 0 0 0 0 0 0 0 0 0 0 0 0 0 0 0 0 .4 0"/><feOffset dx="4.0" dy="4.0" in="blurOut2" result="blurOut3"/><feBlend in="SourceGraphic" in2="blurOut3" mode="normal"/></filter></defs><g><rect fill="#FFFFFF" filter="url(#fq8bts6llaqvm)" height="460.9688" style="stroke:#A80036;stroke-width:1.0;" width="10" x="57" y="98.4883"/><rect fill="#FFFFFF" filter="url(#fq8bts6llaqvm)" height="439.6582" style="stroke:#A80036;stroke-width:1.0;" width="10" x="245" y="119.7988"/><rect fill="#FFFFFF" filter="url(#fq8bts6llaqvm)" height="58.6211" style="stroke:#A80036;stroke-width:1.0;" width="10" x="347" y="207.7305"/><rect fill="#FFFFFF" filter="url(#fq8bts6llaqvm)" height="29.3105" style="stroke:#A80036;stroke-width:1.0;" width="10" x="347" y="354.2832"/><rect fill="#FFFFFF" filter="url(#fq8bts6llaqvm)" height="331.416" style="stroke:#A80036;stroke-width:1.0;" width="10" x="538" y="237.041"/><rect fill="#FFFFFF" filter="url(#fq8bts6llaqvm)" height="29.3105" style="stroke:#A80036;stroke-width:1.0;" width="10" x="916" y="295.6621"/><rect fill="#FFFFFF" filter="url(#fq8bts6llaqvm)" height="117.2422" style="stroke:#A80036;stroke-width:1.0;" width="10" x="1019.5" y="412.9043"/><line style="stroke:#A80036;stroke-width:1.0;stroke-dasharray:5.0,5.0;" x1="62" x2="62" y1="88.4883" y2="577.457"/><line style="stroke:#A80036;stroke-width:1.0;stroke-dasharray:5.0,5.0;" x1="249.5" x2="249.5" y1="88.4883" y2="577.457"/><line style="stroke:#A80036;stroke-width:1.0;stroke-dasharray:5.0,5.0;" x1="351.5" x2="351.5" y1="88.4883" y2="577.457"/><line style="stroke:#A80036;stroke-width:1.0;stroke-dasharray:5.0,5.0;" x1="543" x2="543" y1="88.4883" y2="577.457"/><line style="stroke:#A80036;stroke-width:1.0;stroke-dasharray:5.0,5.0;" x1="921" x2="921" y1="88.4883" y2="577.457"/><line style="stroke:#A80036;stroke-width:1.0;stroke-dasharray:5.0,5.0;" x1="1024" x2="1024" y1="88.4883" y2="577.457"/><line style="stroke:#A80036;stroke-width:1.0;stroke-dasharray:5.0,5.0;" x1="1112" x2="1112" y1="88.4883" y2="577.457"/><line style="stroke:#A80036;stroke-width:1.0;stroke-dasharray:5.0,5.0;" x1="1206" x2="1206" y1="88.4883" y2="577.457"/><line style="stroke:#A80036;stroke-width:1.0;stroke-dasharray:5.0,5.0;" x1="1314" x2="1314" y1="88.4883" y2="577.457"/><text fill="#000000" font-family="sans-serif" font-size="14" lengthAdjust="spacing" textLength="108" x="5" y="85.5352">Traffic Manager</text><ellipse cx="62" cy="15" fill="#FEFECE" filter="url(#fq8bts6llaqvm)" rx="8" ry="8" style="stroke:#A80036;stroke-width:2.0;"/><path d="M62,23 L62,50 M49,31 L75,31 M62,50 L49,65 M62,50 L75,65 " fill="none" filter="url(#fq8bts6llaqvm)" style="stroke:#A80036;stroke-width:2.0;"/><text fill="#000000" font-family="sans-serif" font-size="14" lengthAdjust="spacing" textLength="108" x="5" y="589.9922">Traffic Manager</text><ellipse cx="62" cy="602.9453" fill="#FEFECE" filter="url(#fq8bts6llaqvm)" rx="8" ry="8" style="stroke:#A80036;stroke-width:2.0;"/><path d="M62,610.9453 L62,637.9453 M49,618.9453 L75,618.9453 M62,637.9453 L49,652.9453 M62,637.9453 L75,652.9453 " fill="none" filter="url(#fq8bts6llaqvm)" style="stroke:#A80036;stroke-width:2.0;"/><rect fill="#FEFECE" filter="url(#fq8bts6llaqvm)" height="30.4883" style="stroke:#A80036;stroke-width:1.5;" width="83" x="206.5" y="53"/><text fill="#000000" font-family="sans-serif" font-size="14" lengthAdjust="spacing" textLength="69" x="213.5" y="73.5352">:Company</text><rect fill="#FEFECE" filter="url(#fq8bts6llaqvm)" height="30.4883" style="stroke:#A80036;stroke-width:1.5;" width="83" x="206.5" y="576.457"/><text fill="#000000" font-family="sans-serif" font-size="14" lengthAdjust="spacing" textLength="69" x="213.5" y="596.9922">:Company</text><rect fill="#FEFECE" filter="url(#fq8bts6llaqvm)" height="30.4883" style="stroke:#A80036;stroke-width:1.5;" width="93" x="303.5" y="53"/><text fill="#000000" font-family="sans-serif" font-size="14" lengthAdjust="spacing" textLength="79" x="310.5" y="73.5352">:CSVReader</text><rect fill="#FEFECE" filter="url(#fq8bts6llaqvm)" height="30.4883" style="stroke:#A80036;stroke-width:1.5;" width="93" x="303.5" y="576.457"/><text fill="#000000" font-family="sans-serif" font-size="14" lengthAdjust="spacing" textLength="79" x="310.5" y="596.9922">:CSVReader</text><rect fill="#FEFECE" filter="url(#fq8bts6llaqvm)" height="30.4883" style="stroke:#A80036;stroke-width:1.5;" width="48" x="517" y="53"/><text fill="#000000" font-family="sans-serif" font-size="14" lengthAdjust="spacing" textLength="34" x="524" y="73.5352">:Ship</text><rect fill="#FEFECE" filter="url(#fq8bts6llaqvm)" height="30.4883" style="stroke:#A80036;stroke-width:1.5;" width="48" x="517" y="576.457"/><text fill="#000000" font-family="sans-serif" font-size="14" lengthAdjust="spacing" textLength="34" x="524" y="596.9922">:Ship</text><rect fill="#FEFECE" filter="url(#fq8bts6llaqvm)" height="30.4883" style="stroke:#A80036;stroke-width:1.5;" width="106" x="866" y="53"/><text fill="#000000" font-family="sans-serif" font-size="14" lengthAdjust="spacing" textLength="92" x="873" y="73.5352">:DynamicShip</text><rect fill="#FEFECE" filter="url(#fq8bts6llaqvm)" height="30.4883" style="stroke:#A80036;stroke-width:1.5;" width="106" x="866" y="576.457"/><text fill="#000000" font-family="sans-serif" font-size="14" lengthAdjust="spacing" textLength="92" x="873" y="596.9922">:DynamicShip</text><rect fill="#FEFECE" filter="url(#fq8bts6llaqvm)" height="30.4883" style="stroke:#A80036;stroke-width:1.5;" width="73" x="986" y="53"/><text fill="#000000" font-family="sans-serif" font-size="14" lengthAdjust="spacing" textLength="59" x="993" y="73.5352">:ShipBST</text><rect fill="#FEFECE" filter="url(#fq8bts6llaqvm)" height="30.4883" style="stroke:#A80036;stroke-width:1.5;" width="73" x="986" y="576.457"/><text fill="#000000" font-family="sans-serif" font-size="14" lengthAdjust="spacing" textLength="59" x="993" y="596.9922">:ShipBST</text><rect fill="#FEFECE" filter="url(#fq8bts6llaqvm)" height="30.4883" style="stroke:#A80036;stroke-width:1.5;" width="75" x="1073" y="53"/><text fill="#000000" font-family="sans-serif" font-size="14" lengthAdjust="spacing" textLength="61" x="1080" y="73.5352">:ShipIMO</text><rect fill="#FEFECE" filter="url(#fq8bts6llaqvm)" height="30.4883" style="stroke:#A80036;stroke-width:1.5;" width="75" x="1073" y="576.457"/><text fill="#000000" font-family="sans-serif" font-size="14" lengthAdjust="spacing" textLength="61" x="1080" y="596.9922">:ShipIMO</text><rect fill="#FEFECE" filter="url(#fq8bts6llaqvm)" height="30.4883" style="stroke:#A80036;stroke-width:1.5;" width="84" x="1162" y="53"/><text fill="#000000" font-family="sans-serif" font-size="14" lengthAdjust="spacing" textLength="70" x="1169" y="73.5352">:ShipMmsi</text><rect fill="#FEFECE" filter="url(#fq8bts6llaqvm)" height="30.4883" style="stroke:#A80036;stroke-width:1.5;" width="84" x="1162" y="576.457"/><text fill="#000000" font-family="sans-serif" font-size="14" lengthAdjust="spacing" textLength="70" x="1169" y="596.9922">:ShipMmsi</text><rect fill="#FEFECE" filter="url(#fq8bts6llaqvm)" height="30.4883" style="stroke:#A80036;stroke-width:1.5;" width="104" x="1260" y="53"/><text fill="#000000" font-family="sans-serif" font-size="14" lengthAdjust="spacing" textLength="90" x="1267" y="73.5352">:ShipCallSign</text><rect fill="#FEFECE" filter="url(#fq8bts6llaqvm)" height="30.4883" style="stroke:#A80036;stroke-width:1.5;" width="104" x="1260" y="576.457"/><text fill="#000000" font-family="sans-serif" font-size="14" lengthAdjust="spacing" textLength="90" x="1267" y="596.9922">:ShipCallSign</text><rect fill="#FFFFFF" filter="url(#fq8bts6llaqvm)" height="460.9688" style="stroke:#A80036;stroke-width:1.0;" width="10" x="57" y="98.4883"/><rect fill="#FFFFFF" filter="url(#fq8bts6llaqvm)" height="439.6582" style="stroke:#A80036;stroke-width:1.0;" width="10" x="245" y="119.7988"/><rect fill="#FFFFFF" filter="url(#fq8bts6llaqvm)" height="58.6211" style="stroke:#A80036;stroke-width:1.0;" width="10" x="347" y="207.7305"/><rect fill="#FFFFFF" filter="url(#fq8bts6llaqvm)" height="29.3105" style="stroke:#A80036;stroke-width:1.0;" width="10" x="347" y="354.2832"/><rect fill="#FFFFFF" filter="url(#fq8bts6llaqvm)" height="331.416" style="stroke:#A80036;stroke-width:1.0;" width="10" x="538" y="237.041"/><rect fill="#FFFFFF" filter="url(#fq8bts6llaqvm)" height="29.3105" style="stroke:#A80036;stroke-width:1.0;" width="10" x="916" y="295.6621"/><rect fill="#FFFFFF" filter="url(#fq8bts6llaqvm)" height="117.2422" style="stroke:#A80036;stroke-width:1.0;" width="10" x="1019.5" y="412.9043"/><polygon fill="#A80036" points="233,115.7988,243,119.7988,233,123.7988,237,119.7988" style="stroke:#A80036;stroke-width:1.0;"/><line style="stroke:#A80036;stroke-width:1.0;" x1="67" x2="239" y1="119.7988" y2="119.7988"/><text fill="#000000" font-family="sans-serif" font-size="13" font-weight="bold" lengthAdjust="spacing" textLength="9" x="74" y="115.0566">1</text><text fill="#000000" font-family="sans-serif" font-size="13" lengthAdjust="spacing" textLength="146" x="87" y="115.0566">Start to register the file</text><polygon fill="#A80036" points="78,145.1094,68,149.1094,78,153.1094,74,149.1094" style="stroke:#A80036;stroke-width:1.0;"/><line style="stroke:#A80036;stroke-width:1.0;stroke-dasharray:2.0,2.0;" x1="72" x2="244" y1="149.1094" y2="149.1094"/><text fill="#000000" font-family="sans-serif" font-size="13" font-weight="bold" lengthAdjust="spacing" textLength="9" x="84" y="144.3672">2</text><text fill="#000000" font-family="sans-serif" font-size="13" lengthAdjust="spacing" textLength="109" x="97" y="144.3672">Asks for the path</text><polygon fill="#A80036" points="233,174.4199,243,178.4199,233,182.4199,237,178.4199" style="stroke:#A80036;stroke-width:1.0;"/><line style="stroke:#A80036;stroke-width:1.0;" x1="67" x2="239" y1="178.4199" y2="178.4199"/><text fill="#000000" font-family="sans-serif" font-size="13" font-weight="bold" lengthAdjust="spacing" textLength="9" x="74" y="173.6777">3</text><text fill="#000000" font-family="sans-serif" font-size="13" lengthAdjust="spacing" textLength="99" x="87" y="173.6777">Inserts the path</text><polygon fill="#A80036" points="335,203.7305,345,207.7305,335,211.7305,339,207.7305" style="stroke:#A80036;stroke-width:1.0;"/><line style="stroke:#A80036;stroke-width:1.0;" x1="255" x2="341" y1="207.7305" y2="207.7305"/><text fill="#000000" font-family="sans-serif" font-size="13" font-weight="bold" lengthAdjust="spacing" textLength="9" x="262" y="202.9883">4</text><text fill="#000000" font-family="sans-serif" font-size="13" lengthAdjust="spacing" textLength="59" x="275" y="202.9883">readCSV()</text><polygon fill="#A80036" points="526,233.041,536,237.041,526,241.041,530,237.041" style="stroke:#A80036;stroke-width:1.0;"/><line style="stroke:#A80036;stroke-width:1.0;" x1="357" x2="532" y1="237.041" y2="237.041"/><text fill="#000000" font-family="sans-serif" font-size="13" font-weight="bold" lengthAdjust="spacing" textLength="9" x="364" y="232.2988">5</text><text fill="#000000" font-family="sans-serif" font-size="13" lengthAdjust="spacing" textLength="72" x="377" y="232.2988">newShip(...)</text><polygon fill="#A80036" points="526,262.3516,536,266.3516,526,270.3516,530,266.3516" style="stroke:#A80036;stroke-width:1.0;"/><line style="stroke:#A80036;stroke-width:1.0;" x1="352" x2="532" y1="266.3516" y2="266.3516"/><text fill="#000000" font-family="sans-serif" font-size="13" font-weight="bold" lengthAdjust="spacing" textLength="9" x="359" y="261.6094">6</text><text fill="#000000" font-family="sans-serif" font-size="13" lengthAdjust="spacing" textLength="144" x="372" y="261.6094">initializeDynamicShip()</text><polygon fill="#A80036" points="904,291.6621,914,295.6621,904,299.6621,908,295.6621" style="stroke:#A80036;stroke-width:1.0;"/><line style="stroke:#A80036;stroke-width:1.0;" x1="548" x2="910" y1="295.6621" y2="295.6621"/><text fill="#000000" font-family="sans-serif" font-size="13" font-weight="bold" lengthAdjust="spacing" textLength="9" x="555" y="290.9199">7</text><text fill="#000000" font-family="sans-serif" font-size="13" lengthAdjust="spacing" textLength="144" x="568" y="290.9199">initializeDynamicShip()</text><polygon fill="#A80036" points="909,320.9727,919,324.9727,909,328.9727,913,324.9727" style="stroke:#A80036;stroke-width:1.0;"/><line style="stroke:#A80036;stroke-width:1.0;" x1="548" x2="915" y1="324.9727" y2="324.9727"/><text fill="#000000" font-family="sans-serif" font-size="13" font-weight="bold" lengthAdjust="spacing" textLength="9" x="555" y="320.2305">8</text><text fill="#000000" font-family="sans-serif" font-size="13" lengthAdjust="spacing" textLength="331" x="568" y="320.2305">get(data,lat,long,sog,cog,heading, transcrieverClass)</text><polygon fill="#A80036" points="368,350.2832,358,354.2832,368,358.2832,364,354.2832" style="stroke:#A80036;stroke-width:1.0;"/><line style="stroke:#A80036;stroke-width:1.0;" x1="362" x2="537" y1="354.2832" y2="354.2832"/><text fill="#000000" font-family="sans-serif" font-size="13" font-weight="bold" lengthAdjust="spacing" textLength="9" x="374" y="349.541">9</text><text fill="#000000" font-family="sans-serif" font-size="13" lengthAdjust="spacing" textLength="113" x="387" y="349.541">addDynamicShip()</text><polygon fill="#A80036" points="363,379.5938,353,383.5938,363,387.5938,359,383.5938" style="stroke:#A80036;stroke-width:1.0;"/><line style="stroke:#A80036;stroke-width:1.0;" x1="357" x2="537" y1="383.5938" y2="383.5938"/><text fill="#000000" font-family="sans-serif" font-size="13" font-weight="bold" lengthAdjust="spacing" textLength="18" x="369" y="378.8516">10</text><text fill="#000000" font-family="sans-serif" font-size="13" lengthAdjust="spacing" textLength="50" x="391" y="378.8516">addShip</text><polygon fill="#A80036" points="1007.5,408.9043,1017.5,412.9043,1007.5,416.9043,1011.5,412.9043" style="stroke:#A80036;stroke-width:1.0;"/><line style="stroke:#A80036;stroke-width:1.0;" x1="255" x2="1013.5" y1="412.9043" y2="412.9043"/><text fill="#000000" font-family="sans-serif" font-size="13" font-weight="bold" lengthAdjust="spacing" textLength="18" x="262" y="408.1621">11</text><text fill="#000000" font-family="sans-serif" font-size="13" lengthAdjust="spacing" textLength="85" x="284" y="408.1621">shipMmsiAVL</text><polygon fill="#A80036" points="1007.5,438.2148,1017.5,442.2148,1007.5,446.2148,1011.5,442.2148" style="stroke:#A80036;stroke-width:1.0;"/><line style="stroke:#A80036;stroke-width:1.0;" x1="255" x2="1013.5" y1="442.2148" y2="442.2148"/><text fill="#000000" font-family="sans-serif" font-size="13" font-weight="bold" lengthAdjust="spacing" textLength="18" x="262" y="437.4727">12</text><text fill="#000000" font-family="sans-serif" font-size="13" lengthAdjust="spacing" textLength="75" x="284" y="437.4727">shipImoAVL</text><polygon fill="#A80036" points="1007.5,467.5254,1017.5,471.5254,1007.5,475.5254,1011.5,471.5254" style="stroke:#A80036;stroke-width:1.0;"/><line style="stroke:#A80036;stroke-width:1.0;" x1="255" x2="1013.5" y1="471.5254" y2="471.5254"/><text fill="#000000" font-family="sans-serif" font-size="13" font-weight="bold" lengthAdjust="spacing" textLength="18" x="262" y="466.7832">13</text><text fill="#000000" font-family="sans-serif" font-size="13" lengthAdjust="spacing" textLength="102" x="284" y="466.7832">shipCallSignAVL</text><polygon fill="#A80036" points="1007.5,496.8359,1017.5,500.8359,1007.5,504.8359,1011.5,500.8359" style="stroke:#A80036;stroke-width:1.0;"/><line style="stroke:#A80036;stroke-width:1.0;" x1="255" x2="1013.5" y1="500.8359" y2="500.8359"/><text fill="#000000" font-family="sans-serif" font-size="13" font-weight="bold" lengthAdjust="spacing" textLength="18" x="262" y="496.0938">14</text><text fill="#000000" font-family="sans-serif" font-size="13" lengthAdjust="spacing" textLength="44" x="284" y="496.0938">insert()</text><polygon fill="#A80036" points="266,526.1465,256,530.1465,266,534.1465,262,530.1465" style="stroke:#A80036;stroke-width:1.0;"/><line style="stroke:#A80036;stroke-width:1.0;" x1="260" x2="1023.5" y1="530.1465" y2="530.1465"/><text fill="#000000" font-family="sans-serif" font-size="13" font-weight="bold" lengthAdjust="spacing" textLength="18" x="272" y="525.4043">15</text><text fill="#000000" font-family="sans-serif" font-size="13" lengthAdjust="spacing" textLength="72" x="294" y="525.4043">printTrees()</text><polygon fill="#A80036" points="73,555.457,63,559.457,73,563.457,69,559.457" style="stroke:#A80036;stroke-width:1.0;"/><line style="stroke:#A80036;stroke-width:1.0;" x1="67" x2="249" y1="559.457" y2="559.457"/><text fill="#000000" font-family="sans-serif" font-size="13" font-weight="bold" lengthAdjust="spacing" textLength="18" x="79" y="554.7148">16</text><text fill="#000000" font-family="sans-serif" font-size="13" lengthAdjust="spacing" textLength="75" x="101" y="554.7148">showTrees()</text><!--MD5=[efc069ddcc80a025b80cd858a6e0703b]
@startuml
autonumber

actor "Traffic Manager" as traf


participant ":Company" as com
participant ":CSVReader" as csv
participant ":Ship" as ship
participant ":DynamicShip" as ds
participant ":ShipBST" as bst
participant ":ShipIMO" as imo
participant ":ShipMmsi" as mmsi
participant ":ShipCallSign" as callSign



activate traf


traf -> com : Start to register the file
activate com
com - -> traf : Asks for the path
traf -> com : Inserts the path

com -> csv : readCSV()

activate csv


csv -> ship : newShip(...)
activate ship
csv -> ship : initializeDynamicShip()

deactivate csv
ship -> ds : initializeDynamicShip()

activate ds

ship -> ds: get(data,lat,long,sog,cog,heading, transcrieverClass)

deactivate ds

ship -> csv : addDynamicShip()
activate csv
ship -> csv : addShip

deactivate csv


com -> bst: shipMmsiAVL
activate bst
com -> bst: shipImoAVL
com -> bst: shipCallSignAVL
com -> bst: insert()

bst -> com : printTrees()

deactivate bst

com -> traf : showTrees()
deactivate com
deactivate traf

@enduml

PlantUML version 1.2021.11(Sat Oct 02 14:26:11 WEST 2021)
(GPL source distribution)
Java Runtime: OpenJDK Runtime Environment
JVM: OpenJDK 64-Bit Server VM
Default Encoding: UTF-8
Language: en
Country: PT
--></g></svg>