<?xml version="1.0" encoding="UTF-8" standalone="no"?><svg xmlns="http://www.w3.org/2000/svg" xmlns:xlink="http://www.w3.org/1999/xlink" contentScriptType="application/ecmascript" contentStyleType="text/css" height="453px" preserveAspectRatio="none" style="width:601px;height:453px;background:#FFFFFF;" version="1.1" viewBox="0 0 601 453" width="601px" zoomAndPan="magnify"><defs><filter height="300%" id="f196x17f7mw6dp" width="300%" x="-1" y="-1"><feGaussianBlur result="blurOut" stdDeviation="2.0"/><feColorMatrix in="blurOut" result="blurOut2" type="matrix" values="0 0 0 0 0 0 0 0 0 0 0 0 0 0 0 0 0 0 .4 0"/><feOffset dx="4.0" dy="4.0" in="blurOut2" result="blurOut3"/><feBlend in="SourceGraphic" in2="blurOut3" mode="normal"/></filter></defs><g><!--MD5=[ea2206eefe09474e90beb17e18e6b3d8]
class ShipStore--><rect codeLine="3" fill="#FEFECE" filter="url(#f196x17f7mw6dp)" height="61.8359" id="ShipStore" style="stroke:#A80036;stroke-width:1.5;" width="136" x="7" y="41.5"/><ellipse cx="44.5" cy="57.5" fill="#ADD1B2" rx="11" ry="11" style="stroke:#A80036;stroke-width:1.0;"/><path d="M46.5,54 Q46.7031,53.5 46.9375,53.25 Q47.1719,53 47.4375,53 Q47.9063,53 48.2031,53.2813 Q48.5,53.5625 48.5,54.2188 L48.5,55.7813 Q48.5,56.4375 48.2188,56.7188 Q47.9375,57 47.5,57 Q47.1094,57 46.8594,56.8281 Q46.6094,56.6563 46.5,56.2031 Q46.4531,55.8906 46.2813,55.7188 Q45.9688,55.3906 45.4063,55.2031 Q44.8438,55 44.2813,55 Q43.5781,55 42.9844,55.2813 Q42.4063,55.5625 41.9531,56.1875 Q41.5,56.8125 41.5,57.6719 L41.5,58.5938 Q41.5,59.625 42.3438,60.3125 Q43.1875,61 44.6875,61 Q45.5781,61 46.2031,60.7969 Q46.5625,60.6875 46.9688,60.3281 Q47.2344,60.125 47.375,60.0625 Q47.5156,60 47.6875,60 Q48.0156,60 48.25,60.2656 Q48.5,60.5156 48.5,60.875 Q48.5,61.2188 48.1563,61.625 Q47.6563,62.2188 46.8594,62.5469 Q45.8125,63 44.5313,63 Q43.0313,63 41.8281,62.4063 Q40.8594,61.9375 40.1719,60.9219 Q39.5,59.9063 39.5,58.7031 L39.5,57.6094 Q39.5,56.3594 40.0938,55.2656 Q40.7031,54.1719 41.75,53.5938 Q42.8125,53 44,53 Q44.7188,53 45.3438,53.25 Q45.9688,53.5 46.5,54 Z " fill="#000000"/><text fill="#000000" font-family="sans-serif" font-size="12" lengthAdjust="spacing" textLength="54" x="63.5" y="62.4102">ShipStore</text><line style="stroke:#A80036;stroke-width:1.5;" x1="8" x2="142" y1="73.5" y2="73.5"/><line style="stroke:#A80036;stroke-width:1.5;" x1="8" x2="142" y1="81.5" y2="81.5"/><ellipse cx="18" cy="92.5" fill="#84BE84" rx="3" ry="3" style="stroke:#038048;stroke-width:1.0;"/><text fill="#000000" font-family="sans-serif" font-size="11" lengthAdjust="spacing" textLength="110" x="27" y="96.9189">shipSummary(String s)</text><!--MD5=[95f401ea9d0c63da0b3e1cc781f0d3e9]
class ShipBST--><rect codeLine="6" fill="#FEFECE" filter="url(#f196x17f7mw6dp)" height="117.1797" id="ShipBST" style="stroke:#A80036;stroke-width:1.5;" width="136" x="212" y="260.5"/><ellipse cx="252.2" cy="276.5" fill="#ADD1B2" rx="11" ry="11" style="stroke:#A80036;stroke-width:1.0;"/><path d="M254.2,273 Q254.4031,272.5 254.6375,272.25 Q254.8719,272 255.1375,272 Q255.6063,272 255.9031,272.2813 Q256.2,272.5625 256.2,273.2188 L256.2,274.7813 Q256.2,275.4375 255.9188,275.7188 Q255.6375,276 255.2,276 Q254.8094,276 254.5594,275.8281 Q254.3094,275.6563 254.2,275.2031 Q254.1531,274.8906 253.9813,274.7188 Q253.6688,274.3906 253.1063,274.2031 Q252.5438,274 251.9813,274 Q251.2781,274 250.6844,274.2813 Q250.1063,274.5625 249.6531,275.1875 Q249.2,275.8125 249.2,276.6719 L249.2,277.5938 Q249.2,278.625 250.0438,279.3125 Q250.8875,280 252.3875,280 Q253.2781,280 253.9031,279.7969 Q254.2625,279.6875 254.6688,279.3281 Q254.9344,279.125 255.075,279.0625 Q255.2156,279 255.3875,279 Q255.7156,279 255.95,279.2656 Q256.2,279.5156 256.2,279.875 Q256.2,280.2188 255.8563,280.625 Q255.3563,281.2188 254.5594,281.5469 Q253.5125,282 252.2313,282 Q250.7313,282 249.5281,281.4063 Q248.5594,280.9375 247.8719,279.9219 Q247.2,278.9063 247.2,277.7031 L247.2,276.6094 Q247.2,275.3594 247.7938,274.2656 Q248.4031,273.1719 249.45,272.5938 Q250.5125,272 251.7,272 Q252.4188,272 253.0438,272.25 Q253.6688,272.5 254.2,273 Z " fill="#000000"/><text fill="#000000" font-family="sans-serif" font-size="12" lengthAdjust="spacing" textLength="48" x="271.8" y="281.4102">ShipBST</text><line style="stroke:#A80036;stroke-width:1.5;" x1="213" x2="347" y1="292.5" y2="292.5"/><rect fill="none" height="6" style="stroke:#C82930;stroke-width:1.0;" width="6" x="220" y="300.5"/><text fill="#000000" font-family="sans-serif" font-size="11" lengthAdjust="spacing" textLength="66" x="232" y="307.9189">shipMmsiAVL</text><rect fill="none" height="6" style="stroke:#C82930;stroke-width:1.0;" width="6" x="220" y="314.3359"/><text fill="#000000" font-family="sans-serif" font-size="11" lengthAdjust="spacing" textLength="58" x="232" y="321.7549">shipImoAVL</text><rect fill="none" height="6" style="stroke:#C82930;stroke-width:1.0;" width="6" x="220" y="328.1719"/><text fill="#000000" font-family="sans-serif" font-size="11" lengthAdjust="spacing" textLength="80" x="232" y="335.5908">shipCallSignAVL</text><rect fill="none" height="6" style="stroke:#C82930;stroke-width:1.0;" width="6" x="220" y="342.0078"/><text fill="#000000" font-family="sans-serif" font-size="11" lengthAdjust="spacing" textLength="48" x="232" y="349.4268">shipArray</text><line style="stroke:#A80036;stroke-width:1.5;" x1="213" x2="347" y1="355.8438" y2="355.8438"/><ellipse cx="223" cy="366.8438" fill="#84BE84" rx="3" ry="3" style="stroke:#038048;stroke-width:1.0;"/><text fill="#000000" font-family="sans-serif" font-size="11" lengthAdjust="spacing" textLength="110" x="232" y="371.2627">shipSummary(String s)</text><!--MD5=[b4a9ab6cffd58937cfea07eb2954e1bd]
class BST--><rect codeLine="13" fill="#FEFECE" filter="url(#f196x17f7mw6dp)" height="131.0156" id="BST" style="stroke:#A80036;stroke-width:1.5;" width="203" x="178.5" y="7"/><ellipse cx="264.25" cy="23" fill="#ADD1B2" rx="11" ry="11" style="stroke:#A80036;stroke-width:1.0;"/><path d="M266.25,19.5 Q266.4531,19 266.6875,18.75 Q266.9219,18.5 267.1875,18.5 Q267.6563,18.5 267.9531,18.7813 Q268.25,19.0625 268.25,19.7188 L268.25,21.2813 Q268.25,21.9375 267.9688,22.2188 Q267.6875,22.5 267.25,22.5 Q266.8594,22.5 266.6094,22.3281 Q266.3594,22.1563 266.25,21.7031 Q266.2031,21.3906 266.0313,21.2188 Q265.7188,20.8906 265.1563,20.7031 Q264.5938,20.5 264.0313,20.5 Q263.3281,20.5 262.7344,20.7813 Q262.1563,21.0625 261.7031,21.6875 Q261.25,22.3125 261.25,23.1719 L261.25,24.0938 Q261.25,25.125 262.0938,25.8125 Q262.9375,26.5 264.4375,26.5 Q265.3281,26.5 265.9531,26.2969 Q266.3125,26.1875 266.7188,25.8281 Q266.9844,25.625 267.125,25.5625 Q267.2656,25.5 267.4375,25.5 Q267.7656,25.5 268,25.7656 Q268.25,26.0156 268.25,26.375 Q268.25,26.7188 267.9063,27.125 Q267.4063,27.7188 266.6094,28.0469 Q265.5625,28.5 264.2813,28.5 Q262.7813,28.5 261.5781,27.9063 Q260.6094,27.4375 259.9219,26.4219 Q259.25,25.4063 259.25,24.2031 L259.25,23.1094 Q259.25,21.8594 259.8438,20.7656 Q260.4531,19.6719 261.5,19.0938 Q262.5625,18.5 263.75,18.5 Q264.4688,18.5 265.0938,18.75 Q265.7188,19 266.25,19.5 Z " fill="#000000"/><text fill="#000000" font-family="sans-serif" font-size="12" lengthAdjust="spacing" textLength="23" x="284.75" y="27.9102">BST</text><line style="stroke:#A80036;stroke-width:1.5;" x1="179.5" x2="380.5" y1="39" y2="39"/><rect fill="none" height="6" style="stroke:#C82930;stroke-width:1.0;" width="6" x="186.5" y="47"/><text fill="#000000" font-family="sans-serif" font-size="11" lengthAdjust="spacing" textLength="37" x="198.5" y="54.4189">element</text><rect fill="none" height="6" style="stroke:#C82930;stroke-width:1.0;" width="6" x="186.5" y="60.8359"/><text fill="#000000" font-family="sans-serif" font-size="11" lengthAdjust="spacing" textLength="15" x="198.5" y="68.2549">left</text><rect fill="none" height="6" style="stroke:#C82930;stroke-width:1.0;" width="6" x="186.5" y="74.6719"/><text fill="#000000" font-family="sans-serif" font-size="11" lengthAdjust="spacing" textLength="21" x="198.5" y="82.0908">right</text><line style="stroke:#A80036;stroke-width:1.5;" x1="179.5" x2="380.5" y1="88.5078" y2="88.5078"/><ellipse cx="189.5" cy="99.5078" fill="#84BE84" rx="3" ry="3" style="stroke:#038048;stroke-width:1.0;"/><text fill="#000000" font-family="sans-serif" font-size="11" lengthAdjust="spacing" textLength="163" x="198.5" y="103.9268">findMSSI(Node&lt;E&gt; node, String s)</text><ellipse cx="189.5" cy="113.3438" fill="#84BE84" rx="3" ry="3" style="stroke:#038048;stroke-width:1.0;"/><text fill="#000000" font-family="sans-serif" font-size="11" lengthAdjust="spacing" textLength="157" x="198.5" y="117.7627">findIMO(Node&lt;E&gt; node, String s)</text><ellipse cx="189.5" cy="127.1797" fill="#84BE84" rx="3" ry="3" style="stroke:#038048;stroke-width:1.0;"/><text fill="#000000" font-family="sans-serif" font-size="11" lengthAdjust="spacing" textLength="177" x="198.5" y="131.5986">findCallSign(Node&lt;E&gt; node, String s)</text><!--MD5=[37bcc9b976a516e356586b0f9b65f21d]
class ShipSummary--><rect codeLine="22" fill="#FEFECE" filter="url(#f196x17f7mw6dp)" height="61.8359" id="ShipSummary" style="stroke:#A80036;stroke-width:1.5;" width="170" x="417" y="41.5"/><ellipse cx="459" cy="57.5" fill="#ADD1B2" rx="11" ry="11" style="stroke:#A80036;stroke-width:1.0;"/><path d="M461,54 Q461.2031,53.5 461.4375,53.25 Q461.6719,53 461.9375,53 Q462.4063,53 462.7031,53.2813 Q463,53.5625 463,54.2188 L463,55.7813 Q463,56.4375 462.7188,56.7188 Q462.4375,57 462,57 Q461.6094,57 461.3594,56.8281 Q461.1094,56.6563 461,56.2031 Q460.9531,55.8906 460.7813,55.7188 Q460.4688,55.3906 459.9063,55.2031 Q459.3438,55 458.7813,55 Q458.0781,55 457.4844,55.2813 Q456.9063,55.5625 456.4531,56.1875 Q456,56.8125 456,57.6719 L456,58.5938 Q456,59.625 456.8438,60.3125 Q457.6875,61 459.1875,61 Q460.0781,61 460.7031,60.7969 Q461.0625,60.6875 461.4688,60.3281 Q461.7344,60.125 461.875,60.0625 Q462.0156,60 462.1875,60 Q462.5156,60 462.75,60.2656 Q463,60.5156 463,60.875 Q463,61.2188 462.6563,61.625 Q462.1563,62.2188 461.3594,62.5469 Q460.3125,63 459.0313,63 Q457.5313,63 456.3281,62.4063 Q455.3594,61.9375 454.6719,60.9219 Q454,59.9063 454,58.7031 L454,57.6094 Q454,56.3594 454.5938,55.2656 Q455.2031,54.1719 456.25,53.5938 Q457.3125,53 458.5,53 Q459.2188,53 459.8438,53.25 Q460.4688,53.5 461,54 Z " fill="#000000"/><text fill="#000000" font-family="sans-serif" font-size="12" lengthAdjust="spacing" textLength="78" x="479" y="62.4102">ShipSummary</text><line style="stroke:#A80036;stroke-width:1.5;" x1="418" x2="586" y1="73.5" y2="73.5"/><line style="stroke:#A80036;stroke-width:1.5;" x1="418" x2="586" y1="81.5" y2="81.5"/><ellipse cx="428" cy="92.5" fill="#84BE84" rx="3" ry="3" style="stroke:#038048;stroke-width:1.0;"/><text fill="#000000" font-family="sans-serif" font-size="11" lengthAdjust="spacing" textLength="144" x="437" y="96.9189">create(Ship ship, String code)</text><!--MD5=[2095ddb0514215aa695048ab4ab59d57]
class DynamicShip--><rect codeLine="25" fill="#FEFECE" filter="url(#f196x17f7mw6dp)" height="241.7031" id="DynamicShip" style="stroke:#A80036;stroke-width:1.5;" width="138" x="433" y="198"/><ellipse cx="462.85" cy="214" fill="#ADD1B2" rx="11" ry="11" style="stroke:#A80036;stroke-width:1.0;"/><path d="M464.85,210.5 Q465.0531,210 465.2875,209.75 Q465.5219,209.5 465.7875,209.5 Q466.2563,209.5 466.5531,209.7813 Q466.85,210.0625 466.85,210.7188 L466.85,212.2813 Q466.85,212.9375 466.5688,213.2188 Q466.2875,213.5 465.85,213.5 Q465.4594,213.5 465.2094,213.3281 Q464.9594,213.1563 464.85,212.7031 Q464.8031,212.3906 464.6313,212.2188 Q464.3188,211.8906 463.7563,211.7031 Q463.1938,211.5 462.6313,211.5 Q461.9281,211.5 461.3344,211.7813 Q460.7563,212.0625 460.3031,212.6875 Q459.85,213.3125 459.85,214.1719 L459.85,215.0938 Q459.85,216.125 460.6938,216.8125 Q461.5375,217.5 463.0375,217.5 Q463.9281,217.5 464.5531,217.2969 Q464.9125,217.1875 465.3188,216.8281 Q465.5844,216.625 465.725,216.5625 Q465.8656,216.5 466.0375,216.5 Q466.3656,216.5 466.6,216.7656 Q466.85,217.0156 466.85,217.375 Q466.85,217.7188 466.5063,218.125 Q466.0063,218.7188 465.2094,219.0469 Q464.1625,219.5 462.8813,219.5 Q461.3813,219.5 460.1781,218.9063 Q459.2094,218.4375 458.5219,217.4219 Q457.85,216.4063 457.85,215.2031 L457.85,214.1094 Q457.85,212.8594 458.4438,211.7656 Q459.0531,210.6719 460.1,210.0938 Q461.1625,209.5 462.35,209.5 Q463.0688,209.5 463.6938,209.75 Q464.3188,210 464.85,210.5 Z " fill="#000000"/><text fill="#000000" font-family="sans-serif" font-size="12" lengthAdjust="spacing" textLength="73" x="480.15" y="218.9102">DynamicShip</text><line style="stroke:#A80036;stroke-width:1.5;" x1="434" x2="570" y1="230" y2="230"/><rect fill="none" height="6" style="stroke:#C82930;stroke-width:1.0;" width="6" x="441" y="238"/><text fill="#000000" font-family="sans-serif" font-size="11" lengthAdjust="spacing" textLength="71" x="453" y="245.4189">baseDateTime;</text><rect fill="none" height="6" style="stroke:#C82930;stroke-width:1.0;" width="6" x="441" y="251.8359"/><text fill="#000000" font-family="sans-serif" font-size="11" lengthAdjust="spacing" textLength="14" x="453" y="259.2549">lat;</text><rect fill="none" height="6" style="stroke:#C82930;stroke-width:1.0;" width="6" x="441" y="265.6719"/><text fill="#000000" font-family="sans-serif" font-size="11" lengthAdjust="spacing" textLength="17" x="453" y="273.0908">lon;</text><rect fill="none" height="6" style="stroke:#C82930;stroke-width:1.0;" width="6" x="441" y="279.5078"/><text fill="#000000" font-family="sans-serif" font-size="11" lengthAdjust="spacing" textLength="21" x="453" y="286.9268">sog;</text><rect fill="none" height="6" style="stroke:#C82930;stroke-width:1.0;" width="6" x="441" y="293.3438"/><text fill="#000000" font-family="sans-serif" font-size="11" lengthAdjust="spacing" textLength="21" x="453" y="300.7627">cog;</text><rect fill="none" height="6" style="stroke:#C82930;stroke-width:1.0;" width="6" x="441" y="307.1797"/><text fill="#000000" font-family="sans-serif" font-size="11" lengthAdjust="spacing" textLength="35" x="453" y="314.5986">eading;</text><rect fill="none" height="6" style="stroke:#C82930;stroke-width:1.0;" width="6" x="441" y="321.0156"/><text fill="#000000" font-family="sans-serif" font-size="11" lengthAdjust="spacing" textLength="89" x="453" y="328.4346">transcrieverClass;</text><line style="stroke:#A80036;stroke-width:1.5;" x1="434" x2="570" y1="334.8516" y2="334.8516"/><ellipse cx="444" cy="345.8516" fill="#84BE84" rx="3" ry="3" style="stroke:#038048;stroke-width:1.0;"/><text fill="#000000" font-family="sans-serif" font-size="11" lengthAdjust="spacing" textLength="92" x="453" y="350.2705">getBaseDateTime()</text><ellipse cx="444" cy="359.6875" fill="#84BE84" rx="3" ry="3" style="stroke:#038048;stroke-width:1.0;"/><text fill="#000000" font-family="sans-serif" font-size="11" lengthAdjust="spacing" textLength="38" x="453" y="364.1064">getLat()</text><ellipse cx="444" cy="373.5234" fill="#84BE84" rx="3" ry="3" style="stroke:#038048;stroke-width:1.0;"/><text fill="#000000" font-family="sans-serif" font-size="11" lengthAdjust="spacing" textLength="41" x="453" y="377.9424">getLon()</text><ellipse cx="444" cy="387.3594" fill="#84BE84" rx="3" ry="3" style="stroke:#038048;stroke-width:1.0;"/><text fill="#000000" font-family="sans-serif" font-size="11" lengthAdjust="spacing" textLength="42" x="453" y="391.7783">getSog()</text><ellipse cx="444" cy="401.1953" fill="#84BE84" rx="3" ry="3" style="stroke:#038048;stroke-width:1.0;"/><text fill="#000000" font-family="sans-serif" font-size="11" lengthAdjust="spacing" textLength="42" x="453" y="405.6143">getCog()</text><ellipse cx="444" cy="415.0313" fill="#84BE84" rx="3" ry="3" style="stroke:#038048;stroke-width:1.0;"/><text fill="#000000" font-family="sans-serif" font-size="11" lengthAdjust="spacing" textLength="62" x="453" y="419.4502">getHeading()</text><ellipse cx="444" cy="428.8672" fill="#84BE84" rx="3" ry="3" style="stroke:#038048;stroke-width:1.0;"/><text fill="#000000" font-family="sans-serif" font-size="11" lengthAdjust="spacing" textLength="112" x="453" y="433.2861">getTranscrieverClass()</text><!--MD5=[131b5658647f7267b37e81a5cc329e0a]
link BST to ShipBST--><path codeLine="42" d="M280,138.06 C280,174.2 280,219.07 280,254.96 " fill="none" id="BST-to-ShipBST" style="stroke:#A80036;stroke-width:1.0;"/><polygon fill="#A80036" points="280,260.19,284,251.19,280,255.19,276,251.19,280,260.19" style="stroke:#A80036;stroke-width:1.0;"/><!--MD5=[b9c0692e8f69729281e4b784c306864d]
link ShipStore to ShipBST--><path codeLine="43" d="M100.55,103.97 C132.39,141.95 187.58,207.77 228.37,256.42 " fill="none" id="ShipStore-to-ShipBST" style="stroke:#A80036;stroke-width:1.0;"/><polygon fill="#A80036" points="231.77,260.48,229.0673,251.0092,228.5634,256.6436,222.9291,256.1397,231.77,260.48" style="stroke:#A80036;stroke-width:1.0;"/><!--MD5=[5d641ec09fa81af492d7c080f62ec4bc]
link ShipSummary to ShipBST--><path codeLine="44" d="M474.33,103.97 C439.78,142.02 379.85,208.03 335.65,256.71 " fill="none" id="ShipSummary-to-ShipBST" style="stroke:#A80036;stroke-width:1.0;"/><polygon fill="#A80036" points="332.23,260.48,341.2484,256.5216,335.5976,256.7842,335.3351,251.1334,332.23,260.48" style="stroke:#A80036;stroke-width:1.0;"/><!--MD5=[c22940d39be3eae02a27c896bab596e8]
link ShipSummary to DynamicShip--><path codeLine="45" d="M502,103.97 C502,126.76 502,159.56 502,192.67 " fill="none" id="ShipSummary-to-DynamicShip" style="stroke:#A80036;stroke-width:1.0;"/><polygon fill="#A80036" points="502,197.98,506,188.98,502,192.98,498,188.98,502,197.98" style="stroke:#A80036;stroke-width:1.0;"/><!--MD5=[825408bac1277e67fdc5448565eeac8d]
@startuml
'https://plantuml.com/class-diagram

class ShipStore{
    +shipSummary(String s)
}
class ShipBST{
    -shipMmsiAVL
    -shipImoAVL
    -shipCallSignAVL
    -shipArray
    +shipSummary(String s)
}
class BST{
    -element
    -left
    -right
    +findMSSI(Node<E> node, String s)
    +findIMO(Node<E> node, String s)
    +findCallSign(Node<E> node, String s)
}

class ShipSummary{
    +create(Ship ship, String code)
}
class DynamicShip{
    -baseDateTime;
    -lat;
    -lon;
    -sog;
    -cog;
    -eading;
    -transcrieverClass;

    +getBaseDateTime()
    +getLat()
    +getLon()
    +getSog()
    +getCog()
    +getHeading()
    +getTranscrieverClass()
}
BST- ->ShipBST
ShipStore- ->ShipBST
ShipSummary- ->ShipBST
ShipSummary- ->DynamicShip

@enduml

@startuml

class ShipStore{
    +shipSummary(String s)
}
class ShipBST{
    -shipMmsiAVL
    -shipImoAVL
    -shipCallSignAVL
    -shipArray
    +shipSummary(String s)
}
class BST{
    -element
    -left
    -right
    +findMSSI(Node<E> node, String s)
    +findIMO(Node<E> node, String s)
    +findCallSign(Node<E> node, String s)
}

class ShipSummary{
    +create(Ship ship, String code)
}
class DynamicShip{
    -baseDateTime;
    -lat;
    -lon;
    -sog;
    -cog;
    -eading;
    -transcrieverClass;

    +getBaseDateTime()
    +getLat()
    +getLon()
    +getSog()
    +getCog()
    +getHeading()
    +getTranscrieverClass()
}
BST- ->ShipBST
ShipStore- ->ShipBST
ShipSummary- ->ShipBST
ShipSummary- ->DynamicShip

@enduml

PlantUML version 1.2021.7(Sun May 23 13:40:07 BST 2021)
(GPL source distribution)
Java Runtime: OpenJDK Runtime Environment
JVM: OpenJDK 64-Bit Server VM
Default Encoding: Cp1252
Language: pt
Country: PT
--></g></svg>