<?xml version="1.0" encoding="UTF-8" standalone="no"?><svg xmlns="http://www.w3.org/2000/svg" xmlns:xlink="http://www.w3.org/1999/xlink" contentScriptType="application/ecmascript" contentStyleType="text/css" height="177px" preserveAspectRatio="none" style="width:103px;height:177px;background:#FFFFFF;" version="1.1" viewBox="0 0 103 177" width="103px" zoomAndPan="magnify"><defs><filter height="300%" id="ff6u2pe6jejks" width="300%" x="-1" y="-1"><feGaussianBlur result="blurOut" stdDeviation="2.0"/><feColorMatrix in="blurOut" result="blurOut2" type="matrix" values="0 0 0 0 0 0 0 0 0 0 0 0 0 0 0 0 0 0 .4 0"/><feOffset dx="4.0" dy="4.0" in="blurOut2" result="blurOut3"/><feBlend in="SourceGraphic" in2="blurOut3" mode="normal"/></filter></defs><g><!--MD5=[4ef6908475cadc30f0fafd08f4b25416]
class ship--><rect codeLine="2" fill="#FEFECE" filter="url(#ff6u2pe6jejks)" height="48" id="ship" style="stroke:#A80036;stroke-width:1.5;" width="56" x="20" y="7"/><ellipse cx="35" cy="23" fill="#ADD1B2" rx="11" ry="11" style="stroke:#A80036;stroke-width:1.0;"/><path d="M37,19.5 Q37.2031,19 37.4375,18.75 Q37.6719,18.5 37.9375,18.5 Q38.4063,18.5 38.7031,18.7813 Q39,19.0625 39,19.7188 L39,21.2813 Q39,21.9375 38.7188,22.2188 Q38.4375,22.5 38,22.5 Q37.6094,22.5 37.3594,22.3281 Q37.1094,22.1563 37,21.7031 Q36.9531,21.3906 36.7813,21.2188 Q36.4688,20.8906 35.9063,20.7031 Q35.3438,20.5 34.7813,20.5 Q34.0781,20.5 33.4844,20.7813 Q32.9063,21.0625 32.4531,21.6875 Q32,22.3125 32,23.1719 L32,24.0938 Q32,25.125 32.8438,25.8125 Q33.6875,26.5 35.1875,26.5 Q36.0781,26.5 36.7031,26.2969 Q37.0625,26.1875 37.4688,25.8281 Q37.7344,25.625 37.875,25.5625 Q38.0156,25.5 38.1875,25.5 Q38.5156,25.5 38.75,25.7656 Q39,26.0156 39,26.375 Q39,26.7188 38.6563,27.125 Q38.1563,27.7188 37.3594,28.0469 Q36.3125,28.5 35.0313,28.5 Q33.5313,28.5 32.3281,27.9063 Q31.3594,27.4375 30.6719,26.4219 Q30,25.4063 30,24.2031 L30,23.1094 Q30,21.8594 30.5938,20.7656 Q31.2031,19.6719 32.25,19.0938 Q33.3125,18.5 34.5,18.5 Q35.2188,18.5 35.8438,18.75 Q36.4688,19 37,19.5 Z " fill="#000000"/><text fill="#000000" font-family="sans-serif" font-size="12" lengthAdjust="spacing" textLength="24" x="49" y="27.9102">ship</text><line style="stroke:#A80036;stroke-width:1.5;" x1="21" x2="75" y1="39" y2="39"/><line style="stroke:#A80036;stroke-width:1.5;" x1="21" x2="75" y1="47" y2="47"/><!--MD5=[a63b43b3a5277a53c3e7ec5ac1f1274d]
class shipData--><rect codeLine="3" fill="#FEFECE" filter="url(#ff6u2pe6jejks)" height="48" id="shipData" style="stroke:#A80036;stroke-width:1.5;" width="82" x="7" y="115"/><ellipse cx="22" cy="131" fill="#ADD1B2" rx="11" ry="11" style="stroke:#A80036;stroke-width:1.0;"/><path d="M24,127.5 Q24.2031,127 24.4375,126.75 Q24.6719,126.5 24.9375,126.5 Q25.4063,126.5 25.7031,126.7813 Q26,127.0625 26,127.7188 L26,129.2813 Q26,129.9375 25.7188,130.2188 Q25.4375,130.5 25,130.5 Q24.6094,130.5 24.3594,130.3281 Q24.1094,130.1563 24,129.7031 Q23.9531,129.3906 23.7813,129.2188 Q23.4688,128.8906 22.9063,128.7031 Q22.3438,128.5 21.7813,128.5 Q21.0781,128.5 20.4844,128.7813 Q19.9063,129.0625 19.4531,129.6875 Q19,130.3125 19,131.1719 L19,132.0938 Q19,133.125 19.8438,133.8125 Q20.6875,134.5 22.1875,134.5 Q23.0781,134.5 23.7031,134.2969 Q24.0625,134.1875 24.4688,133.8281 Q24.7344,133.625 24.875,133.5625 Q25.0156,133.5 25.1875,133.5 Q25.5156,133.5 25.75,133.7656 Q26,134.0156 26,134.375 Q26,134.7188 25.6563,135.125 Q25.1563,135.7188 24.3594,136.0469 Q23.3125,136.5 22.0313,136.5 Q20.5313,136.5 19.3281,135.9063 Q18.3594,135.4375 17.6719,134.4219 Q17,133.4063 17,132.2031 L17,131.1094 Q17,129.8594 17.5938,128.7656 Q18.2031,127.6719 19.25,127.0938 Q20.3125,126.5 21.5,126.5 Q22.2188,126.5 22.8438,126.75 Q23.4688,127 24,127.5 Z " fill="#000000"/><text fill="#000000" font-family="sans-serif" font-size="12" lengthAdjust="spacing" textLength="50" x="36" y="135.9102">shipData</text><line style="stroke:#A80036;stroke-width:1.5;" x1="8" x2="88" y1="147" y2="147"/><line style="stroke:#A80036;stroke-width:1.5;" x1="8" x2="88" y1="155" y2="155"/><!--MD5=[9f726add5c1c3e000a4c7d48564ae346]
link ship to shipData--><path codeLine="5" d="M48,55 C48,71 48,92.45 48,109.53 " fill="none" id="ship-to-shipData" style="stroke:#A80036;stroke-width:1.0;"/><polygon fill="#A80036" points="48,114.68,52,105.68,48,109.68,44,105.68,48,114.68" style="stroke:#A80036;stroke-width:1.0;"/><!--MD5=[b93d82dfaf6599ea6ffe10c39c940f7c]
@startuml

class ship
class shipData

ship- ->shipData

@enduml

PlantUML version 1.2021.11(Sat Oct 02 14:26:11 BST 2021)
(GPL source distribution)
Java Runtime: OpenJDK Runtime Environment
JVM: OpenJDK 64-Bit Server VM
Default Encoding: Cp1252
Language: pt
Country: PT
--></g></svg>