<svg xmlns="http://www.w3.org/2000/svg" xmlns:xlink="http://www.w3.org/1999/xlink" xmlns:lucid="lucid" width="2720" height="4040"><g transform="translate(-40 0)" lucid:page-tab-id="NVFqh3zf3hk6"><path d="M420 506c0-3.3 2.7-6 6-6h148c3.3 0 6 2.7 6 6v108c0 3.3-2.7 6-6 6H426c-3.3 0-6-2.7-6-6z" stroke="#4881b3" stroke-width="3" fill="#f5fbff"/><use xlink:href="#a" transform="matrix(1,0,0,1,425,505) translate(57.025 59.0875)"/><path d="M260 220c0 22.1-35.82 40-80 40s-80-17.9-80-40 35.82-40 80-40 80 17.9 80 40z" stroke="#4881b3" stroke-width="3" fill="#f5fbff"/><use xlink:href="#b" transform="matrix(1,0,0,1,105,185) translate(53.574999999999996 38.4625)"/><path d="M480 180c0 22.1-35.82 40-80 40s-80-17.9-80-40 35.82-40 80-40 80 17.9 80 40z" stroke="#4881b3" stroke-width="3" fill="#f5fbff"/><use xlink:href="#c" transform="matrix(1,0,0,1,325,145) translate(40.075 38.4625)"/><path d="M740 280c0 22.1-35.82 40-80 40s-80-17.9-80-40 35.82-40 80-40 80 17.9 80 40z" stroke="#4881b3" stroke-width="3" fill="#f5fbff"/><use xlink:href="#d" transform="matrix(1,0,0,1,585,245) translate(31.049999999999997 38.4625)"/><path d="M780 120c0 22.1-35.82 40-80 40s-80-17.9-80-40 35.82-40 80-40 80 17.9 80 40z" stroke="#4881b3" stroke-width="3" fill="#f5fbff"/><use xlink:href="#e" transform="matrix(1,0,0,1,625,85) translate(10.049999999999997 38.4625)"/><path d="M800 440c0 22.1-35.82 40-80 40s-80-17.9-80-40 35.82-40 80-40 80 17.9 80 40z" stroke="#4881b3" stroke-width="3" fill="#f5fbff"/><use xlink:href="#f" transform="matrix(1,0,0,1,645,405) translate(45 38.4625)"/><path d="M420 280c0 22.1-35.82 40-80 40s-80-17.9-80-40 35.82-40 80-40 80 17.9 80 40z" stroke="#4881b3" stroke-width="3" fill="#f5fbff"/><use xlink:href="#g" transform="matrix(1,0,0,1,265,245) translate(50.525 38.4625)"/><path d="M320 60c0 22.1-35.82 40-80 40s-80-17.9-80-40 35.82-40 80-40 80 17.9 80 40z" stroke="#4881b3" stroke-width="3" fill="#f5fbff"/><use xlink:href="#h" transform="matrix(1,0,0,1,165,25) translate(54.05 38.4625)"/><path d="M220 380c0 22.1-35.82 40-80 40s-80-17.9-80-40 35.82-40 80-40 80 17.9 80 40z" stroke="#4881b3" stroke-width="3" fill="#f5fbff"/><use xlink:href="#i" transform="matrix(1,0,0,1,65,345) translate(42.025 38.4625)"/><path d="M600 60c0 22.1-35.82 40-80 40s-80-17.9-80-40 35.82-40 80-40 80 17.9 80 40z" stroke="#4881b3" stroke-width="3" fill="#f5fbff"/><use xlink:href="#j" transform="matrix(1,0,0,1,445,25) translate(57.025 38.4625)"/><path d="M920 220c0 22.1-35.82 40-80 40s-80-17.9-80-40 35.82-40 80-40 80 17.9 80 40z" stroke="#4881b3" stroke-width="3" fill="#f5fbff"/><use xlink:href="#k" transform="matrix(1,0,0,1,765,185) translate(30.049999999999997 38.4625)"/><path d="M1080 526c0-3.3 2.7-6 6-6h148c3.3 0 6 2.7 6 6v108c0 3.3-2.7 6-6 6h-148c-3.3 0-6-2.7-6-6z" stroke="#4881b3" stroke-width="3" fill="#f5fbff"/><use xlink:href="#l" transform="matrix(1,0,0,1,1085,525) translate(36.025 59.0875)"/><path d="M1708.27 335.47c0 22.1-35.82 40-80 40-44.2 0-80-17.9-80-40s35.8-40 80-40c44.18 0 80 17.9 80 40z" stroke="#4881b3" stroke-width="3" fill="#f5fbff"/><use xlink:href="#m" transform="matrix(1,0,0,1,1553.2666666666664,300.4666666666667) translate(46.55 38.4625)"/><path d="M1708.27 100c0 22.1-35.82 40-80 40-44.2 0-80-17.9-80-40s35.8-40 80-40c44.18 0 80 17.9 80 40z" stroke="#4881b3" stroke-width="3" fill="#f5fbff"/><use xlink:href="#n" transform="matrix(1,0,0,1,1553.2666666666664,65) translate(57.5 38.4625)"/><path d="M1740 200c0 22.1-35.82 40-80 40s-80-17.9-80-40 35.82-40 80-40 80 17.9 80 40z" stroke="#4881b3" stroke-width="3" fill="#f5fbff"/><use xlink:href="#o" transform="matrix(1,0,0,1,1585,165) translate(58.05 38.4625)"/><path d="M1520 200c0 22.1-35.82 40-80 40s-80-17.9-80-40 35.82-40 80-40 80 17.9 80 40z" stroke="#4881b3" stroke-width="3" fill="#f5fbff"/><use xlink:href="#p" transform="matrix(1,0,0,1,1365,165) translate(46.05 38.4625)"/><path d="M1480 320c0 22.1-35.82 40-80 40s-80-17.9-80-40 35.82-40 80-40 80 17.9 80 40z" stroke="#4881b3" stroke-width="3" fill="#f5fbff"/><use xlink:href="#q" transform="matrix(1,0,0,1,1325,285) translate(38.55 38.4625)"/><path d="M1520 460c0 22.1-35.82 40-80 40s-80-17.9-80-40 35.82-40 80-40 80 17.9 80 40z" stroke="#4881b3" stroke-width="3" fill="#f5fbff"/><use xlink:href="#r" transform="matrix(1,0,0,1,1365,425) translate(60.5 38.4625)"/><path d="M1540 600c0 22.1-35.82 40-80 40s-80-17.9-80-40 35.82-40 80-40 80 17.9 80 40z" stroke="#4881b3" stroke-width="3" fill="#f5fbff"/><use xlink:href="#s" transform="matrix(1,0,0,1,1385,565) translate(60.5 38.4625)"/><path d="M1700 740c0 22.1-35.82 40-80 40s-80-17.9-80-40 35.82-40 80-40 80 17.9 80 40z" stroke="#4881b3" stroke-width="3" fill="#f5fbff"/><use xlink:href="#t" transform="matrix(1,0,0,1,1545,705) translate(43.025 38.4625)"/><path d="M1480 820c0 22.1-35.82 40-80 40s-80-17.9-80-40 35.82-40 80-40 80 17.9 80 40z" stroke="#4881b3" stroke-width="3" fill="#f5fbff"/><use xlink:href="#u" transform="matrix(1,0,0,1,1325,785) translate(52.525 38.4625)"/><path d="M1400 680c0 22.1-35.82 40-80 40s-80-17.9-80-40 35.82-40 80-40 80 17.9 80 40z" stroke="#4881b3" stroke-width="3" fill="#f5fbff"/><use xlink:href="#v" transform="matrix(1,0,0,1,1245,645) translate(5.599999999999994 38.4625)"/><path d="M1000 3786c0-3.3 2.7-6 6-6h148c3.3 0 6 2.7 6 6v108c0 3.3-2.7 6-6 6h-148c-3.3 0-6-2.7-6-6z" stroke="#4881b3" stroke-width="3" fill="#f5fbff"/><use xlink:href="#w" transform="matrix(1,0,0,1,1005,3785) translate(55.525 59.0875)"/><path d="M1380 3820c0 22.1-35.82 40-80 40s-80-17.9-80-40 35.82-40 80-40 80 17.9 80 40z" stroke="#4881b3" stroke-width="3" fill="#f5fbff"/><use xlink:href="#x" transform="matrix(1,0,0,1,1225,3785) translate(55.525 38.4625)"/><path d="M1380 3940c0 22.1-35.82 40-80 40s-80-17.9-80-40 35.82-40 80-40 80 17.9 80 40z" stroke="#4881b3" stroke-width="3" fill="#f5fbff"/><use xlink:href="#y" transform="matrix(1,0,0,1,1225,3905) translate(25.574999999999996 38.4625)"/><path d="M2140 3720c0 22.1-35.82 40-80 40s-80-17.9-80-40 35.82-40 80-40 80 17.9 80 40z" stroke="#4881b3" stroke-width="3" fill="#f5fbff"/><use xlink:href="#x" transform="matrix(1,0,0,1,1985,3685) translate(55.525 38.4625)"/><path d="M1780 3786c0-3.3 2.7-6 6-6h148c3.3 0 6 2.7 6 6v108c0 3.3-2.7 6-6 6h-148c-3.3 0-6-2.7-6-6z" stroke="#4881b3" stroke-width="3" fill="#f5fbff"/><use xlink:href="#z" transform="matrix(1,0,0,1,1785,3785) translate(33.025 59.0875)"/><path d="M2128.27 3860c0 22.1-35.82 40-80 40-44.2 0-80-17.9-80-40s35.8-40 80-40c44.18 0 80 17.9 80 40z" stroke="#4881b3" stroke-width="3" fill="#f5fbff"/><use xlink:href="#A" transform="matrix(1,0,0,1,1973.2666666666664,3825) translate(57.5 38.4625)"/><path d="M2340 3800c0 22.1-35.82 40-80 40s-80-17.9-80-40 35.82-40 80-40 80 17.9 80 40z" stroke="#4881b3" stroke-width="3" fill="#f5fbff"/><use xlink:href="#o" transform="matrix(1,0,0,1,2185,3765) translate(58.05 38.4625)"/><path d="M2316.53 3920c0 22.1-35.8 40-80 40-44.18 0-80-17.9-80-40s35.82-40 80-40c44.2 0 80 17.9 80 40z" stroke="#4881b3" stroke-width="3" fill="#f5fbff"/><use xlink:href="#B" transform="matrix(1,0,0,1,2161.533333333333,3885) translate(65.525 38.4625)"/><path d="M2040 3980c0 22.1-35.82 40-80 40s-80-17.9-80-40 35.82-40 80-40 80 17.9 80 40z" stroke="#4881b3" stroke-width="3" fill="#f5fbff"/><use xlink:href="#C" transform="matrix(1,0,0,1,1885,3945) translate(63.025 38.4625)"/><path d="M2066 1906c0-3.3 2.7-6 6-6h148c3.3 0 6 2.7 6 6v108c0 3.3-2.7 6-6 6h-148c-3.3 0-6-2.7-6-6z" stroke="#4881b3" stroke-width="3" fill="#f5fbff"/><use xlink:href="#D" transform="matrix(1,0,0,1,2071,1905) translate(60.05 59.0875)"/><path d="M2440 2100c0 22.1-35.82 40-80 40s-80-17.9-80-40 35.82-40 80-40 80 17.9 80 40z" stroke="#4881b3" stroke-width="3" fill="#f5fbff"/><use xlink:href="#E" transform="matrix(1,0,0,1,2285,2065) translate(48.075 38.4625)"/><path d="M2246 1760c0 22.1-35.82 40-80 40s-80-17.9-80-40 35.82-40 80-40 80 17.9 80 40z" stroke="#4881b3" stroke-width="3" fill="#f5fbff"/><use xlink:href="#F" transform="matrix(1,0,0,1,2091,1725) translate(52.525 38.4625)"/><path d="M1360 1626c0-3.3 2.7-6 6-6h148c3.3 0 6 2.7 6 6v108c0 3.3-2.7 6-6 6h-148c-3.3 0-6-2.7-6-6z" stroke="#4881b3" stroke-width="3" fill="#f5fbff"/><use xlink:href="#G" transform="matrix(1,0,0,1,1365,1625) translate(41.05 59.0875)"/><path d="M1540 1860c0 22.1-35.82 40-80 40s-80-17.9-80-40 35.82-40 80-40 80 17.9 80 40z" stroke="#4881b3" stroke-width="3" fill="#f5fbff"/><use xlink:href="#H" transform="matrix(1,0,0,1,1385,1825) translate(29.074999999999996 38.4625)"/><path d="M1720 1880c0 22.1-35.82 40-80 40s-80-17.9-80-40 35.82-40 80-40 80 17.9 80 40z" stroke="#4881b3" stroke-width="3" fill="#f5fbff"/><use xlink:href="#F" transform="matrix(1,0,0,1,1565,1845) translate(52.525 38.4625)"/><path d="M460 2100c0 22.1-35.82 40-80 40s-80-17.9-80-40 35.82-40 80-40 80 17.9 80 40z" stroke="#4881b3" stroke-width="3" fill="#f5fbff"/><use xlink:href="#I" transform="matrix(1,0,0,1,305,2065) translate(-1.4000000000000057 38.6)"/><path d="M520 1926c0-3.3 2.7-6 6-6h148c3.3 0 6 2.7 6 6v108c0 3.3-2.7 6-6 6H526c-3.3 0-6-2.7-6-6z" stroke="#4881b3" stroke-width="3" fill="#f5fbff"/><use xlink:href="#J" transform="matrix(1,0,0,1,525,1925) translate(10.574999999999989 59.0875)"/><path d="M660 2180c0 22.1-35.82 40-80 40s-80-17.9-80-40 35.82-40 80-40 80 17.9 80 40z" stroke="#4881b3" stroke-width="3" fill="#f5fbff"/><use xlink:href="#F" transform="matrix(1,0,0,1,505,2145) translate(52.525 38.4625)"/><path d="M840 2120c0 22.1-35.82 40-80 40s-80-17.9-80-40 35.82-40 80-40 80 17.9 80 40z" stroke="#4881b3" stroke-width="3" fill="#f5fbff"/><use xlink:href="#K" transform="matrix(1,0,0,1,685,2085) translate(38.525 38.4625)"/><path d="M900 1980c0 22.1-35.82 40-80 40s-80-17.9-80-40 35.82-40 80-40 80 17.9 80 40z" stroke="#4881b3" stroke-width="3" fill="#f5fbff"/><use xlink:href="#L" transform="matrix(1,0,0,1,745,1945) translate(45.525 38.4625)"/><path d="M480 1920c0 22.1-35.82 40-80 40s-80-17.9-80-40 35.82-40 80-40 80 17.9 80 40z" stroke="#4881b3" stroke-width="3" fill="#f5fbff"/><use xlink:href="#M" transform="matrix(1,0,0,1,325,1885) translate(58 38.4625)"/><path d="M1220 2080c0 22.1-35.82 40-80 40s-80-17.9-80-40 35.82-40 80-40 80 17.9 80 40z" stroke="#4881b3" stroke-width="3" fill="#f5fbff"/><use xlink:href="#B" transform="matrix(1,0,0,1,1065,2045) translate(65.525 38.4625)"/><path d="M980 2220c0 22.1-35.82 40-80 40s-80-17.9-80-40 35.82-40 80-40 80 17.9 80 40z" stroke="#4881b3" stroke-width="3" fill="#f5fbff"/><use xlink:href="#C" transform="matrix(1,0,0,1,825,2185) translate(63.025 38.4625)"/><path d="M1560 2206c0-3.3 2.7-6 6-6h148c3.3 0 6 2.7 6 6v108c0 3.3-2.7 6-6 6h-148c-3.3 0-6-2.7-6-6z" stroke="#4881b3" stroke-width="3" fill="#f5fbff"/><use xlink:href="#N" transform="matrix(1,0,0,1,1565,2205) translate(-4.924999999999997 58.6)"/><path d="M1740 2440c0 22.1-35.82 40-80 40s-80-17.9-80-40 35.82-40 80-40 80 17.9 80 40z" stroke="#4881b3" stroke-width="3" fill="#f5fbff"/><use xlink:href="#H" transform="matrix(1,0,0,1,1585,2405) translate(29.074999999999996 38.4625)"/><path d="M1960 2240c0 22.1-35.82 40-80 40s-80-17.9-80-40 35.82-40 80-40 80 17.9 80 40z" stroke="#4881b3" stroke-width="3" fill="#f5fbff"/><use xlink:href="#I" transform="matrix(1,0,0,1,1805,2205) translate(-1.4000000000000057 38.6)"/><path d="M1960 2400c0 22.1-35.82 40-80 40s-80-17.9-80-40 35.82-40 80-40 80 17.9 80 40z" stroke="#4881b3" stroke-width="3" fill="#f5fbff"/><use xlink:href="#O" transform="matrix(1,0,0,1,1805,2365) translate(57.025 38.4625)"/><path d="M1860 2120c0 22.1-35.82 40-80 40s-80-17.9-80-40 35.82-40 80-40 80 17.9 80 40z" stroke="#4881b3" stroke-width="3" fill="#f5fbff"/><use xlink:href="#P" transform="matrix(1,0,0,1,1705,2085) translate(4.525000000000006 38.4625)"/><path d="M1540 1066c0-3.3 2.7-6 6-6h148c3.3 0 6 2.7 6 6v108c0 3.3-2.7 6-6 6h-148c-3.3 0-6-2.7-6-6z" stroke="#4881b3" stroke-width="3" fill="#f5fbff"/><use xlink:href="#Q" transform="matrix(1,0,0,1,1545,1065) translate(38.05 59.0875)"/><path d="M1880 1400c0 22.1-35.82 40-80 40s-80-17.9-80-40 35.82-40 80-40 80 17.9 80 40z" stroke="#4881b3" stroke-width="3" fill="#f5fbff"/><use xlink:href="#R" transform="matrix(1,0,0,1,1725,1365) translate(26.074999999999996 38.4625)"/><path d="M1620 960c0 22.1-35.82 40-80 40s-80-17.9-80-40 35.82-40 80-40 80 17.9 80 40z" stroke="#4881b3" stroke-width="3" fill="#f5fbff"/><use xlink:href="#S" transform="matrix(1,0,0,1,1465,925) translate(39.025 38.4625)"/><path d="M1640 1300c0 22.1-35.82 40-80 40s-80-17.9-80-40 35.82-40 80-40 80 17.9 80 40z" stroke="#4881b3" stroke-width="3" fill="#f5fbff"/><use xlink:href="#T" transform="matrix(1,0,0,1,1485,1265) translate(30.049999999999997 38.4625)"/><path d="M1968.27 1160c0 22.1-35.82 40-80 40-44.2 0-80-17.9-80-40s35.8-40 80-40c44.18 0 80 17.9 80 40z" stroke="#4881b3" stroke-width="3" fill="#f5fbff"/><use xlink:href="#U" transform="matrix(1,0,0,1,1813.2666666666664,1125) translate(19.049999999999997 38.4625)"/><path d="M1960 1260c0 22.1-35.82 40-80 40s-80-17.9-80-40 35.82-40 80-40 80 17.9 80 40z" stroke="#4881b3" stroke-width="3" fill="#f5fbff"/><use xlink:href="#V" transform="matrix(1,0,0,1,1805,1225) translate(39.55 38.4625)"/><path d="M1720 1440c0 22.1-35.82 40-80 40s-80-17.9-80-40 35.82-40 80-40 80 17.9 80 40z" stroke="#4881b3" stroke-width="3" fill="#f5fbff"/><use xlink:href="#W" transform="matrix(1,0,0,1,1565,1405) translate(41.55 38.4625)"/><path d="M1920 1060c0 22.1-40.3 40-90 40s-90-17.9-90-40 40.3-40 90-40 90 17.9 90 40z" stroke="#4881b3" stroke-width="3" fill="#f5fbff"/><use xlink:href="#X" transform="matrix(1,0,0,1,1745,1025) translate(2.6500000000000057 38.4625)"/><path d="M1840 900c0 22.1-35.82 40-80 40s-80-17.9-80-40 35.82-40 80-40 80 17.9 80 40z" stroke="#4881b3" stroke-width="3" fill="#f5fbff"/><use xlink:href="#Y" transform="matrix(1,0,0,1,1685,865) translate(27.125 38.4625)"/><path d="M2180 1246c0-3.3 2.7-6 6-6h168c3.3 0 6 2.7 6 6v108c0 3.3-2.7 6-6 6h-168c-3.3 0-6-2.7-6-6z" stroke="#4881b3" stroke-width="3" fill="#f5fbff"/><use xlink:href="#Z" transform="matrix(1,0,0,1,2185,1245) translate(4.625 59.0875)"/><path d="M2440 1520c0 22.1-35.82 40-80 40s-80-17.9-80-40 35.82-40 80-40 80 17.9 80 40z" stroke="#4881b3" stroke-width="3" fill="#f5fbff"/><use xlink:href="#R" transform="matrix(1,0,0,1,2285,1485) translate(26.074999999999996 38.4625)"/><path d="M2630 1460c0 22.1-35.82 40-80 40s-80-17.9-80-40 35.82-40 80-40 80 17.9 80 40z" stroke="#4881b3" stroke-width="3" fill="#f5fbff"/><use xlink:href="#aa" transform="matrix(1,0,0,1,2475,1425) translate(24.6 38.4625)"/><path d="M2360 846c0-3.3 2.7-6 6-6h168c3.3 0 6 2.7 6 6v108c0 3.3-2.7 6-6 6h-168c-3.3 0-6-2.7-6-6z" stroke="#4881b3" stroke-width="3" fill="#f5fbff"/><use xlink:href="#ab" transform="matrix(1,0,0,1,2365,845) translate(46.575 59.0875)"/><path d="M2740 880c0 22.1-35.82 40-80 40s-80-17.9-80-40 35.82-40 80-40 80 17.9 80 40z" stroke="#4881b3" stroke-width="3" fill="#f5fbff"/><use xlink:href="#aa" transform="matrix(1,0,0,1,2585,845) translate(24.6 38.4625)"/><path d="M2600 694.13c0 22.1-35.82 40-80 40s-80-17.9-80-40 35.82-40 80-40 80 17.9 80 40z" stroke="#4881b3" stroke-width="3" fill="#f5fbff"/><use xlink:href="#F" transform="matrix(1,0,0,1,2445,659.1333333333332) translate(52.525 38.4625)"/><path d="M410 906c0-3.3 2.7-6 6-6h168c3.3 0 6 2.7 6 6v108c0 3.3-2.7 6-6 6H416c-3.3 0-6-2.7-6-6z" stroke="#4881b3" stroke-width="3" fill="#f5fbff"/><use xlink:href="#ac" transform="matrix(1,0,0,1,415,905) translate(23.574999999999996 59.0875)"/><path d="M400 1120c0 22.1-35.82 40-80 40s-80-17.9-80-40 35.82-40 80-40 80 17.9 80 40z" stroke="#4881b3" stroke-width="3" fill="#f5fbff"/><use xlink:href="#R" transform="matrix(1,0,0,1,245,1085) translate(26.074999999999996 38.4625)"/><path d="M610 1140c0 22.1-35.82 40-80 40s-80-17.9-80-40 35.82-40 80-40 80 17.9 80 40z" stroke="#4881b3" stroke-width="3" fill="#f5fbff"/><use xlink:href="#ad" transform="matrix(1,0,0,1,455,1105) translate(1.5999999999999943 38.4625)"/><path d="M300 1260c0 22.1-35.82 40-80 40s-80-17.9-80-40 35.82-40 80-40 80 17.9 80 40z" stroke="#4881b3" stroke-width="3" fill="#f5fbff"/><use xlink:href="#m" transform="matrix(1,0,0,1,145,1225) translate(46.55 38.4625)"/><path d="M520 1280c0 22.1-40.3 40-90 40s-90-17.9-90-40 40.3-40 90-40 90 17.9 90 40z" stroke="#4881b3" stroke-width="3" fill="#f5fbff"/><use xlink:href="#ae" transform="matrix(1,0,0,1,345,1245) translate(2.5999999999999943 38.4625)"/><path d="M620 1380c0 22.1-40.3 40-90 40s-90-17.9-90-40 40.3-40 90-40 90 17.9 90 40z" stroke="#4881b3" stroke-width="3" fill="#f5fbff"/><use xlink:href="#af" transform="matrix(1,0,0,1,445,1345) translate(2.5999999999999943 38.4625)"/><path d="M720 1480c0 22.1-40.3 40-90 40s-90-17.9-90-40 40.3-40 90-40 90 17.9 90 40z" stroke="#4881b3" stroke-width="3" fill="#f5fbff"/><use xlink:href="#ag" transform="matrix(1,0,0,1,545,1445) translate(2.5999999999999943 38.4625)"/><path d="M920 1220c0 22.1-58.2 40-130 40s-130-17.9-130-40 58.2-40 130-40 130 17.9 130 40z" stroke="#4881b3" stroke-width="3" fill="#f5fbff"/><use xlink:href="#ah" transform="matrix(1,0,0,1,665,1185) translate(7.875370370370385 35.78777777777778)"/><path d="M870 1060c0 22.1-35.82 40-80 40s-80-17.9-80-40 35.82-40 80-40 80 17.9 80 40z" stroke="#4881b3" stroke-width="3" fill="#f5fbff"/><use xlink:href="#M" transform="matrix(1,0,0,1,715,1025) translate(58 38.4625)"/><path d="M940 1440c0 22.1-35.82 40-80 40s-80-17.9-80-40 35.82-40 80-40 80 17.9 80 40z" stroke="#4881b3" stroke-width="3" fill="#f5fbff"/><use xlink:href="#ai" transform="matrix(1,0,0,1,785,1405) translate(31.025 38.4625)"/><path d="M920 1340c0 22.1-35.82 40-80 40s-80-17.9-80-40 35.82-40 80-40 80 17.9 80 40z" stroke="#4881b3" stroke-width="3" fill="#f5fbff"/><use xlink:href="#aj" transform="matrix(1,0,0,1,765,1305) translate(32.525 38.4625)"/><path d="M340 322.5V404c0 3.3 2.7 6 6 6h135c3.3 0 6 2.7 6 6v81.5" stroke="#224c72" stroke-width="2" fill="none"/><path d="M339.98 321.5H341v1.03h-2v-1.06M488 498.5h-2v-1.03h2" fill="#224c72"/><path d="M637.5 440H616c-3.3 0-6 2.7-6 6v88c0 3.3-2.7 6-6 6h-21.5" stroke="#224c72" stroke-width="2" fill="none"/><path d="M638.5 439.98v.22l.03.8h-1.06v-2h1.06M582.53 541h-1.03v-2h1.03" fill="#224c72"/><path d="M577.8 280.3V498.5" stroke="#224c72" stroke-width="2" fill="none"/><path d="M578.5 279.98v.22l.03.8h-1.06v-2h1.06M578.8 500.48l-1-1-1-.27v-.75h2" fill="#224c72"/><path d="M757.5 220H545.08c-3.3 0-6 2.7-6 6v271.5" stroke="#224c72" stroke-width="2" fill="none"/><path d="M758.5 219.98v.22l.03.8h-1.06v-2h1.06M540.08 498.5h-2v-1.03h2" fill="#224c72"/><path d="M617.5 120h-53.53c-3.3 0-6 2.7-6 6v371.5" stroke="#224c72" stroke-width="2" fill="none"/><path d="M618.5 119.98v.22l.03.8h-1.06v-2h1.06M558.97 498.5h-2v-1.03h2" fill="#224c72"/><path d="M222.5 380H314c3.3 0 6 2.7 6 6v168c0 3.3 2.7 6 6 6h91.5" stroke="#224c72" stroke-width="2" fill="none"/><path d="M222.53 381h-1.06l.03-.98v-.22l-.03-.8h1.06M418.5 561h-1.03v-2h1.03" fill="#224c72"/><path d="M180 262.5v328.3c0 3.3 2.7 6 6 6h231.5" stroke="#224c72" stroke-width="2" fill="none"/><path d="M179.98 261.5H181v1.03h-2v-1.06M418.5 597.8h-1.03v-2h1.03" fill="#224c72"/><path d="M240 102.5v428.47c0 3.32 2.7 6 6 6h171.5" stroke="#224c72" stroke-width="2" fill="none"/><path d="M239.98 101.5H241v1.03h-2v-1.06M418.5 537.97h-1.03v-2h1.03" fill="#224c72"/><path d="M400 222.5V354c0 3.3 2.7 6 6 6h88c3.3 0 6 2.7 6 6v131.5" stroke="#224c72" stroke-width="2" fill="none"/><path d="M399.98 221.5H401v1.03h-2v-1.06M501 498.5h-2v-1.03h2" fill="#224c72"/><path d="M520 102.5v194.25c0 1.8 1.45 3.25 3.25 3.25s3.24 1.45 3.24 3.25V497.5" stroke="#224c72" stroke-width="2" fill="none"/><path d="M519.98 101.5H521v1.03h-2v-1.06M527.5 498.5h-2v-1.03h2" fill="#224c72"/><path d="M825.2 523.6c2.65-2 6.95-2 9.6 0l70.4 52.8c2.65 2 2.65 5.2 0 7.2l-70.4 52.8c-2.65 2-6.95 2-9.6 0l-70.4-52.8c-2.65-2-2.65-5.2 0-7.2z" stroke="#4881b3" stroke-width="3" fill="#f5fbff"/><use xlink:href="#ak" transform="matrix(1,0,0,1,755,525) translate(60.505 59.0875)"/><path d="M1069.5 581H909.6v-2h159.9" fill="#224c72"/><path d="M909.64 581h-1.1l.18-.4-.28-1.6h1.2" fill="#224c72"/><path fill="#224c72"/><use xlink:href="#al" transform="matrix(1,0,0,1,1069.5,569.2) translate(0 14.4)"/><path d="M750.4 581H590.5v-2h159.9" fill="#224c72"/><path d="M751.28 579.4l.28 1.6h-1.2v-2h1.1" fill="#224c72"/><path fill="#224c72"/><use xlink:href="#am" transform="matrix(1,0,0,1,580.5,569.2) translate(0 14.4)"/><path d="M1237.5 680H1166c-3.3 0-6-2.7-6-6v-31.5" stroke="#224c72" stroke-width="2" fill="none"/><path d="M1238.5 679.98v.22l.03.8h-1.06v-2h1.06M1161 642.53h-2v-1.03h2" fill="#224c72"/><path d="M1377.5 600h-135" stroke="#224c72" stroke-width="2" fill="none"/><path d="M1378.5 599.98v.22l.03.8h-1.06v-2h1.06M1242.53 601h-1.03v-2h1.03" fill="#224c72"/><path d="M1357.5 460H1306c-3.3 0-6 2.7-6 6v105c0 3.3-2.7 6-6 6h-51.5" stroke="#224c72" stroke-width="2" fill="none"/><path d="M1358.5 459.98v.22l.03.8h-1.06v-2h1.06M1242.53 578h-1.03v-2h1.03" fill="#224c72"/><path d="M1317.5 320h-104.8c-3.3 0-6 2.7-6 6v191.5" stroke="#224c72" stroke-width="2" fill="none"/><path d="M1318.5 319.98v.22l.03.8h-1.06v-2h1.06M1207.7 518.5h-2v-1.03h2" fill="#224c72"/><path d="M1545.77 335.47h-15c-3.32 0-6 2.68-6 6V384c0 3.3-2.7 6-6 6h-285.6c-3.3 0-6 2.7-6 6v121.5" stroke="#224c72" stroke-width="2" fill="none"/><path d="M1546.77 335.45v.22l.03.8h-1.06v-2h1.06M1228.17 518.5h-2v-1.03h2" fill="#224c72"/><path d="M1357.5 200H1166c-3.3 0-6 2.7-6 6v311.5" stroke="#224c72" stroke-width="2" fill="none"/><path d="M1358.5 199.98v.22l.03.8h-1.06v-2h1.06M1161 518.5h-2v-1.03h2" fill="#224c72"/><path d="M1545.77 100H1195.4c-3.32 0-6 2.7-6 6v411.5" stroke="#224c72" stroke-width="2" fill="none"/><path d="M1546.77 99.98v.22l.03.8h-1.06v-2h1.06M1190.4 518.5h-2v-1.03h2" fill="#224c72"/><path d="M1577.5 200H1416c-3.3 0-6 2.7-6 6v325c0 3.3-2.7 6-6 6h-161.5" stroke="#224c72" stroke-width="2" fill="none"/><path d="M1578.5 199.98v.22l.03.8h-1.06v-2h1.06M1242.53 538h-1.03v-2h1.03" fill="#224c72"/><path d="M1537.5 740h-337.38c-3.32 0-6-2.7-6-6v-91.5" stroke="#224c72" stroke-width="2" fill="none"/><path d="M1538.5 739.98v.22l.03.8h-1.06v-2h1.06M1195.12 642.53h-2v-1.03h2" fill="#224c72"/><path d="M1317.5 820H1146c-3.3 0-6-2.7-6-6V642.5" stroke="#224c72" stroke-width="2" fill="none"/><path d="M1318.5 819.98v.22l.03.8h-1.06v-2h1.06M1141 642.53h-2v-1.03h2" fill="#224c72"/><path d="M320 1077.5V966c0-3.3 2.7-6 6-6h81.5" stroke="#224c72" stroke-width="2" fill="none"/><path d="M321 1078.53l-.98-.03H319v-1.03h2M408.5 961h-1.03v-2h1.03" fill="#224c72"/><path d="M530 1097.5V1066c0-3.3-2.7-6-6-6h-89.2c-3.33 0-6-2.7-6-6v-31.5" stroke="#224c72" stroke-width="2" fill="none"/><path d="M531 1098.53l-.98-.03H529v-1.03h2M429.8 1022.53h-2v-1.03h2" fill="#224c72"/><path d="M790 1017.5v-21.4c0-3.3-2.7-6-6-6H592.5" stroke="#224c72" stroke-width="2" fill="none"/><path d="M791 1018.53l-.98-.03H789v-1.03h2M592.53 991.1h-1.03v-2h1.03" fill="#224c72"/><path d="M790 1177.5V1106c0-3.3-2.7-6-6-6H562.3c-3.32 0-6-2.7-6-6v-71.5" stroke="#224c72" stroke-width="2" fill="none"/><path d="M791 1178.52l-1-.02h-1v-1.03h2M557.3 1022.53h-2v-1.03h2" fill="#224c72"/><path d="M430 1237.5v-215" stroke="#224c72" stroke-width="2" fill="none"/><path d="M431 1238.53l-.98-.03H429v-1.03h2M431 1022.53h-2v-1.03h2" fill="#224c72"/><path d="M220 1217.5V939.45c0-3.32 2.7-6 6-6h181.5" stroke="#224c72" stroke-width="2" fill="none"/><path d="M221 1218.53l-.98-.03H219v-1.03h2M408.5 934.45h-1.03v-2h1.03" fill="#224c72"/><path d="M530 1337.5v-315" stroke="#224c72" stroke-width="2" fill="none"/><path d="M531 1338.53l-.98-.03H529v-1.03h2M531 1022.53h-2v-1.03h2" fill="#224c72"/><path d="M630 1437.5V1236c0-3.3-2.7-6-6-6h-44.4c-3.3 0-6-2.7-6-6v-201.5" stroke="#224c72" stroke-width="2" fill="none"/><path d="M631 1438.53l-.98-.03H629v-1.03h2M574.6 1022.53h-2v-1.03h2" fill="#224c72"/><path d="M757.5 1340H681c-3.3 0-6-2.7-6-6v-317.42c0-3.32-2.7-6-6-6h-76.5" stroke="#224c72" stroke-width="2" fill="none"/><path d="M758.5 1339.98v.22l.03.8h-1.06v-2h1.06M592.53 1011.58h-1.03v-2h1.03" fill="#224c72"/><path d="M682.55 934.94l2.53 2.53.92 3.42v492.97l.7 2.64 1.8 1.8 2.63.7h86.37v2h-86.63l-3.42-.92-2.53-2.53-.92-3.42V941.15l-.7-2.64-1.8-1.77-2.63-.7H592.5v-2h86.63" fill="#224c72"/><path d="M778.5 1439.98v.22l.03.8h-1.06v-2h1.06M592.53 936.02h-1.03v-2h1.03" fill="#224c72"/><path d="M1540 1002.5v21.5c0 3.3 2.7 6 6 6h68c3.3 0 6 2.7 6 6v21.5" stroke="#224c72" stroke-width="2" fill="none"/><path d="M1539.98 1001.5h1.02v1.03h-2v-1.06M1621 1058.5h-2v-1.03h2" fill="#224c72"/><path d="M1760 942.5V994c0 3.3-2.7 6-6 6h-105c-3.3 0-6 2.7-6 6v51.5" stroke="#224c72" stroke-width="2" fill="none"/><path d="M1759.98 941.5h1.02v1.03h-2v-1.06M1644 1058.5h-2v-1.03h2" fill="#224c72"/><path d="M1737.5 1060h-38.17" stroke="#224c72" stroke-width="2" fill="none"/><path d="M1738.5 1059.98v.33l.03.7h-1.06v-2h1.06M1699.36 1061h-.03l-1.52-1.52-1.75-.48h3.3" fill="#224c72"/><path d="M1805.77 1160h-45.64c-3.3 0-6-2.7-6-6v-56.5c0-3.33-2.68-6-6-6h-45.63" stroke="#224c72" stroke-width="2" fill="none"/><path d="M1806.77 1159.98v.22l.03.8h-1.06v-2h1.06M1702.53 1092.5h-1.03v-2h1.03" fill="#224c72"/><path d="M1797.5 1260H1756c-3.3 0-6-2.7-6-6v-128c0-3.3-2.7-6-6-6h-41.5" stroke="#224c72" stroke-width="2" fill="none"/><path d="M1798.5 1259.98v.22l.03.8h-1.06v-2h1.06M1702.53 1121h-1.03v-2h1.03" fill="#224c72"/><path d="M1800 1357.5V1276c0-3.3-2.7-6-6-6h-96.15c-3.3 0-6-2.7-6-6v-81.5" stroke="#224c72" stroke-width="2" fill="none"/><path d="M1801 1358.53l-.98-.03H1799v-1.03h2M1692.85 1182.53h-2v-1.03h2" fill="#224c72"/><path d="M1560 1257.5V1226c0-3.3 2.7-6 6-6h65c3.3 0 6-2.7 6-6v-31.5" stroke="#224c72" stroke-width="2" fill="none"/><path d="M1561 1258.53l-.98-.03H1559v-1.03h2M1638 1182.53h-2v-1.03h2" fill="#224c72"/><path d="M1640 1397.5V1296c0-3.3 2.7-6 6-6h16.24c3.3 0 6-2.7 6-6v-101.5" stroke="#224c72" stroke-width="2" fill="none"/><path d="M1641 1398.53l-.98-.03H1639v-1.03h2M1669.24 1182.53h-2v-1.03h2" fill="#224c72"/><path d="M1179.73 963.6c2.65-2 6.95-2 9.6 0l70.4 52.8c2.65 2 2.65 5.2 0 7.2l-70.4 52.8c-2.65 2-6.95 2-9.6 0l-70.4-52.8c-2.65-2-2.65-5.2 0-7.2z" stroke="#4881b3" stroke-width="3" fill="#f5fbff"/><use xlink:href="#ak" transform="matrix(1,0,0,1,1109.5333333333335,965) translate(60.505 59.0875)"/><path d="M1398.37 1019.92l2.53 2.53.92 3.42v88l.72 2.64 1.77 1.8 2.66.7h122.54v2h-122.8l-3.42-.92-2.53-2.53-.93-3.42v-88l-.7-2.64-1.8-1.8-2.63-.7h-122.56v-2h122.82" fill="#224c72"/><path fill="#224c72"/><path fill="#224c72"/><use xlink:href="#al" transform="matrix(1,0,0,1,1529.5,1109.2) translate(0 14.4)"/><use xlink:href="#am" transform="matrix(1,0,0,1,1262.1444583729208,1009.2) translate(0 14.4)"/><path d="M846.26 959.92l2.53 2.53.9 3.42v48l.73 2.64 1.77 1.8 2.64.7h242.08v2H854.58l-3.42-.92-2.53-2.53-.92-3.42v-48l-.7-2.64-1.78-1.8-2.64-.7H603.16v-2h239.68m-250.34 2v-2h.66v2" fill="#224c72"/><path fill="#224c72"/><path d="M592.53 961h-1.03v-2h1.03" fill="#224c72"/><use xlink:href="#am" transform="matrix(1,0,0,1,1096.922208293746,1009.2) translate(0 14.4)"/><use xlink:href="#al" transform="matrix(1,0,0,1,593.1604175434385,949.2) translate(0 14.4)"/><path d="M495.2 683.6c2.65-2 6.95-2 9.6 0l70.4 52.8c2.65 2 2.65 5.2 0 7.2l-70.4 52.8c-2.65 2-6.95 2-9.6 0l-70.4-52.8c-2.65-2-2.65-5.2 0-7.2z" stroke="#4881b3" stroke-width="3" fill="#f5fbff"/><use xlink:href="#an" transform="matrix(1,0,0,1,425,685) translate(42.055 59.0875)"/><use xlink:href="#ao" transform="matrix(1,0,0,1,425,685) translate(92.955 59.0875)"/><path d="M501 679.67h-2V642.3h2" fill="#224c72"/><path d="M501 680.7l-2-.05v-1h2" fill="#224c72"/><path fill="#224c72"/><path d="M501 877.7h-2v-77.37h2" fill="#224c72"/><path d="M501 799.35v1h-2v-1.04" fill="#224c72"/><path fill="#224c72"/><path d="M495 883.1l-1-3.1h1m10 3.1V880h1" fill="#224c72"/><use xlink:href="#al" transform="matrix(1,0,0,1,495,877.7) translate(0 14.4)"/><path d="M501 681.5h-2v-39.2h2" fill="#224c72"/><path fill="#224c72"/><path d="M500 696.76l-4.64-14.26h9.28z" fill="#224c72"/><path d="M500 700l-6-18.5h12m-9.26 2l3.26 10.03 3.26-10.03" fill="#224c72"/><use xlink:href="#am" transform="matrix(1,0,0,1,495,620.7) translate(0 14.4)"/><path d="M1460 1817.5V1786c0-3.3-2.7-6-6-6h-8c-3.3 0-6-2.7-6-6v-31.5" stroke="#224c72" stroke-width="2" fill="none"/><path d="M1461 1818.53l-.98-.03H1459v-1.03h2M1441 1742.53h-2v-1.03h2" fill="#224c72"/><path d="M1557.5 1880H1546c-3.3 0-6-2.7-6-6v-205c0-3.3-2.7-6-6-6h-11.5" stroke="#224c72" stroke-width="2" fill="none"/><path d="M1558.5 1879.98v.22l.03.8h-1.06v-2h1.06M1522.53 1664h-1.03v-2h1.03" fill="#224c72"/><path d="M2442.5 2100h33c3.3 0 6-2.7 6-6v-48c0-3.3-2.7-6-6-6h-445c-3.3 0-6-2.7-6-6v-68c0-3.3 2.7-6 6-6h33" stroke="#224c72" stroke-width="2" fill="none"/><path d="M2442.53 2101h-1.06l.03-.98v-.22l-.03-.8h1.06M2064.5 1961h-1.03v-2h1.03" fill="#224c72"/><path d="M2166 1802.5v95" stroke="#224c72" stroke-width="2" fill="none"/><path d="M2165.98 1801.5h1.02v1.03h-2v-1.06M2167 1898.5h-2v-1.03h2" fill="#224c72"/><path d="M1697.5 2120H1626c-3.3 0-6 2.7-6 6v71.5" stroke="#224c72" stroke-width="2" fill="none"/><path d="M1698.5 2119.98v.22l.03.8h-1.06v-2h1.06M1621 2198.5h-2v-1.03h2" fill="#224c72"/><path d="M1797.5 2240h-75" stroke="#224c72" stroke-width="2" fill="none"/><path d="M1798.5 2239.98v.22l.03.8h-1.06v-2h1.06M1722.53 2241h-1.03v-2h1.03" fill="#224c72"/><path d="M1797.5 2400h-73.08c-3.32 0-6-2.7-6-6v-73.08" stroke="#224c72" stroke-width="2" fill="none"/><path d="M1798.5 2399.98v.22l.03.8h-1.06v-2h1.06M1719.42 2320.94h-2v-.3l.4-.12 1.6-1.6" fill="#224c72"/><path d="M1660 2397.5v-75" stroke="#224c72" stroke-width="2" fill="none"/><path d="M1661 2398.53l-.98-.03H1659v-1.03h2M1661 2322.53h-2v-1.03h2" fill="#224c72"/><path d="M737.5 1980h-55" stroke="#224c72" stroke-width="2" fill="none"/><path d="M738.5 1979.98v.22l.03.8h-1.06v-2h1.06M682.53 1981h-1.03v-2h1.03" fill="#224c72"/><path d="M1057.5 2080H876c-3.3 0-6-2.7-6-6v-49.94c0-3.3-2.7-6-6-6H682.5" stroke="#224c72" stroke-width="2" fill="none"/><path d="M1058.5 2079.98v.22l.03.8h-1.06v-2h1.06M682.53 2019.06h-1.03v-2h1.03" fill="#224c72"/><path d="M401 1961.5h116.5" stroke="#224c72" stroke-width="2" fill="none"/><path fill="#224c72"/><path d="M518.5 1962.5h-1.03v-2h1.03" fill="#224c72"/><path d="M380 2057.5V1986c0-3.3 2.7-6 6-6h131.5" stroke="#224c72" stroke-width="2" fill="none"/><path d="M381 2058.53l-.98-.03H379v-1.03h2M518.5 1981h-1.03v-2h1.03" fill="#224c72"/><path d="M580 2137.5v-95" stroke="#224c72" stroke-width="2" fill="none"/><path d="M581 2138.53l-.98-.03H579v-1.03h2M581 2042.53h-2v-1.03h2" fill="#224c72"/><path d="M760 2077.5V2006c0-3.3-2.7-6-6-6h-71.5" stroke="#224c72" stroke-width="2" fill="none"/><path d="M761 2078.53l-.98-.03H759v-1.03h2M682.53 2001h-1.03v-2h1.03" fill="#224c72"/><path d="M900 2177.5V2116c0-3.3-2.7-6-6-6H659.82c-3.3 0-6-2.7-6-6v-61.5" stroke="#224c72" stroke-width="2" fill="none"/><path d="M901 2178.53l-.98-.03H899v-1.03h2M654.82 2042.53h-2v-1.03h2" fill="#224c72"/><path d="M2520 736.63v44.44c0 3.3-2.7 6-6 6h-90.87c-3.3 0-6 2.68-6 6v44.43" stroke="#224c72" stroke-width="2" fill="none"/><path d="M2519.98 735.63h1.02v1.03h-2v-1.06M2418.13 838.5h-2v-1.03h2" fill="#224c72"/><path d="M2577.5 880h-35" stroke="#224c72" stroke-width="2" fill="none"/><path d="M2578.5 879.98v.22l.03.8h-1.06v-2h1.06M2542.53 881h-1.03v-2h1.03" fill="#224c72"/><path d="M2467.5 1460H2421c-3.3 0-6-2.7-6-6v-148c0-3.3-2.7-6-6-6h-46.5" stroke="#224c72" stroke-width="2" fill="none"/><path d="M2468.5 1459.98v.22l.03.8h-1.06v-2h1.06M2362.53 1301h-1.03v-2h1.03" fill="#224c72"/><path d="M2360 1477.5V1426c0-3.3-2.7-6-6-6h-78c-3.3 0-6-2.7-6-6v-51.5" stroke="#224c72" stroke-width="2" fill="none"/><path d="M2361 1478.53l-.98-.03H2359v-1.03h2M2271 1362.53h-2v-1.03h2" fill="#224c72"/><path d="M2415.2 1063.6c2.65-2 6.95-2 9.6 0l70.4 52.8c2.65 2 2.65 5.2 0 7.2l-70.4 52.8c-2.65 2-6.95 2-9.6 0l-70.4-52.8c-2.65-2-2.65-5.2 0-7.2z" stroke="#4881b3" stroke-width="3" fill="#f5fbff"/><use xlink:href="#an" transform="matrix(1,0,0,1,2345,1065) translate(42.055 59.0875)"/><use xlink:href="#ao" transform="matrix(1,0,0,1,2345,1065) translate(92.955 59.0875)"/><path d="M2420 1059.67V962.5" stroke="#224c72" stroke-width="2" fill="none"/><path d="M2421 1060.7l-2-.05v-1h2M2421 962.53h-2v-1.03h2" fill="#224c72"/><path d="M2420 1180.33v22.58c0 3.33-2.7 6-6 6h-138c-3.3 0-6 2.7-6 6v22.6" stroke="#224c72" stroke-width="2" fill="none"/><path d="M2421 1179.35v1h-2v-1.04M2271 1238.5h-2v-1.03h2" fill="#224c72"/><path d="M2075.2 1063.6c2.65-2 6.95-2 9.6 0l70.4 52.8c2.65 2 2.65 5.2 0 7.2l-70.4 52.8c-2.65 2-6.95 2-9.6 0l-70.4-52.8c-2.65-2-2.65-5.2 0-7.2z" stroke="#4881b3" stroke-width="3" fill="#f5fbff"/><use xlink:href="#ak" transform="matrix(1,0,0,1,2005,1065) translate(60.505 59.0875)"/><path d="M2000.4 1120h-297.9" stroke="#224c72" stroke-width="2" fill="none"/><path d="M2001.28 1119.4l.28 1.6h-1.2v-2h1.1" fill="#224c72"/><path d="M1702.53 1120h-1.03M2159.6 1120h2.96c3.3 0 6 2.7 6 6v168c0 3.3 2.68 6 6 6h2.94" stroke="#224c72" stroke-width="2" fill="none"/><path d="M2159.64 1121h-1.1l.18-.4-.28-1.6h1.2M2178.5 1301h-1.03v-2h1.03" fill="#224c72"/><path d="M1875.2 1763.6c2.65-2 6.95-2 9.6 0l70.4 52.8c2.65 2 2.65 5.2 0 7.2l-70.4 52.8c-2.65 2-6.95 2-9.6 0l-70.4-52.8c-2.65-2-2.65-5.2 0-7.2z" stroke="#4881b3" stroke-width="3" fill="#f5fbff"/><use xlink:href="#ap" transform="matrix(1,0,0,1,1805,1765) translate(39.555 59.0875)"/><use xlink:href="#aq" transform="matrix(1,0,0,1,1805,1765) translate(91.45500000000001 59.0875)"/><path d="M1800.4 1820h-132.96c-3.3 0-6-2.7-6-6v-173.84c0-3.3-2.68-6-6-6H1522.5" stroke="#224c72" stroke-width="2" fill="none"/><path d="M1801.28 1819.4l.28 1.6h-1.2v-2h1.1M1522.53 1635.16h-1.03v-2h1.03" fill="#224c72"/><path d="M1959.6 1820h45.96c3.3 0 6 2.7 6 6v93.9c0 3.3 2.68 6 6 6h45.94" stroke="#224c72" stroke-width="2" fill="none"/><path d="M1959.64 1821h-1.1l.18-.4-.28-1.6h1.2M2064.5 1926.9h-1.03v-2h1.03" fill="#224c72"/><path d="M945.2 2363.6c2.65-2 6.95-2 9.6 0l70.4 52.8c2.65 2 2.65 5.2 0 7.2l-70.4 52.8c-2.65 2-6.95 2-9.6 0l-70.4-52.8c-2.65-2-2.65-5.2 0-7.2z" stroke="#4881b3" stroke-width="3" fill="#f5fbff"/><use xlink:href="#ak" transform="matrix(1,0,0,1,875,2365) translate(60.505 59.0875)"/><path d="M1029.6 2420h257.96c3.3 0 6-2.7 6-6v-148c0-3.3 2.68-6 6-6h257.94" stroke="#224c72" stroke-width="2" fill="none"/><path d="M1029.64 2421h-1.1l.18-.4-.28-1.6h1.2M1558.5 2261h-1.03v-2h1.03" fill="#224c72"/><path d="M870.4 2420H631.07c-3.32 0-6-2.7-6-6v-371.5" stroke="#224c72" stroke-width="2" fill="none"/><path d="M871.28 2419.4l.28 1.6h-1.2v-2h1.1M626.08 2042.53h-2v-1.03h2" fill="#224c72"/><path d="M1355.2 2003.6c2.65-2 6.95-2 9.6 0l70.4 52.8c2.65 2 2.65 5.2 0 7.2l-70.4 52.8c-2.65 2-6.95 2-9.6 0l-70.4-52.8c-2.65-2-2.65-5.2 0-7.2z" stroke="#4881b3" stroke-width="3" fill="#f5fbff"/><use xlink:href="#ak" transform="matrix(1,0,0,1,1285,2005) translate(60.505 59.0875)"/><path d="M1360 2120.33v93.6c0 3.3 2.7 6 6 6h191.5" stroke="#224c72" stroke-width="2" fill="none"/><path d="M1361 2119.35v1h-2v-1.04M1558.5 2220.92h-1.03v-2h1.03M1361 1999.67h-2V1880.3h2m0-21.6h-2v-119.37h2" fill="#224c72"/><path d="M1361 2000.7l-2-.05v-1h2M1359.48 1737.8l1.52 1.53-2 .03v-3.3" fill="#224c72"/><use xlink:href="#ar" transform="matrix(1,0,0,1,1348.525,1858.7005136899074) translate(0 14.4)"/><path d="M755.2 1603.6c2.65-2 6.95-2 9.6 0l70.4 52.8c2.65 2 2.65 5.2 0 7.2l-70.4 52.8c-2.65 2-6.95 2-9.6 0l-70.4-52.8c-2.65-2-2.65-5.2 0-7.2z" stroke="#4881b3" stroke-width="3" fill="#f5fbff"/><use xlink:href="#ap" transform="matrix(1,0,0,1,685,1605) translate(39.055 59.0875)"/><use xlink:href="#as" transform="matrix(1,0,0,1,685,1605) translate(90.95500000000001 59.0875)"/><path d="M839.6 1660h517.9" stroke="#224c72" stroke-width="2" fill="none"/><path d="M839.64 1661h-1.1l.18-.4-.28-1.6h1.2M1358.5 1661h-1.03v-2h1.03M418.48 618.8H385.6l-2.63.72-1.78 1.78-.72 2.64v1029.93l.7 2.64 1.8 1.8 2.63.7h294.8v2H385.33l-3.4-.92-2.54-2.53-.92-3.42V623.67l.92-3.4 2.53-2.54 3.4-.92h33.15" fill="#224c72"/><path d="M681.28 1659.4l.28 1.6h-1.2v-2h1.1M419.48 617.8l1 1h-2.03v-2h.76" fill="#224c72"/><defs><path fill="#1d262b" d="M185-189c-5-48-123-54-124 2 14 75 158 14 163 119 3 78-121 87-175 55-17-10-28-26-33-46l33-7c5 56 141 63 141-1 0-78-155-14-162-118-5-82 145-84 179-34 5 7 8 16 11 25" id="at"/><path fill="#1d262b" d="M106-169C34-169 62-67 57 0H25v-261h32l-1 103c12-21 28-36 61-36 89 0 53 116 60 194h-32v-121c2-32-8-49-39-48" id="au"/><path fill="#1d262b" d="M24-231v-30h32v30H24zM24 0v-190h32V0H24" id="av"/><path fill="#1d262b" d="M115-194c55 1 70 41 70 98S169 2 115 4C84 4 66-9 55-30l1 105H24l-1-265h31l2 30c10-21 28-34 59-34zm-8 174c40 0 45-34 45-75s-6-73-45-74c-42 0-51 32-51 76 0 43 10 73 51 73" id="aw"/><g id="a"><use transform="matrix(0.05,0,0,0.05,0,0)" xlink:href="#at"/><use transform="matrix(0.05,0,0,0.05,12,0)" xlink:href="#au"/><use transform="matrix(0.05,0,0,0.05,22,0)" xlink:href="#av"/><use transform="matrix(0.05,0,0,0.05,25.950000000000003,0)" xlink:href="#aw"/></g><path fill="#1d262b" d="M210-169c-67 3-38 105-44 169h-31v-121c0-29-5-50-35-48C34-165 62-65 56 0H25l-1-190h30c1 10-1 24 2 32 10-44 99-50 107 0 11-21 27-35 58-36 85-2 47 119 55 194h-31v-121c0-29-5-49-35-48" id="ax"/><path fill="#1d262b" d="M135-143c-3-34-86-38-87 0 15 53 115 12 119 90S17 21 10-45l28-5c4 36 97 45 98 0-10-56-113-15-118-90-4-57 82-63 122-42 12 7 21 19 24 35" id="ay"/><g id="b"><use transform="matrix(0.05,0,0,0.05,0,0)" xlink:href="#ax"/><use transform="matrix(0.05,0,0,0.05,14.950000000000001,0)" xlink:href="#ax"/><use transform="matrix(0.05,0,0,0.05,29.900000000000002,0)" xlink:href="#ay"/><use transform="matrix(0.05,0,0,0.05,38.900000000000006,0)" xlink:href="#av"/></g><path fill="#1d262b" d="M96-169c-40 0-48 33-48 73s9 75 48 75c24 0 41-14 43-38l32 2c-6 37-31 61-74 61-59 0-76-41-82-99-10-93 101-131 147-64 4 7 5 14 7 22l-32 3c-4-21-16-35-41-35" id="az"/><path fill="#1d262b" d="M141-36C126-15 110 5 73 4 37 3 15-17 15-53c-1-64 63-63 125-63 3-35-9-54-41-54-24 1-41 7-42 31l-33-3c5-37 33-52 76-52 45 0 72 20 72 64v82c-1 20 7 32 28 27v20c-31 9-61-2-59-35zM48-53c0 20 12 33 32 33 41-3 63-29 60-74-43 2-92-5-92 41" id="aA"/><path fill="#1d262b" d="M24 0v-261h32V0H24" id="aB"/><path fill="#1d262b" d="M-5 72V49h209v23H-5" id="aC"/><path fill="#1d262b" d="M177-190C167-65 218 103 67 71c-23-6-38-20-44-43l32-5c15 47 100 32 89-28v-30C133-14 115 1 83 1 29 1 15-40 15-95c0-56 16-97 71-98 29-1 48 16 59 35 1-10 0-23 2-32h30zM94-22c36 0 50-32 50-73 0-42-14-75-50-75-39 0-46 34-46 75s6 73 46 73" id="aD"/><path fill="#1d262b" d="M117-194c89-4 53 116 60 194h-32v-121c0-31-8-49-39-48C34-167 62-67 57 0H25l-1-190h30c1 10-1 24 2 32 11-22 29-35 61-36" id="aE"/><g id="c"><use transform="matrix(0.05,0,0,0.05,0,0)" xlink:href="#az"/><use transform="matrix(0.05,0,0,0.05,9,0)" xlink:href="#aA"/><use transform="matrix(0.05,0,0,0.05,19,0)" xlink:href="#aB"/><use transform="matrix(0.05,0,0,0.05,22.95,0)" xlink:href="#aB"/><use transform="matrix(0.05,0,0,0.05,26.899999999999995,0)" xlink:href="#aC"/><use transform="matrix(0.05,0,0,0.05,36.9,0)" xlink:href="#ay"/><use transform="matrix(0.05,0,0,0.05,45.9,0)" xlink:href="#av"/><use transform="matrix(0.05,0,0,0.05,49.85,0)" xlink:href="#aD"/><use transform="matrix(0.05,0,0,0.05,59.85,0)" xlink:href="#aE"/></g><path fill="#1d262b" d="M100-194c63 0 86 42 84 106H49c0 40 14 67 53 68 26 1 43-12 49-29l28 8c-11 28-37 45-77 45C44 4 14-33 15-96c1-61 26-98 85-98zm52 81c6-60-76-77-97-28-3 7-6 17-6 28h103" id="aF"/><g id="d"><use transform="matrix(0.05,0,0,0.05,0,0)" xlink:href="#ay"/><use transform="matrix(0.05,0,0,0.05,9,0)" xlink:href="#au"/><use transform="matrix(0.05,0,0,0.05,19,0)" xlink:href="#av"/><use transform="matrix(0.05,0,0,0.05,22.95,0)" xlink:href="#aw"/><use transform="matrix(0.05,0,0,0.05,32.95,0)" xlink:href="#aC"/><use transform="matrix(0.05,0,0,0.05,42.95,0)" xlink:href="#aE"/><use transform="matrix(0.05,0,0,0.05,52.95,0)" xlink:href="#aA"/><use transform="matrix(0.05,0,0,0.05,62.95,0)" xlink:href="#ax"/><use transform="matrix(0.05,0,0,0.05,77.9,0)" xlink:href="#aF"/></g><path fill="#1d262b" d="M114-163C36-179 61-72 57 0H25l-1-190h30c1 12-1 29 2 39 6-27 23-49 58-41v29" id="aG"/><path fill="#1d262b" d="M179-190L93 31C79 59 56 82 12 73V49c39 6 53-20 64-50L1-190h34L92-34l54-156h33" id="aH"/><g id="e"><use transform="matrix(0.05,0,0,0.05,0,0)" xlink:href="#aE"/><use transform="matrix(0.05,0,0,0.05,10,0)" xlink:href="#aG"/><use transform="matrix(0.05,0,0,0.05,15.949999999999998,0)" xlink:href="#aC"/><use transform="matrix(0.05,0,0,0.05,25.950000000000003,0)" xlink:href="#aF"/><use transform="matrix(0.05,0,0,0.05,35.95,0)" xlink:href="#aE"/><use transform="matrix(0.05,0,0,0.05,45.95,0)" xlink:href="#aF"/><use transform="matrix(0.05,0,0,0.05,55.95,0)" xlink:href="#aG"/><use transform="matrix(0.05,0,0,0.05,61.900000000000006,0)" xlink:href="#aD"/><use transform="matrix(0.05,0,0,0.05,71.9,0)" xlink:href="#aH"/><use transform="matrix(0.05,0,0,0.05,80.9,0)" xlink:href="#aC"/><use transform="matrix(0.05,0,0,0.05,90.9,0)" xlink:href="#aD"/><use transform="matrix(0.05,0,0,0.05,100.9,0)" xlink:href="#aF"/><use transform="matrix(0.05,0,0,0.05,110.9,0)" xlink:href="#aE"/><use transform="matrix(0.05,0,0,0.05,120.9,0)" xlink:href="#ay"/></g><path fill="#1d262b" d="M100-194c62-1 85 37 85 99 1 63-27 99-86 99S16-35 15-95c0-66 28-99 85-99zM99-20c44 1 53-31 53-75 0-43-8-75-51-75s-53 32-53 75 10 74 51 75" id="aI"/><g id="f"><use transform="matrix(0.05,0,0,0.05,0,0)" xlink:href="#aD"/><use transform="matrix(0.05,0,0,0.05,10,0)" xlink:href="#aF"/><use transform="matrix(0.05,0,0,0.05,20,0)" xlink:href="#aE"/><use transform="matrix(0.05,0,0,0.05,30,0)" xlink:href="#aC"/><use transform="matrix(0.05,0,0,0.05,40,0)" xlink:href="#aw"/><use transform="matrix(0.05,0,0,0.05,50,0)" xlink:href="#aI"/></g><path fill="#1d262b" d="M59-47c-2 24 18 29 38 22v24C64 9 27 4 27-40v-127H5v-23h24l9-43h21v43h35v23H59v120" id="aJ"/><g id="g"><use transform="matrix(0.05,0,0,0.05,0,0)" xlink:href="#aB"/><use transform="matrix(0.05,0,0,0.05,3.95,0)" xlink:href="#aF"/><use transform="matrix(0.05,0,0,0.05,13.949999999999998,0)" xlink:href="#aE"/><use transform="matrix(0.05,0,0,0.05,23.95,0)" xlink:href="#aD"/><use transform="matrix(0.05,0,0,0.05,33.95,0)" xlink:href="#au"/><use transform="matrix(0.05,0,0,0.05,43.95,0)" xlink:href="#aJ"/></g><path fill="#1d262b" d="M206 0h-36l-40-164L89 0H53L-1-190h32L70-26l43-164h34l41 164 42-164h31" id="aK"/><g id="h"><use transform="matrix(0.05,0,0,0.05,0,0)" xlink:href="#aK"/><use transform="matrix(0.05,0,0,0.05,12.950000000000001,0)" xlink:href="#av"/><use transform="matrix(0.05,0,0,0.05,16.900000000000002,0)" xlink:href="#aD"/><use transform="matrix(0.05,0,0,0.05,26.900000000000002,0)" xlink:href="#au"/><use transform="matrix(0.05,0,0,0.05,36.900000000000006,0)" xlink:href="#aJ"/></g><g id="i"><use transform="matrix(0.05,0,0,0.05,0,0)" xlink:href="#az"/><use transform="matrix(0.05,0,0,0.05,9,0)" xlink:href="#aA"/><use transform="matrix(0.05,0,0,0.05,19,0)" xlink:href="#aw"/><use transform="matrix(0.05,0,0,0.05,29,0)" xlink:href="#aA"/><use transform="matrix(0.05,0,0,0.05,39,0)" xlink:href="#az"/><use transform="matrix(0.05,0,0,0.05,48,0)" xlink:href="#av"/><use transform="matrix(0.05,0,0,0.05,51.95,0)" xlink:href="#aJ"/><use transform="matrix(0.05,0,0,0.05,56.95,0)" xlink:href="#aH"/></g><path fill="#1d262b" d="M85-194c31 0 48 13 60 33l-1-100h32l1 261h-30c-2-10 0-23-3-31C134-8 116 4 85 4 32 4 16-35 15-94c0-66 23-100 70-100zm9 24c-40 0-46 34-46 75 0 40 6 74 45 74 42 0 51-32 51-76 0-42-9-74-50-73" id="aL"/><path fill="#1d262b" d="M101-234c-31-9-42 10-38 44h38v23H63V0H32v-167H5v-23h27c-7-52 17-82 69-68v24" id="aM"/><g id="j"><use transform="matrix(0.05,0,0,0.05,0,0)" xlink:href="#aL"/><use transform="matrix(0.05,0,0,0.05,10,0)" xlink:href="#aG"/><use transform="matrix(0.05,0,0,0.05,15.949999999999998,0)" xlink:href="#aA"/><use transform="matrix(0.05,0,0,0.05,25.950000000000003,0)" xlink:href="#aM"/><use transform="matrix(0.05,0,0,0.05,30.950000000000003,0)" xlink:href="#aJ"/></g><path fill="#1d262b" d="M108 0H70L1-190h34L89-25l56-165h34" id="aN"/><path fill="#1d262b" d="M127-220V0H93v-220H8v-28h204v28h-85" id="aO"/><g id="k"><use transform="matrix(0.05,0,0,0.05,0,0)" xlink:href="#aN"/><use transform="matrix(0.05,0,0,0.05,9,0)" xlink:href="#aF"/><use transform="matrix(0.05,0,0,0.05,19,0)" xlink:href="#ay"/><use transform="matrix(0.05,0,0,0.05,28,0)" xlink:href="#ay"/><use transform="matrix(0.05,0,0,0.05,37,0)" xlink:href="#aF"/><use transform="matrix(0.05,0,0,0.05,47,0)" xlink:href="#aB"/><use transform="matrix(0.05,0,0,0.05,50.95,0)" xlink:href="#aO"/><use transform="matrix(0.05,0,0,0.05,60.900000000000006,0)" xlink:href="#aH"/><use transform="matrix(0.05,0,0,0.05,69.9,0)" xlink:href="#aw"/><use transform="matrix(0.05,0,0,0.05,79.9,0)" xlink:href="#aF"/></g><g id="l"><use transform="matrix(0.05,0,0,0.05,0,0)" xlink:href="#ay"/><use transform="matrix(0.05,0,0,0.05,9,0)" xlink:href="#au"/><use transform="matrix(0.05,0,0,0.05,19,0)" xlink:href="#av"/><use transform="matrix(0.05,0,0,0.05,22.95,0)" xlink:href="#aw"/><use transform="matrix(0.05,0,0,0.05,32.95,0)" xlink:href="#aC"/><use transform="matrix(0.05,0,0,0.05,42.95,0)" xlink:href="#aL"/><use transform="matrix(0.05,0,0,0.05,52.95,0)" xlink:href="#aA"/><use transform="matrix(0.05,0,0,0.05,62.95,0)" xlink:href="#aJ"/><use transform="matrix(0.05,0,0,0.05,67.95,0)" xlink:href="#aA"/></g><g id="m"><use transform="matrix(0.05,0,0,0.05,0,0)" xlink:href="#ay"/><use transform="matrix(0.05,0,0,0.05,9,0)" xlink:href="#au"/><use transform="matrix(0.05,0,0,0.05,19,0)" xlink:href="#av"/><use transform="matrix(0.05,0,0,0.05,22.95,0)" xlink:href="#aw"/><use transform="matrix(0.05,0,0,0.05,32.95,0)" xlink:href="#aC"/><use transform="matrix(0.05,0,0,0.05,42.95,0)" xlink:href="#av"/><use transform="matrix(0.05,0,0,0.05,46.900000000000006,0)" xlink:href="#aL"/></g><g id="n"><use transform="matrix(0.05,0,0,0.05,0,0)" xlink:href="#aL"/><use transform="matrix(0.05,0,0,0.05,10,0)" xlink:href="#aA"/><use transform="matrix(0.05,0,0,0.05,20,0)" xlink:href="#aJ"/><use transform="matrix(0.05,0,0,0.05,25,0)" xlink:href="#aA"/></g><g id="o"><use transform="matrix(0.05,0,0,0.05,0,0)" xlink:href="#aJ"/><use transform="matrix(0.05,0,0,0.05,5,0)" xlink:href="#av"/><use transform="matrix(0.05,0,0,0.05,8.95,0)" xlink:href="#ax"/><use transform="matrix(0.05,0,0,0.05,23.9,0)" xlink:href="#aF"/></g><path fill="#1d262b" d="M84 4C-5 8 30-112 23-190h32v120c0 31 7 50 39 49 72-2 45-101 50-169h31l1 190h-30c-1-10 1-25-2-33-11 22-28 36-60 37" id="aP"/><g id="p"><use transform="matrix(0.05,0,0,0.05,0,0)" xlink:href="#aB"/><use transform="matrix(0.05,0,0,0.05,3.95,0)" xlink:href="#aA"/><use transform="matrix(0.05,0,0,0.05,13.949999999999998,0)" xlink:href="#aJ"/><use transform="matrix(0.05,0,0,0.05,18.95,0)" xlink:href="#av"/><use transform="matrix(0.05,0,0,0.05,22.9,0)" xlink:href="#aJ"/><use transform="matrix(0.05,0,0,0.05,27.899999999999995,0)" xlink:href="#aP"/><use transform="matrix(0.05,0,0,0.05,37.9,0)" xlink:href="#aL"/><use transform="matrix(0.05,0,0,0.05,47.9,0)" xlink:href="#aF"/></g><g id="q"><use transform="matrix(0.05,0,0,0.05,0,0)" xlink:href="#aB"/><use transform="matrix(0.05,0,0,0.05,3.95,0)" xlink:href="#aI"/><use transform="matrix(0.05,0,0,0.05,13.949999999999998,0)" xlink:href="#aE"/><use transform="matrix(0.05,0,0,0.05,23.95,0)" xlink:href="#aD"/><use transform="matrix(0.05,0,0,0.05,33.95,0)" xlink:href="#av"/><use transform="matrix(0.05,0,0,0.05,37.900000000000006,0)" xlink:href="#aJ"/><use transform="matrix(0.05,0,0,0.05,42.900000000000006,0)" xlink:href="#aP"/><use transform="matrix(0.05,0,0,0.05,52.900000000000006,0)" xlink:href="#aL"/><use transform="matrix(0.05,0,0,0.05,62.900000000000006,0)" xlink:href="#aF"/></g><g id="r"><use transform="matrix(0.05,0,0,0.05,0,0)" xlink:href="#ay"/><use transform="matrix(0.05,0,0,0.05,9,0)" xlink:href="#aD"/><use transform="matrix(0.05,0,0,0.05,19,0)" xlink:href="#aI"/></g><g id="s"><use transform="matrix(0.05,0,0,0.05,0,0)" xlink:href="#az"/><use transform="matrix(0.05,0,0,0.05,9,0)" xlink:href="#aI"/><use transform="matrix(0.05,0,0,0.05,19,0)" xlink:href="#aD"/></g><g id="t"><use transform="matrix(0.05,0,0,0.05,0,0)" xlink:href="#au"/><use transform="matrix(0.05,0,0,0.05,10,0)" xlink:href="#aF"/><use transform="matrix(0.05,0,0,0.05,20,0)" xlink:href="#aA"/><use transform="matrix(0.05,0,0,0.05,30,0)" xlink:href="#aL"/><use transform="matrix(0.05,0,0,0.05,40,0)" xlink:href="#av"/><use transform="matrix(0.05,0,0,0.05,43.95,0)" xlink:href="#aE"/><use transform="matrix(0.05,0,0,0.05,53.95,0)" xlink:href="#aD"/></g><g id="u"><use transform="matrix(0.05,0,0,0.05,0,0)" xlink:href="#az"/><use transform="matrix(0.05,0,0,0.05,9,0)" xlink:href="#aA"/><use transform="matrix(0.05,0,0,0.05,19,0)" xlink:href="#aG"/><use transform="matrix(0.05,0,0,0.05,24.95,0)" xlink:href="#aD"/><use transform="matrix(0.05,0,0,0.05,34.95,0)" xlink:href="#aI"/></g><g id="v"><use transform="matrix(0.05,0,0,0.05,0,0)" xlink:href="#aJ"/><use transform="matrix(0.05,0,0,0.05,5,0)" xlink:href="#aG"/><use transform="matrix(0.05,0,0,0.05,10.95,0)" xlink:href="#aA"/><use transform="matrix(0.05,0,0,0.05,20.95,0)" xlink:href="#aE"/><use transform="matrix(0.05,0,0,0.05,30.950000000000003,0)" xlink:href="#ay"/><use transform="matrix(0.05,0,0,0.05,39.95,0)" xlink:href="#az"/><use transform="matrix(0.05,0,0,0.05,48.95,0)" xlink:href="#aF"/><use transform="matrix(0.05,0,0,0.05,58.95,0)" xlink:href="#av"/><use transform="matrix(0.05,0,0,0.05,62.900000000000006,0)" xlink:href="#aN"/><use transform="matrix(0.05,0,0,0.05,71.9,0)" xlink:href="#aF"/><use transform="matrix(0.05,0,0,0.05,81.9,0)" xlink:href="#aG"/><use transform="matrix(0.05,0,0,0.05,87.85000000000001,0)" xlink:href="#aC"/><use transform="matrix(0.05,0,0,0.05,97.85000000000001,0)" xlink:href="#az"/><use transform="matrix(0.05,0,0,0.05,106.85000000000001,0)" xlink:href="#aB"/><use transform="matrix(0.05,0,0,0.05,110.80000000000001,0)" xlink:href="#aA"/><use transform="matrix(0.05,0,0,0.05,120.80000000000001,0)" xlink:href="#ay"/><use transform="matrix(0.05,0,0,0.05,129.8,0)" xlink:href="#ay"/></g><path fill="#1d262b" d="M143 0L79-87 56-68V0H24v-261h32v163l83-92h37l-77 82L181 0h-38" id="aQ"/><g id="w"><use transform="matrix(0.05,0,0,0.05,0,0)" xlink:href="#aJ"/><use transform="matrix(0.05,0,0,0.05,5,0)" xlink:href="#aG"/><use transform="matrix(0.05,0,0,0.05,10.95,0)" xlink:href="#aP"/><use transform="matrix(0.05,0,0,0.05,20.95,0)" xlink:href="#az"/><use transform="matrix(0.05,0,0,0.05,29.950000000000003,0)" xlink:href="#aQ"/></g><g id="x"><use transform="matrix(0.05,0,0,0.05,0,0)" xlink:href="#aw"/><use transform="matrix(0.05,0,0,0.05,10,0)" xlink:href="#aB"/><use transform="matrix(0.05,0,0,0.05,13.949999999999998,0)" xlink:href="#aA"/><use transform="matrix(0.05,0,0,0.05,23.95,0)" xlink:href="#aJ"/><use transform="matrix(0.05,0,0,0.05,28.950000000000003,0)" xlink:href="#aF"/></g><path fill="#1d262b" d="M212-179c-10-28-35-45-73-45-59 0-87 40-87 99 0 60 29 101 89 101 43 0 62-24 78-52l27 14C228-24 195 4 139 4 59 4 22-46 18-125c-6-104 99-153 187-111 19 9 31 26 39 46" id="aR"/><g id="y"><use transform="matrix(0.05,0,0,0.05,0,0)" xlink:href="#aM"/><use transform="matrix(0.05,0,0,0.05,5,0)" xlink:href="#aP"/><use transform="matrix(0.05,0,0,0.05,15,0)" xlink:href="#aF"/><use transform="matrix(0.05,0,0,0.05,25,0)" xlink:href="#aB"/><use transform="matrix(0.05,0,0,0.05,28.950000000000003,0)" xlink:href="#aR"/><use transform="matrix(0.05,0,0,0.05,41.9,0)" xlink:href="#aA"/><use transform="matrix(0.05,0,0,0.05,51.900000000000006,0)" xlink:href="#aw"/><use transform="matrix(0.05,0,0,0.05,61.900000000000006,0)" xlink:href="#aA"/><use transform="matrix(0.05,0,0,0.05,71.9,0)" xlink:href="#az"/><use transform="matrix(0.05,0,0,0.05,80.9,0)" xlink:href="#av"/><use transform="matrix(0.05,0,0,0.05,84.85000000000001,0)" xlink:href="#aJ"/><use transform="matrix(0.05,0,0,0.05,89.85000000000001,0)" xlink:href="#aH"/></g><g id="z"><use transform="matrix(0.05,0,0,0.05,0,0)" xlink:href="#aJ"/><use transform="matrix(0.05,0,0,0.05,5,0)" xlink:href="#aG"/><use transform="matrix(0.05,0,0,0.05,10.95,0)" xlink:href="#aP"/><use transform="matrix(0.05,0,0,0.05,20.95,0)" xlink:href="#az"/><use transform="matrix(0.05,0,0,0.05,29.950000000000003,0)" xlink:href="#aQ"/><use transform="matrix(0.05,0,0,0.05,38.95,0)" xlink:href="#aC"/><use transform="matrix(0.05,0,0,0.05,48.95,0)" xlink:href="#aL"/><use transform="matrix(0.05,0,0,0.05,58.95,0)" xlink:href="#aA"/><use transform="matrix(0.05,0,0,0.05,68.95,0)" xlink:href="#aJ"/><use transform="matrix(0.05,0,0,0.05,73.95,0)" xlink:href="#aA"/></g><g id="A"><use transform="matrix(0.05,0,0,0.05,0,0)" xlink:href="#aL"/><use transform="matrix(0.05,0,0,0.05,10,0)" xlink:href="#aA"/><use transform="matrix(0.05,0,0,0.05,20,0)" xlink:href="#aJ"/><use transform="matrix(0.05,0,0,0.05,25,0)" xlink:href="#aF"/></g><g id="B"><use transform="matrix(0.05,0,0,0.05,0,0)" xlink:href="#aB"/><use transform="matrix(0.05,0,0,0.05,3.95,0)" xlink:href="#aA"/><use transform="matrix(0.05,0,0,0.05,13.949999999999998,0)" xlink:href="#aJ"/></g><g id="C"><use transform="matrix(0.05,0,0,0.05,0,0)" xlink:href="#aB"/><use transform="matrix(0.05,0,0,0.05,3.95,0)" xlink:href="#aI"/><use transform="matrix(0.05,0,0,0.05,13.949999999999998,0)" xlink:href="#aD"/></g><g id="D"><use transform="matrix(0.05,0,0,0.05,0,0)" xlink:href="#aG"/><use transform="matrix(0.05,0,0,0.05,5.95,0)" xlink:href="#aI"/><use transform="matrix(0.05,0,0,0.05,15.949999999999998,0)" xlink:href="#aB"/><use transform="matrix(0.05,0,0,0.05,19.9,0)" xlink:href="#aF"/></g><g id="E"><use transform="matrix(0.05,0,0,0.05,0,0)" xlink:href="#aG"/><use transform="matrix(0.05,0,0,0.05,5.95,0)" xlink:href="#aI"/><use transform="matrix(0.05,0,0,0.05,15.949999999999998,0)" xlink:href="#aB"/><use transform="matrix(0.05,0,0,0.05,19.9,0)" xlink:href="#aF"/><use transform="matrix(0.05,0,0,0.05,29.899999999999995,0)" xlink:href="#aC"/><use transform="matrix(0.05,0,0,0.05,39.9,0)" xlink:href="#av"/><use transform="matrix(0.05,0,0,0.05,43.85,0)" xlink:href="#aL"/></g><g id="F"><use transform="matrix(0.05,0,0,0.05,0,0)" xlink:href="#aE"/><use transform="matrix(0.05,0,0,0.05,10,0)" xlink:href="#aA"/><use transform="matrix(0.05,0,0,0.05,20,0)" xlink:href="#ax"/><use transform="matrix(0.05,0,0,0.05,34.95,0)" xlink:href="#aF"/></g><g id="G"><use transform="matrix(0.05,0,0,0.05,0,0)" xlink:href="#aF"/><use transform="matrix(0.05,0,0,0.05,10,0)" xlink:href="#ax"/><use transform="matrix(0.05,0,0,0.05,24.950000000000003,0)" xlink:href="#aw"/><use transform="matrix(0.05,0,0,0.05,34.95,0)" xlink:href="#aB"/><use transform="matrix(0.05,0,0,0.05,38.900000000000006,0)" xlink:href="#aI"/><use transform="matrix(0.05,0,0,0.05,48.900000000000006,0)" xlink:href="#aH"/><use transform="matrix(0.05,0,0,0.05,57.900000000000006,0)" xlink:href="#aF"/></g><g id="H"><use transform="matrix(0.05,0,0,0.05,0,0)" xlink:href="#aF"/><use transform="matrix(0.05,0,0,0.05,10,0)" xlink:href="#ax"/><use transform="matrix(0.05,0,0,0.05,24.950000000000003,0)" xlink:href="#aw"/><use transform="matrix(0.05,0,0,0.05,34.95,0)" xlink:href="#aB"/><use transform="matrix(0.05,0,0,0.05,38.900000000000006,0)" xlink:href="#aI"/><use transform="matrix(0.05,0,0,0.05,48.900000000000006,0)" xlink:href="#aH"/><use transform="matrix(0.05,0,0,0.05,57.900000000000006,0)" xlink:href="#aF"/><use transform="matrix(0.05,0,0,0.05,67.9,0)" xlink:href="#aC"/><use transform="matrix(0.05,0,0,0.05,77.9,0)" xlink:href="#av"/><use transform="matrix(0.05,0,0,0.05,81.85000000000001,0)" xlink:href="#aL"/></g><g id="I"><use transform="matrix(0.05,0,0,0.05,0,0)" xlink:href="#aw"/><use transform="matrix(0.05,0,0,0.05,10,0)" xlink:href="#aI"/><use transform="matrix(0.05,0,0,0.05,20,0)" xlink:href="#aG"/><use transform="matrix(0.05,0,0,0.05,25.950000000000003,0)" xlink:href="#aJ"/><use transform="matrix(0.05,0,0,0.05,30.950000000000003,0)" xlink:href="#aC"/><use transform="matrix(0.05,0,0,0.05,40.95,0)" xlink:href="#aK"/><use transform="matrix(0.05,0,0,0.05,53.900000000000006,0)" xlink:href="#aA"/><use transform="matrix(0.05,0,0,0.05,63.900000000000006,0)" xlink:href="#aG"/><use transform="matrix(0.05,0,0,0.05,69.85000000000001,0)" xlink:href="#aF"/><use transform="matrix(0.05,0,0,0.05,79.85000000000001,0)" xlink:href="#au"/><use transform="matrix(0.05,0,0,0.05,89.85000000000001,0)" xlink:href="#aI"/><use transform="matrix(0.05,0,0,0.05,99.85000000000001,0)" xlink:href="#aP"/><use transform="matrix(0.05,0,0,0.05,109.85000000000001,0)" xlink:href="#ay"/><use transform="matrix(0.05,0,0,0.05,118.85000000000001,0)" xlink:href="#aF"/><use transform="matrix(0.05,0,0,0.05,128.85000000000002,0)" xlink:href="#aC"/><use transform="matrix(0.05,0,0,0.05,138.85000000000002,0)" xlink:href="#av"/><use transform="matrix(0.05,0,0,0.05,142.8,0)" xlink:href="#aL"/></g><g id="J"><use transform="matrix(0.05,0,0,0.05,0,0)" xlink:href="#aw"/><use transform="matrix(0.05,0,0,0.05,10,0)" xlink:href="#aI"/><use transform="matrix(0.05,0,0,0.05,20,0)" xlink:href="#aG"/><use transform="matrix(0.05,0,0,0.05,25.950000000000003,0)" xlink:href="#aJ"/><use transform="matrix(0.05,0,0,0.05,30.950000000000003,0)" xlink:href="#aC"/><use transform="matrix(0.05,0,0,0.05,40.95,0)" xlink:href="#aK"/><use transform="matrix(0.05,0,0,0.05,53.900000000000006,0)" xlink:href="#aA"/><use transform="matrix(0.05,0,0,0.05,63.900000000000006,0)" xlink:href="#aG"/><use transform="matrix(0.05,0,0,0.05,69.85000000000001,0)" xlink:href="#aF"/><use transform="matrix(0.05,0,0,0.05,79.85000000000001,0)" xlink:href="#au"/><use transform="matrix(0.05,0,0,0.05,89.85000000000001,0)" xlink:href="#aI"/><use transform="matrix(0.05,0,0,0.05,99.85000000000001,0)" xlink:href="#aP"/><use transform="matrix(0.05,0,0,0.05,109.85000000000001,0)" xlink:href="#ay"/><use transform="matrix(0.05,0,0,0.05,118.85000000000001,0)" xlink:href="#aF"/></g><g id="K"><use transform="matrix(0.05,0,0,0.05,0,0)" xlink:href="#az"/><use transform="matrix(0.05,0,0,0.05,9,0)" xlink:href="#aI"/><use transform="matrix(0.05,0,0,0.05,19,0)" xlink:href="#aE"/><use transform="matrix(0.05,0,0,0.05,29,0)" xlink:href="#aJ"/><use transform="matrix(0.05,0,0,0.05,34,0)" xlink:href="#av"/><use transform="matrix(0.05,0,0,0.05,37.95,0)" xlink:href="#aE"/><use transform="matrix(0.05,0,0,0.05,47.95,0)" xlink:href="#aF"/><use transform="matrix(0.05,0,0,0.05,57.95,0)" xlink:href="#aE"/><use transform="matrix(0.05,0,0,0.05,67.95,0)" xlink:href="#aJ"/></g><g id="L"><use transform="matrix(0.05,0,0,0.05,0,0)" xlink:href="#az"/><use transform="matrix(0.05,0,0,0.05,9,0)" xlink:href="#aI"/><use transform="matrix(0.05,0,0,0.05,19,0)" xlink:href="#aP"/><use transform="matrix(0.05,0,0,0.05,29,0)" xlink:href="#aE"/><use transform="matrix(0.05,0,0,0.05,39,0)" xlink:href="#aJ"/><use transform="matrix(0.05,0,0,0.05,44,0)" xlink:href="#aG"/><use transform="matrix(0.05,0,0,0.05,49.95,0)" xlink:href="#aH"/></g><g id="M"><use transform="matrix(0.05,0,0,0.05,0,0)" xlink:href="#aJ"/><use transform="matrix(0.05,0,0,0.05,5,0)" xlink:href="#aH"/><use transform="matrix(0.05,0,0,0.05,14,0)" xlink:href="#aw"/><use transform="matrix(0.05,0,0,0.05,24,0)" xlink:href="#aF"/></g><g id="N"><use transform="matrix(0.05,0,0,0.05,0,0)" xlink:href="#aF"/><use transform="matrix(0.05,0,0,0.05,10,0)" xlink:href="#ax"/><use transform="matrix(0.05,0,0,0.05,24.950000000000003,0)" xlink:href="#aw"/><use transform="matrix(0.05,0,0,0.05,34.95,0)" xlink:href="#aw"/><use transform="matrix(0.05,0,0,0.05,44.95,0)" xlink:href="#aB"/><use transform="matrix(0.05,0,0,0.05,48.900000000000006,0)" xlink:href="#aI"/><use transform="matrix(0.05,0,0,0.05,58.900000000000006,0)" xlink:href="#aH"/><use transform="matrix(0.05,0,0,0.05,67.9,0)" xlink:href="#aF"/><use transform="matrix(0.05,0,0,0.05,77.9,0)" xlink:href="#aC"/><use transform="matrix(0.05,0,0,0.05,87.9,0)" xlink:href="#ay"/><use transform="matrix(0.05,0,0,0.05,96.9,0)" xlink:href="#az"/><use transform="matrix(0.05,0,0,0.05,105.9,0)" xlink:href="#au"/><use transform="matrix(0.05,0,0,0.05,115.9,0)" xlink:href="#aF"/><use transform="matrix(0.05,0,0,0.05,125.9,0)" xlink:href="#aL"/><use transform="matrix(0.05,0,0,0.05,135.9,0)" xlink:href="#aP"/><use transform="matrix(0.05,0,0,0.05,145.9,0)" xlink:href="#aB"/><use transform="matrix(0.05,0,0,0.05,149.85,0)" xlink:href="#aF"/></g><g id="O"><use transform="matrix(0.05,0,0,0.05,0,0)" xlink:href="#au"/><use transform="matrix(0.05,0,0,0.05,10,0)" xlink:href="#aI"/><use transform="matrix(0.05,0,0,0.05,20,0)" xlink:href="#aP"/><use transform="matrix(0.05,0,0,0.05,30,0)" xlink:href="#aG"/></g><g id="P"><use transform="matrix(0.05,0,0,0.05,0,0)" xlink:href="#aL"/><use transform="matrix(0.05,0,0,0.05,10,0)" xlink:href="#aA"/><use transform="matrix(0.05,0,0,0.05,20,0)" xlink:href="#aH"/><use transform="matrix(0.05,0,0,0.05,29,0)" xlink:href="#aC"/><use transform="matrix(0.05,0,0,0.05,39,0)" xlink:href="#aI"/><use transform="matrix(0.05,0,0,0.05,49,0)" xlink:href="#aM"/><use transform="matrix(0.05,0,0,0.05,54,0)" xlink:href="#aC"/><use transform="matrix(0.05,0,0,0.05,64,0)" xlink:href="#aJ"/><use transform="matrix(0.05,0,0,0.05,69,0)" xlink:href="#au"/><use transform="matrix(0.05,0,0,0.05,79,0)" xlink:href="#aF"/><use transform="matrix(0.05,0,0,0.05,89,0)" xlink:href="#aC"/><use transform="matrix(0.05,0,0,0.05,99,0)" xlink:href="#aK"/><use transform="matrix(0.05,0,0,0.05,111.95,0)" xlink:href="#aF"/><use transform="matrix(0.05,0,0,0.05,121.95,0)" xlink:href="#aF"/><use transform="matrix(0.05,0,0,0.05,131.95,0)" xlink:href="#aQ"/></g><g id="Q"><use transform="matrix(0.05,0,0,0.05,0,0)" xlink:href="#az"/><use transform="matrix(0.05,0,0,0.05,9,0)" xlink:href="#aI"/><use transform="matrix(0.05,0,0,0.05,19,0)" xlink:href="#aE"/><use transform="matrix(0.05,0,0,0.05,29,0)" xlink:href="#aJ"/><use transform="matrix(0.05,0,0,0.05,34,0)" xlink:href="#aA"/><use transform="matrix(0.05,0,0,0.05,44,0)" xlink:href="#av"/><use transform="matrix(0.05,0,0,0.05,47.95,0)" xlink:href="#aE"/><use transform="matrix(0.05,0,0,0.05,57.95,0)" xlink:href="#aF"/><use transform="matrix(0.05,0,0,0.05,67.95,0)" xlink:href="#aG"/></g><g id="R"><use transform="matrix(0.05,0,0,0.05,0,0)" xlink:href="#az"/><use transform="matrix(0.05,0,0,0.05,9,0)" xlink:href="#aI"/><use transform="matrix(0.05,0,0,0.05,19,0)" xlink:href="#aE"/><use transform="matrix(0.05,0,0,0.05,29,0)" xlink:href="#aJ"/><use transform="matrix(0.05,0,0,0.05,34,0)" xlink:href="#aA"/><use transform="matrix(0.05,0,0,0.05,44,0)" xlink:href="#av"/><use transform="matrix(0.05,0,0,0.05,47.95,0)" xlink:href="#aE"/><use transform="matrix(0.05,0,0,0.05,57.95,0)" xlink:href="#aF"/><use transform="matrix(0.05,0,0,0.05,67.95,0)" xlink:href="#aG"/><use transform="matrix(0.05,0,0,0.05,73.9,0)" xlink:href="#aC"/><use transform="matrix(0.05,0,0,0.05,83.9,0)" xlink:href="#av"/><use transform="matrix(0.05,0,0,0.05,87.85000000000001,0)" xlink:href="#aL"/></g><g id="S"><use transform="matrix(0.05,0,0,0.05,0,0)" xlink:href="#av"/><use transform="matrix(0.05,0,0,0.05,3.95,0)" xlink:href="#ay"/><use transform="matrix(0.05,0,0,0.05,12.949999999999998,0)" xlink:href="#aI"/><use transform="matrix(0.05,0,0,0.05,22.95,0)" xlink:href="#aC"/><use transform="matrix(0.05,0,0,0.05,32.95,0)" xlink:href="#az"/><use transform="matrix(0.05,0,0,0.05,41.95,0)" xlink:href="#aI"/><use transform="matrix(0.05,0,0,0.05,51.95,0)" xlink:href="#aL"/><use transform="matrix(0.05,0,0,0.05,61.95,0)" xlink:href="#aF"/></g><g id="T"><use transform="matrix(0.05,0,0,0.05,0,0)" xlink:href="#az"/><use transform="matrix(0.05,0,0,0.05,9,0)" xlink:href="#au"/><use transform="matrix(0.05,0,0,0.05,19,0)" xlink:href="#aF"/><use transform="matrix(0.05,0,0,0.05,29,0)" xlink:href="#az"/><use transform="matrix(0.05,0,0,0.05,38,0)" xlink:href="#aQ"/><use transform="matrix(0.05,0,0,0.05,47,0)" xlink:href="#aC"/><use transform="matrix(0.05,0,0,0.05,57,0)" xlink:href="#aL"/><use transform="matrix(0.05,0,0,0.05,67,0)" xlink:href="#av"/><use transform="matrix(0.05,0,0,0.05,70.95,0)" xlink:href="#aD"/><use transform="matrix(0.05,0,0,0.05,80.95,0)" xlink:href="#av"/><use transform="matrix(0.05,0,0,0.05,84.9,0)" xlink:href="#aJ"/></g><path fill="#1d262b" d="M141 0L90-78 38 0H4l68-98-65-92h35l48 74 47-74h35l-64 92 68 98h-35" id="aS"/><g id="U"><use transform="matrix(0.05,0,0,0.05,0,0)" xlink:href="#ax"/><use transform="matrix(0.05,0,0,0.05,14.950000000000001,0)" xlink:href="#aA"/><use transform="matrix(0.05,0,0,0.05,24.950000000000003,0)" xlink:href="#aS"/><use transform="matrix(0.05,0,0,0.05,33.95,0)" xlink:href="#aC"/><use transform="matrix(0.05,0,0,0.05,43.95,0)" xlink:href="#au"/><use transform="matrix(0.05,0,0,0.05,53.95,0)" xlink:href="#aF"/><use transform="matrix(0.05,0,0,0.05,63.95,0)" xlink:href="#av"/><use transform="matrix(0.05,0,0,0.05,67.9,0)" xlink:href="#aD"/><use transform="matrix(0.05,0,0,0.05,77.9,0)" xlink:href="#au"/><use transform="matrix(0.05,0,0,0.05,87.9,0)" xlink:href="#aJ"/><use transform="matrix(0.05,0,0,0.05,92.9,0)" xlink:href="#aC"/><use transform="matrix(0.05,0,0,0.05,102.9,0)" xlink:href="#az"/></g><g id="V"><use transform="matrix(0.05,0,0,0.05,0,0)" xlink:href="#aK"/><use transform="matrix(0.05,0,0,0.05,12.950000000000001,0)" xlink:href="#aF"/><use transform="matrix(0.05,0,0,0.05,22.950000000000003,0)" xlink:href="#av"/><use transform="matrix(0.05,0,0,0.05,26.900000000000002,0)" xlink:href="#aD"/><use transform="matrix(0.05,0,0,0.05,36.900000000000006,0)" xlink:href="#au"/><use transform="matrix(0.05,0,0,0.05,46.900000000000006,0)" xlink:href="#aJ"/><use transform="matrix(0.05,0,0,0.05,51.900000000000006,0)" xlink:href="#aC"/><use transform="matrix(0.05,0,0,0.05,61.900000000000006,0)" xlink:href="#az"/></g><g id="W"><use transform="matrix(0.05,0,0,0.05,0,0)" xlink:href="#ax"/><use transform="matrix(0.05,0,0,0.05,14.950000000000001,0)" xlink:href="#aA"/><use transform="matrix(0.05,0,0,0.05,24.950000000000003,0)" xlink:href="#aS"/><use transform="matrix(0.05,0,0,0.05,33.95,0)" xlink:href="#aC"/><use transform="matrix(0.05,0,0,0.05,43.95,0)" xlink:href="#aN"/><use transform="matrix(0.05,0,0,0.05,52.95,0)" xlink:href="#aI"/><use transform="matrix(0.05,0,0,0.05,62.95,0)" xlink:href="#aB"/></g><g id="X"><use transform="matrix(0.05,0,0,0.05,0,0)" xlink:href="#aG"/><use transform="matrix(0.05,0,0,0.05,5.95,0)" xlink:href="#aF"/><use transform="matrix(0.05,0,0,0.05,15.949999999999998,0)" xlink:href="#aw"/><use transform="matrix(0.05,0,0,0.05,25.950000000000003,0)" xlink:href="#aA"/><use transform="matrix(0.05,0,0,0.05,35.95,0)" xlink:href="#av"/><use transform="matrix(0.05,0,0,0.05,39.900000000000006,0)" xlink:href="#aG"/><use transform="matrix(0.05,0,0,0.05,45.85000000000001,0)" xlink:href="#aC"/><use transform="matrix(0.05,0,0,0.05,55.85,0)" xlink:href="#aG"/><use transform="matrix(0.05,0,0,0.05,61.80000000000001,0)" xlink:href="#aF"/><use transform="matrix(0.05,0,0,0.05,71.80000000000001,0)" xlink:href="#az"/><use transform="matrix(0.05,0,0,0.05,80.80000000000001,0)" xlink:href="#aI"/><use transform="matrix(0.05,0,0,0.05,90.80000000000001,0)" xlink:href="#ax"/><use transform="matrix(0.05,0,0,0.05,105.75,0)" xlink:href="#aF"/><use transform="matrix(0.05,0,0,0.05,115.75,0)" xlink:href="#aL"/><use transform="matrix(0.05,0,0,0.05,125.75,0)" xlink:href="#aA"/><use transform="matrix(0.05,0,0,0.05,135.75,0)" xlink:href="#aJ"/><use transform="matrix(0.05,0,0,0.05,140.75,0)" xlink:href="#av"/><use transform="matrix(0.05,0,0,0.05,144.7,0)" xlink:href="#aI"/><use transform="matrix(0.05,0,0,0.05,154.7,0)" xlink:href="#aE"/></g><g id="Y"><use transform="matrix(0.05,0,0,0.05,0,0)" xlink:href="#aG"/><use transform="matrix(0.05,0,0,0.05,5.95,0)" xlink:href="#aF"/><use transform="matrix(0.05,0,0,0.05,15.949999999999998,0)" xlink:href="#aM"/><use transform="matrix(0.05,0,0,0.05,20.95,0)" xlink:href="#aG"/><use transform="matrix(0.05,0,0,0.05,26.899999999999995,0)" xlink:href="#av"/><use transform="matrix(0.05,0,0,0.05,30.849999999999994,0)" xlink:href="#aD"/><use transform="matrix(0.05,0,0,0.05,40.849999999999994,0)" xlink:href="#aF"/><use transform="matrix(0.05,0,0,0.05,50.849999999999994,0)" xlink:href="#aG"/><use transform="matrix(0.05,0,0,0.05,56.79999999999999,0)" xlink:href="#aA"/><use transform="matrix(0.05,0,0,0.05,66.8,0)" xlink:href="#aJ"/><use transform="matrix(0.05,0,0,0.05,71.8,0)" xlink:href="#av"/><use transform="matrix(0.05,0,0,0.05,75.75,0)" xlink:href="#aI"/><use transform="matrix(0.05,0,0,0.05,85.75,0)" xlink:href="#aE"/></g><g id="Z"><use transform="matrix(0.05,0,0,0.05,0,0)" xlink:href="#az"/><use transform="matrix(0.05,0,0,0.05,9,0)" xlink:href="#aI"/><use transform="matrix(0.05,0,0,0.05,19,0)" xlink:href="#aE"/><use transform="matrix(0.05,0,0,0.05,29,0)" xlink:href="#aJ"/><use transform="matrix(0.05,0,0,0.05,34,0)" xlink:href="#aA"/><use transform="matrix(0.05,0,0,0.05,44,0)" xlink:href="#av"/><use transform="matrix(0.05,0,0,0.05,47.95,0)" xlink:href="#aE"/><use transform="matrix(0.05,0,0,0.05,57.95,0)" xlink:href="#aF"/><use transform="matrix(0.05,0,0,0.05,67.95,0)" xlink:href="#aG"/><use transform="matrix(0.05,0,0,0.05,73.9,0)" xlink:href="#aC"/><use transform="matrix(0.05,0,0,0.05,83.9,0)" xlink:href="#az"/><use transform="matrix(0.05,0,0,0.05,92.9,0)" xlink:href="#aF"/><use transform="matrix(0.05,0,0,0.05,102.9,0)" xlink:href="#aG"/><use transform="matrix(0.05,0,0,0.05,108.85000000000001,0)" xlink:href="#aJ"/><use transform="matrix(0.05,0,0,0.05,113.85000000000001,0)" xlink:href="#av"/><use transform="matrix(0.05,0,0,0.05,117.80000000000001,0)" xlink:href="#aM"/><use transform="matrix(0.05,0,0,0.05,122.80000000000001,0)" xlink:href="#av"/><use transform="matrix(0.05,0,0,0.05,126.75,0)" xlink:href="#az"/><use transform="matrix(0.05,0,0,0.05,135.75,0)" xlink:href="#aA"/><use transform="matrix(0.05,0,0,0.05,145.75,0)" xlink:href="#aJ"/><use transform="matrix(0.05,0,0,0.05,150.75,0)" xlink:href="#aF"/></g><g id="aa"><use transform="matrix(0.05,0,0,0.05,0,0)" xlink:href="#az"/><use transform="matrix(0.05,0,0,0.05,9,0)" xlink:href="#aF"/><use transform="matrix(0.05,0,0,0.05,19,0)" xlink:href="#aG"/><use transform="matrix(0.05,0,0,0.05,24.95,0)" xlink:href="#aJ"/><use transform="matrix(0.05,0,0,0.05,29.950000000000003,0)" xlink:href="#av"/><use transform="matrix(0.05,0,0,0.05,33.9,0)" xlink:href="#aM"/><use transform="matrix(0.05,0,0,0.05,38.9,0)" xlink:href="#av"/><use transform="matrix(0.05,0,0,0.05,42.85,0)" xlink:href="#az"/><use transform="matrix(0.05,0,0,0.05,51.85,0)" xlink:href="#aA"/><use transform="matrix(0.05,0,0,0.05,61.85,0)" xlink:href="#aJ"/><use transform="matrix(0.05,0,0,0.05,66.85,0)" xlink:href="#aF"/><use transform="matrix(0.05,0,0,0.05,76.85,0)" xlink:href="#aC"/><use transform="matrix(0.05,0,0,0.05,86.85,0)" xlink:href="#av"/><use transform="matrix(0.05,0,0,0.05,90.8,0)" xlink:href="#aL"/></g><g id="ab"><use transform="matrix(0.05,0,0,0.05,0,0)" xlink:href="#az"/><use transform="matrix(0.05,0,0,0.05,9,0)" xlink:href="#aF"/><use transform="matrix(0.05,0,0,0.05,19,0)" xlink:href="#aG"/><use transform="matrix(0.05,0,0,0.05,24.95,0)" xlink:href="#aJ"/><use transform="matrix(0.05,0,0,0.05,29.950000000000003,0)" xlink:href="#av"/><use transform="matrix(0.05,0,0,0.05,33.9,0)" xlink:href="#aM"/><use transform="matrix(0.05,0,0,0.05,38.9,0)" xlink:href="#av"/><use transform="matrix(0.05,0,0,0.05,42.85,0)" xlink:href="#az"/><use transform="matrix(0.05,0,0,0.05,51.85,0)" xlink:href="#aA"/><use transform="matrix(0.05,0,0,0.05,61.85,0)" xlink:href="#aJ"/><use transform="matrix(0.05,0,0,0.05,66.85,0)" xlink:href="#aF"/></g><g id="ac"><use transform="matrix(0.05,0,0,0.05,0,0)" xlink:href="#az"/><use transform="matrix(0.05,0,0,0.05,9,0)" xlink:href="#aA"/><use transform="matrix(0.05,0,0,0.05,19,0)" xlink:href="#aG"/><use transform="matrix(0.05,0,0,0.05,24.95,0)" xlink:href="#aD"/><use transform="matrix(0.05,0,0,0.05,34.95,0)" xlink:href="#aI"/><use transform="matrix(0.05,0,0,0.05,44.95,0)" xlink:href="#aC"/><use transform="matrix(0.05,0,0,0.05,54.95,0)" xlink:href="#ax"/><use transform="matrix(0.05,0,0,0.05,69.9,0)" xlink:href="#aA"/><use transform="matrix(0.05,0,0,0.05,79.9,0)" xlink:href="#aE"/><use transform="matrix(0.05,0,0,0.05,89.9,0)" xlink:href="#av"/><use transform="matrix(0.05,0,0,0.05,93.85000000000001,0)" xlink:href="#aM"/><use transform="matrix(0.05,0,0,0.05,98.85000000000001,0)" xlink:href="#aF"/><use transform="matrix(0.05,0,0,0.05,108.85000000000001,0)" xlink:href="#ay"/><use transform="matrix(0.05,0,0,0.05,117.85000000000001,0)" xlink:href="#aJ"/></g><g id="ad"><use transform="matrix(0.05,0,0,0.05,0,0)" xlink:href="#az"/><use transform="matrix(0.05,0,0,0.05,9,0)" xlink:href="#aA"/><use transform="matrix(0.05,0,0,0.05,19,0)" xlink:href="#aG"/><use transform="matrix(0.05,0,0,0.05,24.95,0)" xlink:href="#aD"/><use transform="matrix(0.05,0,0,0.05,34.95,0)" xlink:href="#aI"/><use transform="matrix(0.05,0,0,0.05,44.95,0)" xlink:href="#aC"/><use transform="matrix(0.05,0,0,0.05,54.95,0)" xlink:href="#ax"/><use transform="matrix(0.05,0,0,0.05,69.9,0)" xlink:href="#aA"/><use transform="matrix(0.05,0,0,0.05,79.9,0)" xlink:href="#aE"/><use transform="matrix(0.05,0,0,0.05,89.9,0)" xlink:href="#av"/><use transform="matrix(0.05,0,0,0.05,93.85000000000001,0)" xlink:href="#aM"/><use transform="matrix(0.05,0,0,0.05,98.85000000000001,0)" xlink:href="#aF"/><use transform="matrix(0.05,0,0,0.05,108.85000000000001,0)" xlink:href="#ay"/><use transform="matrix(0.05,0,0,0.05,117.85000000000001,0)" xlink:href="#aJ"/><use transform="matrix(0.05,0,0,0.05,122.85000000000001,0)" xlink:href="#aC"/><use transform="matrix(0.05,0,0,0.05,132.85000000000002,0)" xlink:href="#av"/><use transform="matrix(0.05,0,0,0.05,136.8,0)" xlink:href="#aL"/></g><g id="ae"><use transform="matrix(0.05,0,0,0.05,0,0)" xlink:href="#az"/><use transform="matrix(0.05,0,0,0.05,9,0)" xlink:href="#aI"/><use transform="matrix(0.05,0,0,0.05,19,0)" xlink:href="#aE"/><use transform="matrix(0.05,0,0,0.05,29,0)" xlink:href="#aJ"/><use transform="matrix(0.05,0,0,0.05,34,0)" xlink:href="#aA"/><use transform="matrix(0.05,0,0,0.05,44,0)" xlink:href="#av"/><use transform="matrix(0.05,0,0,0.05,47.95,0)" xlink:href="#aE"/><use transform="matrix(0.05,0,0,0.05,57.95,0)" xlink:href="#aF"/><use transform="matrix(0.05,0,0,0.05,67.95,0)" xlink:href="#aG"/><use transform="matrix(0.05,0,0,0.05,73.9,0)" xlink:href="#aC"/><use transform="matrix(0.05,0,0,0.05,83.9,0)" xlink:href="#aw"/><use transform="matrix(0.05,0,0,0.05,93.9,0)" xlink:href="#aI"/><use transform="matrix(0.05,0,0,0.05,103.9,0)" xlink:href="#ay"/><use transform="matrix(0.05,0,0,0.05,112.9,0)" xlink:href="#av"/><use transform="matrix(0.05,0,0,0.05,116.85000000000001,0)" xlink:href="#aJ"/><use transform="matrix(0.05,0,0,0.05,121.85000000000001,0)" xlink:href="#av"/><use transform="matrix(0.05,0,0,0.05,125.80000000000001,0)" xlink:href="#aI"/><use transform="matrix(0.05,0,0,0.05,135.8,0)" xlink:href="#aE"/><use transform="matrix(0.05,0,0,0.05,145.8,0)" xlink:href="#aC"/><use transform="matrix(0.05,0,0,0.05,155.8,0)" xlink:href="#aS"/></g><g id="af"><use transform="matrix(0.05,0,0,0.05,0,0)" xlink:href="#az"/><use transform="matrix(0.05,0,0,0.05,9,0)" xlink:href="#aI"/><use transform="matrix(0.05,0,0,0.05,19,0)" xlink:href="#aE"/><use transform="matrix(0.05,0,0,0.05,29,0)" xlink:href="#aJ"/><use transform="matrix(0.05,0,0,0.05,34,0)" xlink:href="#aA"/><use transform="matrix(0.05,0,0,0.05,44,0)" xlink:href="#av"/><use transform="matrix(0.05,0,0,0.05,47.95,0)" xlink:href="#aE"/><use transform="matrix(0.05,0,0,0.05,57.95,0)" xlink:href="#aF"/><use transform="matrix(0.05,0,0,0.05,67.95,0)" xlink:href="#aG"/><use transform="matrix(0.05,0,0,0.05,73.9,0)" xlink:href="#aC"/><use transform="matrix(0.05,0,0,0.05,83.9,0)" xlink:href="#aw"/><use transform="matrix(0.05,0,0,0.05,93.9,0)" xlink:href="#aI"/><use transform="matrix(0.05,0,0,0.05,103.9,0)" xlink:href="#ay"/><use transform="matrix(0.05,0,0,0.05,112.9,0)" xlink:href="#av"/><use transform="matrix(0.05,0,0,0.05,116.85000000000001,0)" xlink:href="#aJ"/><use transform="matrix(0.05,0,0,0.05,121.85000000000001,0)" xlink:href="#av"/><use transform="matrix(0.05,0,0,0.05,125.80000000000001,0)" xlink:href="#aI"/><use transform="matrix(0.05,0,0,0.05,135.8,0)" xlink:href="#aE"/><use transform="matrix(0.05,0,0,0.05,145.8,0)" xlink:href="#aC"/><use transform="matrix(0.05,0,0,0.05,155.8,0)" xlink:href="#aH"/></g><path fill="#1d262b" d="M9 0v-24l116-142H16v-24h144v24L44-24h123V0H9" id="aT"/><g id="ag"><use transform="matrix(0.05,0,0,0.05,0,0)" xlink:href="#az"/><use transform="matrix(0.05,0,0,0.05,9,0)" xlink:href="#aI"/><use transform="matrix(0.05,0,0,0.05,19,0)" xlink:href="#aE"/><use transform="matrix(0.05,0,0,0.05,29,0)" xlink:href="#aJ"/><use transform="matrix(0.05,0,0,0.05,34,0)" xlink:href="#aA"/><use transform="matrix(0.05,0,0,0.05,44,0)" xlink:href="#av"/><use transform="matrix(0.05,0,0,0.05,47.95,0)" xlink:href="#aE"/><use transform="matrix(0.05,0,0,0.05,57.95,0)" xlink:href="#aF"/><use transform="matrix(0.05,0,0,0.05,67.95,0)" xlink:href="#aG"/><use transform="matrix(0.05,0,0,0.05,73.9,0)" xlink:href="#aC"/><use transform="matrix(0.05,0,0,0.05,83.9,0)" xlink:href="#aw"/><use transform="matrix(0.05,0,0,0.05,93.9,0)" xlink:href="#aI"/><use transform="matrix(0.05,0,0,0.05,103.9,0)" xlink:href="#ay"/><use transform="matrix(0.05,0,0,0.05,112.9,0)" xlink:href="#av"/><use transform="matrix(0.05,0,0,0.05,116.85000000000001,0)" xlink:href="#aJ"/><use transform="matrix(0.05,0,0,0.05,121.85000000000001,0)" xlink:href="#av"/><use transform="matrix(0.05,0,0,0.05,125.80000000000001,0)" xlink:href="#aI"/><use transform="matrix(0.05,0,0,0.05,135.8,0)" xlink:href="#aE"/><use transform="matrix(0.05,0,0,0.05,145.8,0)" xlink:href="#aC"/><use transform="matrix(0.05,0,0,0.05,155.8,0)" xlink:href="#aT"/></g><g id="ah"><use transform="matrix(0.06172839506172839,0,0,0.06172839506172839,0,0)" xlink:href="#az"/><use transform="matrix(0.06172839506172839,0,0,0.06172839506172839,11.11111111111111,0)" xlink:href="#aI"/><use transform="matrix(0.06172839506172839,0,0,0.06172839506172839,23.45679012345679,0)" xlink:href="#aE"/><use transform="matrix(0.06172839506172839,0,0,0.06172839506172839,35.80246913580247,0)" xlink:href="#aJ"/><use transform="matrix(0.06172839506172839,0,0,0.06172839506172839,41.97530864197531,0)" xlink:href="#aA"/><use transform="matrix(0.06172839506172839,0,0,0.06172839506172839,54.32098765432099,0)" xlink:href="#av"/><use transform="matrix(0.06172839506172839,0,0,0.06172839506172839,59.19753086419753,0)" xlink:href="#aE"/><use transform="matrix(0.06172839506172839,0,0,0.06172839506172839,71.54320987654322,0)" xlink:href="#aF"/><use transform="matrix(0.06172839506172839,0,0,0.06172839506172839,83.8888888888889,0)" xlink:href="#aG"/><use transform="matrix(0.06172839506172839,0,0,0.06172839506172839,91.23456790123458,0)" xlink:href="#aC"/><use transform="matrix(0.06172839506172839,0,0,0.06172839506172839,103.58024691358027,0)" xlink:href="#aD"/><use transform="matrix(0.06172839506172839,0,0,0.06172839506172839,115.92592592592595,0)" xlink:href="#aG"/><use transform="matrix(0.06172839506172839,0,0,0.06172839506172839,123.27160493827164,0)" xlink:href="#aI"/><use transform="matrix(0.06172839506172839,0,0,0.06172839506172839,135.61728395061732,0)" xlink:href="#ay"/><use transform="matrix(0.06172839506172839,0,0,0.06172839506172839,146.72839506172843,0)" xlink:href="#ay"/><use transform="matrix(0.06172839506172839,0,0,0.06172839506172839,157.83950617283955,0)" xlink:href="#aC"/><use transform="matrix(0.06172839506172839,0,0,0.06172839506172839,170.18518518518522,0)" xlink:href="#aK"/><use transform="matrix(0.06172839506172839,0,0,0.06172839506172839,186.17283950617286,0)" xlink:href="#aF"/><use transform="matrix(0.06172839506172839,0,0,0.06172839506172839,198.51851851851853,0)" xlink:href="#av"/><use transform="matrix(0.06172839506172839,0,0,0.06172839506172839,203.39506172839506,0)" xlink:href="#aD"/><use transform="matrix(0.06172839506172839,0,0,0.06172839506172839,215.74074074074073,0)" xlink:href="#aJ"/><use transform="matrix(0.06172839506172839,0,0,0.06172839506172839,221.91358024691357,0)" xlink:href="#au"/></g><g id="ai"><use transform="matrix(0.05,0,0,0.05,0,0)" xlink:href="#aB"/><use transform="matrix(0.05,0,0,0.05,3.95,0)" xlink:href="#aF"/><use transform="matrix(0.05,0,0,0.05,13.949999999999998,0)" xlink:href="#aA"/><use transform="matrix(0.05,0,0,0.05,23.95,0)" xlink:href="#aN"/><use transform="matrix(0.05,0,0,0.05,32.95,0)" xlink:href="#aF"/><use transform="matrix(0.05,0,0,0.05,42.95,0)" xlink:href="#aC"/><use transform="matrix(0.05,0,0,0.05,52.95,0)" xlink:href="#aL"/><use transform="matrix(0.05,0,0,0.05,62.95,0)" xlink:href="#aA"/><use transform="matrix(0.05,0,0,0.05,72.95,0)" xlink:href="#aJ"/><use transform="matrix(0.05,0,0,0.05,77.95,0)" xlink:href="#aF"/></g><g id="aj"><use transform="matrix(0.05,0,0,0.05,0,0)" xlink:href="#aF"/><use transform="matrix(0.05,0,0,0.05,10,0)" xlink:href="#aE"/><use transform="matrix(0.05,0,0,0.05,20,0)" xlink:href="#aJ"/><use transform="matrix(0.05,0,0,0.05,25,0)" xlink:href="#aG"/><use transform="matrix(0.05,0,0,0.05,30.950000000000003,0)" xlink:href="#aH"/><use transform="matrix(0.05,0,0,0.05,39.95,0)" xlink:href="#aC"/><use transform="matrix(0.05,0,0,0.05,49.95,0)" xlink:href="#aL"/><use transform="matrix(0.05,0,0,0.05,59.95,0)" xlink:href="#aA"/><use transform="matrix(0.05,0,0,0.05,69.95,0)" xlink:href="#aJ"/><use transform="matrix(0.05,0,0,0.05,74.95,0)" xlink:href="#aF"/></g><g id="ak"><use transform="matrix(0.05,0,0,0.05,0,0)" xlink:href="#au"/><use transform="matrix(0.05,0,0,0.05,10,0)" xlink:href="#aA"/><use transform="matrix(0.05,0,0,0.05,20,0)" xlink:href="#ay"/></g><use transform="matrix(0.05,0,0,0.05,0,0)" xlink:href="#aE" id="al"/><path fill="#1d262b" d="M27 0v-27h64v-190l-56 39v-29l58-41h29v221h61V0H27" id="aU"/><use transform="matrix(0.05,0,0,0.05,0,0)" xlink:href="#aU" id="am"/><g id="an"><use transform="matrix(0.05,0,0,0.05,0,0)" xlink:href="#aG"/><use transform="matrix(0.05,0,0,0.05,5.95,0)" xlink:href="#aF"/><use transform="matrix(0.05,0,0,0.05,15.949999999999998,0)" xlink:href="#aM"/><use transform="matrix(0.05,0,0,0.05,20.95,0)" xlink:href="#aF"/><use transform="matrix(0.05,0,0,0.05,30.950000000000003,0)" xlink:href="#aG"/><use transform="matrix(0.05,0,0,0.05,36.9,0)" xlink:href="#ay"/></g><g id="ao"><use transform="matrix(0.05,0,0,0.05,0,0)" xlink:href="#aJ"/><use transform="matrix(0.05,0,0,0.05,5,0)" xlink:href="#aI"/></g><g id="ap"><use transform="matrix(0.05,0,0,0.05,0,0)" xlink:href="#aK"/><use transform="matrix(0.05,0,0,0.05,12.950000000000001,0)" xlink:href="#aI"/><use transform="matrix(0.05,0,0,0.05,22.950000000000003,0)" xlink:href="#aG"/><use transform="matrix(0.05,0,0,0.05,28.900000000000002,0)" xlink:href="#aQ"/><use transform="matrix(0.05,0,0,0.05,37.900000000000006,0)" xlink:href="#ay"/></g><g id="aq"><use transform="matrix(0.05,0,0,0.05,0,0)" xlink:href="#aA"/><use transform="matrix(0.05,0,0,0.05,10,0)" xlink:href="#ay"/></g><path fill="#1d262b" d="M190 0L58-211 59 0H30v-248h39L202-35l-2-213h31V0h-41" id="aV"/><g id="ar"><use transform="matrix(0.05,0,0,0.05,0,0)" xlink:href="#aV"/><use transform="matrix(0.05,0,0,0.05,12.950000000000001,0)" xlink:href="#aI"/></g><g id="as"><use transform="matrix(0.05,0,0,0.05,0,0)" xlink:href="#aI"/><use transform="matrix(0.05,0,0,0.05,10,0)" xlink:href="#aE"/></g></defs></g></svg>