<?xml version="1.0" encoding="UTF-8" standalone="no"?><svg xmlns="http://www.w3.org/2000/svg" xmlns:xlink="http://www.w3.org/1999/xlink" contentScriptType="application/ecmascript" contentStyleType="text/css" height="393px" preserveAspectRatio="none" style="width:738px;height:393px;background:#FFFFFF;" version="1.1" viewBox="0 0 738 393" width="738px" zoomAndPan="magnify"><defs><filter height="300%" id="fd60zqu9p8t2w" width="300%" x="-1" y="-1"><feGaussianBlur result="blurOut" stdDeviation="2.0"/><feColorMatrix in="blurOut" result="blurOut2" type="matrix" values="0 0 0 0 0 0 0 0 0 0 0 0 0 0 0 0 0 0 .4 0"/><feOffset dx="4.0" dy="4.0" in="blurOut2" result="blurOut3"/><feBlend in="SourceGraphic" in2="blurOut3" mode="normal"/></filter></defs><g><!--MD5=[1816e661d25430e6ffb111b8de0cbab6]
class container--><rect codeLine="2" fill="#FEFECE" filter="url(#fd60zqu9p8t2w)" height="48" id="container" style="stroke:#A80036;stroke-width:1.5;" width="83" x="73.5" y="7"/><ellipse cx="88.5" cy="23" fill="#ADD1B2" rx="11" ry="11" style="stroke:#A80036;stroke-width:1.0;"/><path d="M90.5,19.5 Q90.7031,19 90.9375,18.75 Q91.1719,18.5 91.4375,18.5 Q91.9063,18.5 92.2031,18.7813 Q92.5,19.0625 92.5,19.7188 L92.5,21.2813 Q92.5,21.9375 92.2188,22.2188 Q91.9375,22.5 91.5,22.5 Q91.1094,22.5 90.8594,22.3281 Q90.6094,22.1563 90.5,21.7031 Q90.4531,21.3906 90.2813,21.2188 Q89.9688,20.8906 89.4063,20.7031 Q88.8438,20.5 88.2813,20.5 Q87.5781,20.5 86.9844,20.7813 Q86.4063,21.0625 85.9531,21.6875 Q85.5,22.3125 85.5,23.1719 L85.5,24.0938 Q85.5,25.125 86.3438,25.8125 Q87.1875,26.5 88.6875,26.5 Q89.5781,26.5 90.2031,26.2969 Q90.5625,26.1875 90.9688,25.8281 Q91.2344,25.625 91.375,25.5625 Q91.5156,25.5 91.6875,25.5 Q92.0156,25.5 92.25,25.7656 Q92.5,26.0156 92.5,26.375 Q92.5,26.7188 92.1563,27.125 Q91.6563,27.7188 90.8594,28.0469 Q89.8125,28.5 88.5313,28.5 Q87.0313,28.5 85.8281,27.9063 Q84.8594,27.4375 84.1719,26.4219 Q83.5,25.4063 83.5,24.2031 L83.5,23.1094 Q83.5,21.8594 84.0938,20.7656 Q84.7031,19.6719 85.75,19.0938 Q86.8125,18.5 88,18.5 Q88.7188,18.5 89.3438,18.75 Q89.9688,19 90.5,19.5 Z " fill="#000000"/><text fill="#000000" font-family="sans-serif" font-size="12" lengthAdjust="spacing" textLength="51" x="102.5" y="27.9102">container</text><line style="stroke:#A80036;stroke-width:1.5;" x1="74.5" x2="155.5" y1="39" y2="39"/><line style="stroke:#A80036;stroke-width:1.5;" x1="74.5" x2="155.5" y1="47" y2="47"/><!--MD5=[f80c7a7392575a24cb3ff69d552c02ac]
class certificate--><rect codeLine="3" fill="#FEFECE" filter="url(#fd60zqu9p8t2w)" height="48" id="certificate" style="stroke:#A80036;stroke-width:1.5;" width="84" x="7" y="115"/><ellipse cx="22" cy="131" fill="#ADD1B2" rx="11" ry="11" style="stroke:#A80036;stroke-width:1.0;"/><path d="M24,127.5 Q24.2031,127 24.4375,126.75 Q24.6719,126.5 24.9375,126.5 Q25.4063,126.5 25.7031,126.7813 Q26,127.0625 26,127.7188 L26,129.2813 Q26,129.9375 25.7188,130.2188 Q25.4375,130.5 25,130.5 Q24.6094,130.5 24.3594,130.3281 Q24.1094,130.1563 24,129.7031 Q23.9531,129.3906 23.7813,129.2188 Q23.4688,128.8906 22.9063,128.7031 Q22.3438,128.5 21.7813,128.5 Q21.0781,128.5 20.4844,128.7813 Q19.9063,129.0625 19.4531,129.6875 Q19,130.3125 19,131.1719 L19,132.0938 Q19,133.125 19.8438,133.8125 Q20.6875,134.5 22.1875,134.5 Q23.0781,134.5 23.7031,134.2969 Q24.0625,134.1875 24.4688,133.8281 Q24.7344,133.625 24.875,133.5625 Q25.0156,133.5 25.1875,133.5 Q25.5156,133.5 25.75,133.7656 Q26,134.0156 26,134.375 Q26,134.7188 25.6563,135.125 Q25.1563,135.7188 24.3594,136.0469 Q23.3125,136.5 22.0313,136.5 Q20.5313,136.5 19.3281,135.9063 Q18.3594,135.4375 17.6719,134.4219 Q17,133.4063 17,132.2031 L17,131.1094 Q17,129.8594 17.5938,128.7656 Q18.2031,127.6719 19.25,127.0938 Q20.3125,126.5 21.5,126.5 Q22.2188,126.5 22.8438,126.75 Q23.4688,127 24,127.5 Z " fill="#000000"/><text fill="#000000" font-family="sans-serif" font-size="12" lengthAdjust="spacing" textLength="52" x="36" y="135.9102">certificate</text><line style="stroke:#A80036;stroke-width:1.5;" x1="8" x2="90" y1="147" y2="147"/><line style="stroke:#A80036;stroke-width:1.5;" x1="8" x2="90" y1="155" y2="155"/><!--MD5=[4ef6908475cadc30f0fafd08f4b25416]
class ship--><rect codeLine="4" fill="#FEFECE" filter="url(#fd60zqu9p8t2w)" height="48" id="ship" style="stroke:#A80036;stroke-width:1.5;" width="56" x="284" y="7"/><ellipse cx="299" cy="23" fill="#ADD1B2" rx="11" ry="11" style="stroke:#A80036;stroke-width:1.0;"/><path d="M301,19.5 Q301.2031,19 301.4375,18.75 Q301.6719,18.5 301.9375,18.5 Q302.4063,18.5 302.7031,18.7813 Q303,19.0625 303,19.7188 L303,21.2813 Q303,21.9375 302.7188,22.2188 Q302.4375,22.5 302,22.5 Q301.6094,22.5 301.3594,22.3281 Q301.1094,22.1563 301,21.7031 Q300.9531,21.3906 300.7813,21.2188 Q300.4688,20.8906 299.9063,20.7031 Q299.3438,20.5 298.7813,20.5 Q298.0781,20.5 297.4844,20.7813 Q296.9063,21.0625 296.4531,21.6875 Q296,22.3125 296,23.1719 L296,24.0938 Q296,25.125 296.8438,25.8125 Q297.6875,26.5 299.1875,26.5 Q300.0781,26.5 300.7031,26.2969 Q301.0625,26.1875 301.4688,25.8281 Q301.7344,25.625 301.875,25.5625 Q302.0156,25.5 302.1875,25.5 Q302.5156,25.5 302.75,25.7656 Q303,26.0156 303,26.375 Q303,26.7188 302.6563,27.125 Q302.1563,27.7188 301.3594,28.0469 Q300.3125,28.5 299.0313,28.5 Q297.5313,28.5 296.3281,27.9063 Q295.3594,27.4375 294.6719,26.4219 Q294,25.4063 294,24.2031 L294,23.1094 Q294,21.8594 294.5938,20.7656 Q295.2031,19.6719 296.25,19.0938 Q297.3125,18.5 298.5,18.5 Q299.2188,18.5 299.8438,18.75 Q300.4688,19 301,19.5 Z " fill="#000000"/><text fill="#000000" font-family="sans-serif" font-size="12" lengthAdjust="spacing" textLength="24" x="313" y="27.9102">ship</text><line style="stroke:#A80036;stroke-width:1.5;" x1="285" x2="339" y1="39" y2="39"/><line style="stroke:#A80036;stroke-width:1.5;" x1="285" x2="339" y1="47" y2="47"/><!--MD5=[a63b43b3a5277a53c3e7ec5ac1f1274d]
class shipData--><rect codeLine="5" fill="#FEFECE" filter="url(#fd60zqu9p8t2w)" height="48" id="shipData" style="stroke:#A80036;stroke-width:1.5;" width="82" x="271" y="115"/><ellipse cx="286" cy="131" fill="#ADD1B2" rx="11" ry="11" style="stroke:#A80036;stroke-width:1.0;"/><path d="M288,127.5 Q288.2031,127 288.4375,126.75 Q288.6719,126.5 288.9375,126.5 Q289.4063,126.5 289.7031,126.7813 Q290,127.0625 290,127.7188 L290,129.2813 Q290,129.9375 289.7188,130.2188 Q289.4375,130.5 289,130.5 Q288.6094,130.5 288.3594,130.3281 Q288.1094,130.1563 288,129.7031 Q287.9531,129.3906 287.7813,129.2188 Q287.4688,128.8906 286.9063,128.7031 Q286.3438,128.5 285.7813,128.5 Q285.0781,128.5 284.4844,128.7813 Q283.9063,129.0625 283.4531,129.6875 Q283,130.3125 283,131.1719 L283,132.0938 Q283,133.125 283.8438,133.8125 Q284.6875,134.5 286.1875,134.5 Q287.0781,134.5 287.7031,134.2969 Q288.0625,134.1875 288.4688,133.8281 Q288.7344,133.625 288.875,133.5625 Q289.0156,133.5 289.1875,133.5 Q289.5156,133.5 289.75,133.7656 Q290,134.0156 290,134.375 Q290,134.7188 289.6563,135.125 Q289.1563,135.7188 288.3594,136.0469 Q287.3125,136.5 286.0313,136.5 Q284.5313,136.5 283.3281,135.9063 Q282.3594,135.4375 281.6719,134.4219 Q281,133.4063 281,132.2031 L281,131.1094 Q281,129.8594 281.5938,128.7656 Q282.2031,127.6719 283.25,127.0938 Q284.3125,126.5 285.5,126.5 Q286.2188,126.5 286.8438,126.75 Q287.4688,127 288,127.5 Z " fill="#000000"/><text fill="#000000" font-family="sans-serif" font-size="12" lengthAdjust="spacing" textLength="50" x="300" y="135.9102">shipData</text><line style="stroke:#A80036;stroke-width:1.5;" x1="272" x2="352" y1="147" y2="147"/><line style="stroke:#A80036;stroke-width:1.5;" x1="272" x2="352" y1="155" y2="155"/><!--MD5=[ce1368b94e3f27e082f9503390c85828]
class port_wharehouse--><rect codeLine="6" fill="#FEFECE" filter="url(#fd60zqu9p8t2w)" height="48" id="port_wharehouse" style="stroke:#A80036;stroke-width:1.5;" width="129" x="388.5" y="115"/><ellipse cx="403.5" cy="131" fill="#ADD1B2" rx="11" ry="11" style="stroke:#A80036;stroke-width:1.0;"/><path d="M405.5,127.5 Q405.7031,127 405.9375,126.75 Q406.1719,126.5 406.4375,126.5 Q406.9063,126.5 407.2031,126.7813 Q407.5,127.0625 407.5,127.7188 L407.5,129.2813 Q407.5,129.9375 407.2188,130.2188 Q406.9375,130.5 406.5,130.5 Q406.1094,130.5 405.8594,130.3281 Q405.6094,130.1563 405.5,129.7031 Q405.4531,129.3906 405.2813,129.2188 Q404.9688,128.8906 404.4063,128.7031 Q403.8438,128.5 403.2813,128.5 Q402.5781,128.5 401.9844,128.7813 Q401.4063,129.0625 400.9531,129.6875 Q400.5,130.3125 400.5,131.1719 L400.5,132.0938 Q400.5,133.125 401.3438,133.8125 Q402.1875,134.5 403.6875,134.5 Q404.5781,134.5 405.2031,134.2969 Q405.5625,134.1875 405.9688,133.8281 Q406.2344,133.625 406.375,133.5625 Q406.5156,133.5 406.6875,133.5 Q407.0156,133.5 407.25,133.7656 Q407.5,134.0156 407.5,134.375 Q407.5,134.7188 407.1563,135.125 Q406.6563,135.7188 405.8594,136.0469 Q404.8125,136.5 403.5313,136.5 Q402.0313,136.5 400.8281,135.9063 Q399.8594,135.4375 399.1719,134.4219 Q398.5,133.4063 398.5,132.2031 L398.5,131.1094 Q398.5,129.8594 399.0938,128.7656 Q399.7031,127.6719 400.75,127.0938 Q401.8125,126.5 403,126.5 Q403.7188,126.5 404.3438,126.75 Q404.9688,127 405.5,127.5 Z " fill="#000000"/><text fill="#000000" font-family="sans-serif" font-size="12" lengthAdjust="spacing" textLength="97" x="417.5" y="135.9102">port_wharehouse</text><line style="stroke:#A80036;stroke-width:1.5;" x1="389.5" x2="516.5" y1="147" y2="147"/><line style="stroke:#A80036;stroke-width:1.5;" x1="389.5" x2="516.5" y1="155" y2="155"/><!--MD5=[49762a54e1b04ffe7db6f74326b29b36]
class roles--><rect codeLine="7" fill="#FEFECE" filter="url(#fd60zqu9p8t2w)" height="48" id="roles" style="stroke:#A80036;stroke-width:1.5;" width="60" x="664" y="223"/><ellipse cx="679" cy="239" fill="#ADD1B2" rx="11" ry="11" style="stroke:#A80036;stroke-width:1.0;"/><path d="M681,235.5 Q681.2031,235 681.4375,234.75 Q681.6719,234.5 681.9375,234.5 Q682.4063,234.5 682.7031,234.7813 Q683,235.0625 683,235.7188 L683,237.2813 Q683,237.9375 682.7188,238.2188 Q682.4375,238.5 682,238.5 Q681.6094,238.5 681.3594,238.3281 Q681.1094,238.1563 681,237.7031 Q680.9531,237.3906 680.7813,237.2188 Q680.4688,236.8906 679.9063,236.7031 Q679.3438,236.5 678.7813,236.5 Q678.0781,236.5 677.4844,236.7813 Q676.9063,237.0625 676.4531,237.6875 Q676,238.3125 676,239.1719 L676,240.0938 Q676,241.125 676.8438,241.8125 Q677.6875,242.5 679.1875,242.5 Q680.0781,242.5 680.7031,242.2969 Q681.0625,242.1875 681.4688,241.8281 Q681.7344,241.625 681.875,241.5625 Q682.0156,241.5 682.1875,241.5 Q682.5156,241.5 682.75,241.7656 Q683,242.0156 683,242.375 Q683,242.7188 682.6563,243.125 Q682.1563,243.7188 681.3594,244.0469 Q680.3125,244.5 679.0313,244.5 Q677.5313,244.5 676.3281,243.9063 Q675.3594,243.4375 674.6719,242.4219 Q674,241.4063 674,240.2031 L674,239.1094 Q674,237.8594 674.5938,236.7656 Q675.2031,235.6719 676.25,235.0938 Q677.3125,234.5 678.5,234.5 Q679.2188,234.5 679.8438,234.75 Q680.4688,235 681,235.5 Z " fill="#000000"/><text fill="#000000" font-family="sans-serif" font-size="12" lengthAdjust="spacing" textLength="28" x="693" y="243.9102">roles</text><line style="stroke:#A80036;stroke-width:1.5;" x1="665" x2="723" y1="255" y2="255"/><line style="stroke:#A80036;stroke-width:1.5;" x1="665" x2="723" y1="263" y2="263"/><!--MD5=[58521b9143a6696c24486cbdfb8e8110]
class employee--><rect codeLine="8" fill="#FEFECE" filter="url(#fd60zqu9p8t2w)" height="48" id="employee" style="stroke:#A80036;stroke-width:1.5;" width="86" x="618" y="115"/><ellipse cx="633" cy="131" fill="#ADD1B2" rx="11" ry="11" style="stroke:#A80036;stroke-width:1.0;"/><path d="M635,127.5 Q635.2031,127 635.4375,126.75 Q635.6719,126.5 635.9375,126.5 Q636.4063,126.5 636.7031,126.7813 Q637,127.0625 637,127.7188 L637,129.2813 Q637,129.9375 636.7188,130.2188 Q636.4375,130.5 636,130.5 Q635.6094,130.5 635.3594,130.3281 Q635.1094,130.1563 635,129.7031 Q634.9531,129.3906 634.7813,129.2188 Q634.4688,128.8906 633.9063,128.7031 Q633.3438,128.5 632.7813,128.5 Q632.0781,128.5 631.4844,128.7813 Q630.9063,129.0625 630.4531,129.6875 Q630,130.3125 630,131.1719 L630,132.0938 Q630,133.125 630.8438,133.8125 Q631.6875,134.5 633.1875,134.5 Q634.0781,134.5 634.7031,134.2969 Q635.0625,134.1875 635.4688,133.8281 Q635.7344,133.625 635.875,133.5625 Q636.0156,133.5 636.1875,133.5 Q636.5156,133.5 636.75,133.7656 Q637,134.0156 637,134.375 Q637,134.7188 636.6563,135.125 Q636.1563,135.7188 635.3594,136.0469 Q634.3125,136.5 633.0313,136.5 Q631.5313,136.5 630.3281,135.9063 Q629.3594,135.4375 628.6719,134.4219 Q628,133.4063 628,132.2031 L628,131.1094 Q628,129.8594 628.5938,128.7656 Q629.2031,127.6719 630.25,127.0938 Q631.3125,126.5 632.5,126.5 Q633.2188,126.5 633.8438,126.75 Q634.4688,127 635,127.5 Z " fill="#000000"/><text fill="#000000" font-family="sans-serif" font-size="12" lengthAdjust="spacing" textLength="54" x="647" y="135.9102">employee</text><line style="stroke:#A80036;stroke-width:1.5;" x1="619" x2="703" y1="147" y2="147"/><line style="stroke:#A80036;stroke-width:1.5;" x1="619" x2="703" y1="155" y2="155"/><!--MD5=[db60dd7f2a7cf2909f3631478130250d]
class cargoManifest--><rect codeLine="9" fill="#FEFECE" filter="url(#fd60zqu9p8t2w)" height="48" id="cargoManifest" style="stroke:#A80036;stroke-width:1.5;" width="109" x="126.5" y="115"/><ellipse cx="141.5" cy="131" fill="#ADD1B2" rx="11" ry="11" style="stroke:#A80036;stroke-width:1.0;"/><path d="M143.5,127.5 Q143.7031,127 143.9375,126.75 Q144.1719,126.5 144.4375,126.5 Q144.9063,126.5 145.2031,126.7813 Q145.5,127.0625 145.5,127.7188 L145.5,129.2813 Q145.5,129.9375 145.2188,130.2188 Q144.9375,130.5 144.5,130.5 Q144.1094,130.5 143.8594,130.3281 Q143.6094,130.1563 143.5,129.7031 Q143.4531,129.3906 143.2813,129.2188 Q142.9688,128.8906 142.4063,128.7031 Q141.8438,128.5 141.2813,128.5 Q140.5781,128.5 139.9844,128.7813 Q139.4063,129.0625 138.9531,129.6875 Q138.5,130.3125 138.5,131.1719 L138.5,132.0938 Q138.5,133.125 139.3438,133.8125 Q140.1875,134.5 141.6875,134.5 Q142.5781,134.5 143.2031,134.2969 Q143.5625,134.1875 143.9688,133.8281 Q144.2344,133.625 144.375,133.5625 Q144.5156,133.5 144.6875,133.5 Q145.0156,133.5 145.25,133.7656 Q145.5,134.0156 145.5,134.375 Q145.5,134.7188 145.1563,135.125 Q144.6563,135.7188 143.8594,136.0469 Q142.8125,136.5 141.5313,136.5 Q140.0313,136.5 138.8281,135.9063 Q137.8594,135.4375 137.1719,134.4219 Q136.5,133.4063 136.5,132.2031 L136.5,131.1094 Q136.5,129.8594 137.0938,128.7656 Q137.7031,127.6719 138.75,127.0938 Q139.8125,126.5 141,126.5 Q141.7188,126.5 142.3438,126.75 Q142.9688,127 143.5,127.5 Z " fill="#000000"/><text fill="#000000" font-family="sans-serif" font-size="12" lengthAdjust="spacing" textLength="77" x="155.5" y="135.9102">cargoManifest</text><line style="stroke:#A80036;stroke-width:1.5;" x1="127.5" x2="234.5" y1="147" y2="147"/><line style="stroke:#A80036;stroke-width:1.5;" x1="127.5" x2="234.5" y1="155" y2="155"/><!--MD5=[64c527255c588b63837979dd69f95a7b]
class truck--><rect codeLine="10" fill="#FEFECE" filter="url(#fd60zqu9p8t2w)" height="48" id="truck" style="stroke:#A80036;stroke-width:1.5;" width="58" x="392" y="223"/><ellipse cx="407" cy="239" fill="#ADD1B2" rx="11" ry="11" style="stroke:#A80036;stroke-width:1.0;"/><path d="M409,235.5 Q409.2031,235 409.4375,234.75 Q409.6719,234.5 409.9375,234.5 Q410.4063,234.5 410.7031,234.7813 Q411,235.0625 411,235.7188 L411,237.2813 Q411,237.9375 410.7188,238.2188 Q410.4375,238.5 410,238.5 Q409.6094,238.5 409.3594,238.3281 Q409.1094,238.1563 409,237.7031 Q408.9531,237.3906 408.7813,237.2188 Q408.4688,236.8906 407.9063,236.7031 Q407.3438,236.5 406.7813,236.5 Q406.0781,236.5 405.4844,236.7813 Q404.9063,237.0625 404.4531,237.6875 Q404,238.3125 404,239.1719 L404,240.0938 Q404,241.125 404.8438,241.8125 Q405.6875,242.5 407.1875,242.5 Q408.0781,242.5 408.7031,242.2969 Q409.0625,242.1875 409.4688,241.8281 Q409.7344,241.625 409.875,241.5625 Q410.0156,241.5 410.1875,241.5 Q410.5156,241.5 410.75,241.7656 Q411,242.0156 411,242.375 Q411,242.7188 410.6563,243.125 Q410.1563,243.7188 409.3594,244.0469 Q408.3125,244.5 407.0313,244.5 Q405.5313,244.5 404.3281,243.9063 Q403.3594,243.4375 402.6719,242.4219 Q402,241.4063 402,240.2031 L402,239.1094 Q402,237.8594 402.5938,236.7656 Q403.2031,235.6719 404.25,235.0938 Q405.3125,234.5 406.5,234.5 Q407.2188,234.5 407.8438,234.75 Q408.4688,235 409,235.5 Z " fill="#000000"/><text fill="#000000" font-family="sans-serif" font-size="12" lengthAdjust="spacing" textLength="26" x="421" y="243.9102">truck</text><line style="stroke:#A80036;stroke-width:1.5;" x1="393" x2="449" y1="255" y2="255"/><line style="stroke:#A80036;stroke-width:1.5;" x1="393" x2="449" y1="263" y2="263"/><!--MD5=[47145bd8aef51b979784114ebe711e01]
class truck_data--><rect codeLine="11" fill="#FEFECE" filter="url(#fd60zqu9p8t2w)" height="48" id="truck_data" style="stroke:#A80036;stroke-width:1.5;" width="89" x="376.5" y="331"/><ellipse cx="391.5" cy="347" fill="#ADD1B2" rx="11" ry="11" style="stroke:#A80036;stroke-width:1.0;"/><path d="M393.5,343.5 Q393.7031,343 393.9375,342.75 Q394.1719,342.5 394.4375,342.5 Q394.9063,342.5 395.2031,342.7813 Q395.5,343.0625 395.5,343.7188 L395.5,345.2813 Q395.5,345.9375 395.2188,346.2188 Q394.9375,346.5 394.5,346.5 Q394.1094,346.5 393.8594,346.3281 Q393.6094,346.1563 393.5,345.7031 Q393.4531,345.3906 393.2813,345.2188 Q392.9688,344.8906 392.4063,344.7031 Q391.8438,344.5 391.2813,344.5 Q390.5781,344.5 389.9844,344.7813 Q389.4063,345.0625 388.9531,345.6875 Q388.5,346.3125 388.5,347.1719 L388.5,348.0938 Q388.5,349.125 389.3438,349.8125 Q390.1875,350.5 391.6875,350.5 Q392.5781,350.5 393.2031,350.2969 Q393.5625,350.1875 393.9688,349.8281 Q394.2344,349.625 394.375,349.5625 Q394.5156,349.5 394.6875,349.5 Q395.0156,349.5 395.25,349.7656 Q395.5,350.0156 395.5,350.375 Q395.5,350.7188 395.1563,351.125 Q394.6563,351.7188 393.8594,352.0469 Q392.8125,352.5 391.5313,352.5 Q390.0313,352.5 388.8281,351.9063 Q387.8594,351.4375 387.1719,350.4219 Q386.5,349.4063 386.5,348.2031 L386.5,347.1094 Q386.5,345.8594 387.0938,344.7656 Q387.7031,343.6719 388.75,343.0938 Q389.8125,342.5 391,342.5 Q391.7188,342.5 392.3438,342.75 Q392.9688,343 393.5,343.5 Z " fill="#000000"/><text fill="#000000" font-family="sans-serif" font-size="12" lengthAdjust="spacing" textLength="57" x="405.5" y="351.9102">truck_data</text><line style="stroke:#A80036;stroke-width:1.5;" x1="377.5" x2="464.5" y1="363" y2="363"/><line style="stroke:#A80036;stroke-width:1.5;" x1="377.5" x2="464.5" y1="371" y2="371"/><!--MD5=[73fb9c628d45535cfe3573934e5ee044]
class employee_schedule--><rect fill="#FEFECE" filter="url(#fd60zqu9p8t2w)" height="48" id="employee_schedule" style="stroke:#A80036;stroke-width:1.5;" width="144" x="485" y="223"/><ellipse cx="500" cy="239" fill="#ADD1B2" rx="11" ry="11" style="stroke:#A80036;stroke-width:1.0;"/><path d="M502,235.5 Q502.2031,235 502.4375,234.75 Q502.6719,234.5 502.9375,234.5 Q503.4063,234.5 503.7031,234.7813 Q504,235.0625 504,235.7188 L504,237.2813 Q504,237.9375 503.7188,238.2188 Q503.4375,238.5 503,238.5 Q502.6094,238.5 502.3594,238.3281 Q502.1094,238.1563 502,237.7031 Q501.9531,237.3906 501.7813,237.2188 Q501.4688,236.8906 500.9063,236.7031 Q500.3438,236.5 499.7813,236.5 Q499.0781,236.5 498.4844,236.7813 Q497.9063,237.0625 497.4531,237.6875 Q497,238.3125 497,239.1719 L497,240.0938 Q497,241.125 497.8438,241.8125 Q498.6875,242.5 500.1875,242.5 Q501.0781,242.5 501.7031,242.2969 Q502.0625,242.1875 502.4688,241.8281 Q502.7344,241.625 502.875,241.5625 Q503.0156,241.5 503.1875,241.5 Q503.5156,241.5 503.75,241.7656 Q504,242.0156 504,242.375 Q504,242.7188 503.6563,243.125 Q503.1563,243.7188 502.3594,244.0469 Q501.3125,244.5 500.0313,244.5 Q498.5313,244.5 497.3281,243.9063 Q496.3594,243.4375 495.6719,242.4219 Q495,241.4063 495,240.2031 L495,239.1094 Q495,237.8594 495.5938,236.7656 Q496.2031,235.6719 497.25,235.0938 Q498.3125,234.5 499.5,234.5 Q500.2188,234.5 500.8438,234.75 Q501.4688,235 502,235.5 Z " fill="#000000"/><text fill="#000000" font-family="sans-serif" font-size="12" lengthAdjust="spacing" textLength="112" x="514" y="243.9102">employee_schedule</text><line style="stroke:#A80036;stroke-width:1.5;" x1="486" x2="628" y1="255" y2="255"/><line style="stroke:#A80036;stroke-width:1.5;" x1="486" x2="628" y1="263" y2="263"/><!--MD5=[9f726add5c1c3e000a4c7d48564ae346]
link ship to shipData--><path codeLine="13" d="M312,55 C312,71 312,92.45 312,109.53 " fill="none" id="ship-to-shipData" style="stroke:#A80036;stroke-width:1.0;"/><polygon fill="#A80036" points="312,114.68,316,105.68,312,109.68,308,105.68,312,114.68" style="stroke:#A80036;stroke-width:1.0;"/><!--MD5=[1be80fafe08647414d56f41b7e4523db]
link ship to cargoManifest--><path codeLine="14" d="M283.9,54.74 C263.23,71.46 235.1,94.23 213.47,111.73 " fill="none" id="ship-to-cargoManifest" style="stroke:#A80036;stroke-width:1.0;"/><polygon fill="#A80036" points="209.51,114.93,219.0174,112.3591,213.3906,111.777,213.9727,106.1502,209.51,114.93" style="stroke:#A80036;stroke-width:1.0;"/><!--MD5=[5c3e4744889e67d076cebe89935cd7d1]
link ship to port_wharehouse--><path codeLine="15" d="M340.19,53.2 C362.53,69.99 393.86,93.54 417.83,111.56 " fill="none" id="ship-to-port_wharehouse" style="stroke:#A80036;stroke-width:1.0;"/><polygon fill="#A80036" points="421.91,114.63,417.1248,106.0218,417.9152,111.6231,412.3138,112.4135,421.91,114.63" style="stroke:#A80036;stroke-width:1.0;"/><!--MD5=[81b916469f9d1f04ca83e51f8c062714]
link container to cargoManifest--><path codeLine="17" d="M129.32,55 C139.46,71.28 153.1,93.19 163.82,110.41 " fill="none" id="container-to-cargoManifest" style="stroke:#A80036;stroke-width:1.0;"/><polygon fill="#A80036" points="166.48,114.68,165.1168,104.9259,163.8364,110.436,158.3264,109.1557,166.48,114.68" style="stroke:#A80036;stroke-width:1.0;"/><!--MD5=[a8e4cd213ca57d64c1a84167a7aa2c4d]
link container to certificate--><path codeLine="18" d="M100.68,55 C90.54,71.28 76.9,93.19 66.18,110.41 " fill="none" id="container-to-certificate" style="stroke:#A80036;stroke-width:1.0;"/><polygon fill="#A80036" points="63.52,114.68,71.6736,109.1557,66.1636,110.436,64.8832,104.9259,63.52,114.68" style="stroke:#A80036;stroke-width:1.0;"/><!--MD5=[60e8592d5976c06a52a88c0346a399bf]
link port_wharehouse to truck--><path codeLine="20" d="M446.06,163 C441.23,179 434.75,200.45 429.6,217.53 " fill="none" id="port_wharehouse-to-truck" style="stroke:#A80036;stroke-width:1.0;"/><polygon fill="#A80036" points="428.04,222.68,434.4677,215.2177,429.4833,217.8928,426.8082,212.9085,428.04,222.68" style="stroke:#A80036;stroke-width:1.0;"/><!--MD5=[12af6573ec2d74ea1b7fa27553f6faed]
link port_wharehouse to employee_schedule--><path codeLine="21" d="M475.57,163 C491.67,179.42 513.4,201.56 530.36,218.84 " fill="none" id="port_wharehouse-to-employee_schedule" style="stroke:#A80036;stroke-width:1.0;"/><polygon fill="#A80036" points="534.12,222.68,530.6775,213.4524,530.6204,219.1089,524.9638,219.0518,534.12,222.68" style="stroke:#A80036;stroke-width:1.0;"/><!--MD5=[a5841d05835289f455cf4f9671a21c9d]
link employee to roles--><path codeLine="23" d="M668.16,163 C673.14,179 679.82,200.45 685.14,217.53 " fill="none" id="employee-to-roles" style="stroke:#A80036;stroke-width:1.0;"/><polygon fill="#A80036" points="686.74,222.68,687.8835,212.8977,685.2535,217.9061,680.2452,215.2761,686.74,222.68" style="stroke:#A80036;stroke-width:1.0;"/><!--MD5=[799110d46ffae6f7eca254402519fec9]
link employee to employee_schedule--><path codeLine="24" d="M638.43,163 C622.33,179.42 600.6,201.56 583.64,218.84 " fill="none" id="employee-to-employee_schedule" style="stroke:#A80036;stroke-width:1.0;"/><polygon fill="#A80036" points="579.88,222.68,589.0362,219.0518,583.3796,219.1089,583.3225,213.4524,579.88,222.68" style="stroke:#A80036;stroke-width:1.0;"/><!--MD5=[0fc525d38dcea63699727f0d099a91d8]
link truck to truck_data--><path codeLine="26" d="M421,271 C421,287 421,308.45 421,325.53 " fill="none" id="truck-to-truck_data" style="stroke:#A80036;stroke-width:1.0;"/><polygon fill="#A80036" points="421,330.68,425,321.68,421,325.68,417,321.68,421,330.68" style="stroke:#A80036;stroke-width:1.0;"/><!--MD5=[6f94158dbdb2570ba61fbfc963cce79e]
@startuml

class container{}
class certificate{}
class ship{}
class shipData{}
class port_wharehouse{}
class roles{}
class employee{}
class cargoManifest{}
class truck{}
class truck_data

ship- ->shipData
ship- ->cargoManifest
ship- -> port_wharehouse

container- ->cargoManifest
container- ->certificate

port_wharehouse- ->truck
port_wharehouse- ->employee_schedule

employee- ->roles
employee- ->employee_schedule

truck- ->truck_data

@enduml

PlantUML version 1.2021.7(Sun May 23 13:40:07 BST 2021)
(GPL source distribution)
Java Runtime: OpenJDK Runtime Environment
JVM: OpenJDK 64-Bit Server VM
Default Encoding: Cp1252
Language: pt
Country: PT
--></g></svg>