<?xml version="1.0" encoding="UTF-8" standalone="no"?><svg xmlns="http://www.w3.org/2000/svg" xmlns:xlink="http://www.w3.org/1999/xlink" contentScriptType="application/ecmascript" contentStyleType="text/css" height="285px" preserveAspectRatio="none" style="width:98px;height:285px;background:#FFFFFF;" version="1.1" viewBox="0 0 98 285" width="98px" zoomAndPan="magnify"><defs><filter height="300%" id="f12ogxqkcqnqo3" width="300%" x="-1" y="-1"><feGaussianBlur result="blurOut" stdDeviation="2.0"/><feColorMatrix in="blurOut" result="blurOut2" type="matrix" values="0 0 0 0 0 0 0 0 0 0 0 0 0 0 0 0 0 0 .4 0"/><feOffset dx="4.0" dy="4.0" in="blurOut2" result="blurOut3"/><feBlend in="SourceGraphic" in2="blurOut3" mode="normal"/></filter></defs><g><!--MD5=[3b31b93e6348312c3f196e025a82695a]
class RolesUI--><rect codeLine="2" fill="#FEFECE" filter="url(#f12ogxqkcqnqo3)" height="48" id="RolesUI" style="stroke:#A80036;stroke-width:1.5;" width="77" x="7" y="7"/><ellipse cx="22" cy="23" fill="#ADD1B2" rx="11" ry="11" style="stroke:#A80036;stroke-width:1.0;"/><path d="M24,19.5 Q24.2031,19 24.4375,18.75 Q24.6719,18.5 24.9375,18.5 Q25.4063,18.5 25.7031,18.7813 Q26,19.0625 26,19.7188 L26,21.2813 Q26,21.9375 25.7188,22.2188 Q25.4375,22.5 25,22.5 Q24.6094,22.5 24.3594,22.3281 Q24.1094,22.1563 24,21.7031 Q23.9531,21.3906 23.7813,21.2188 Q23.4688,20.8906 22.9063,20.7031 Q22.3438,20.5 21.7813,20.5 Q21.0781,20.5 20.4844,20.7813 Q19.9063,21.0625 19.4531,21.6875 Q19,22.3125 19,23.1719 L19,24.0938 Q19,25.125 19.8438,25.8125 Q20.6875,26.5 22.1875,26.5 Q23.0781,26.5 23.7031,26.2969 Q24.0625,26.1875 24.4688,25.8281 Q24.7344,25.625 24.875,25.5625 Q25.0156,25.5 25.1875,25.5 Q25.5156,25.5 25.75,25.7656 Q26,26.0156 26,26.375 Q26,26.7188 25.6563,27.125 Q25.1563,27.7188 24.3594,28.0469 Q23.3125,28.5 22.0313,28.5 Q20.5313,28.5 19.3281,27.9063 Q18.3594,27.4375 17.6719,26.4219 Q17,25.4063 17,24.2031 L17,23.1094 Q17,21.8594 17.5938,20.7656 Q18.2031,19.6719 19.25,19.0938 Q20.3125,18.5 21.5,18.5 Q22.2188,18.5 22.8438,18.75 Q23.4688,19 24,19.5 Z " fill="#000000"/><text fill="#000000" font-family="sans-serif" font-size="12" lengthAdjust="spacing" textLength="45" x="36" y="27.9102">RolesUI</text><line style="stroke:#A80036;stroke-width:1.5;" x1="8" x2="83" y1="39" y2="39"/><line style="stroke:#A80036;stroke-width:1.5;" x1="8" x2="83" y1="47" y2="47"/><!--MD5=[deb4e1f6eb1e3c1256fdb830f96abfbb]
class Country--><rect codeLine="3" fill="#FEFECE" filter="url(#f12ogxqkcqnqo3)" height="48" id="Country" style="stroke:#A80036;stroke-width:1.5;" width="74" x="8.5" y="223"/><ellipse cx="23.5" cy="239" fill="#ADD1B2" rx="11" ry="11" style="stroke:#A80036;stroke-width:1.0;"/><path d="M25.5,235.5 Q25.7031,235 25.9375,234.75 Q26.1719,234.5 26.4375,234.5 Q26.9063,234.5 27.2031,234.7813 Q27.5,235.0625 27.5,235.7188 L27.5,237.2813 Q27.5,237.9375 27.2188,238.2188 Q26.9375,238.5 26.5,238.5 Q26.1094,238.5 25.8594,238.3281 Q25.6094,238.1563 25.5,237.7031 Q25.4531,237.3906 25.2813,237.2188 Q24.9688,236.8906 24.4063,236.7031 Q23.8438,236.5 23.2813,236.5 Q22.5781,236.5 21.9844,236.7813 Q21.4063,237.0625 20.9531,237.6875 Q20.5,238.3125 20.5,239.1719 L20.5,240.0938 Q20.5,241.125 21.3438,241.8125 Q22.1875,242.5 23.6875,242.5 Q24.5781,242.5 25.2031,242.2969 Q25.5625,242.1875 25.9688,241.8281 Q26.2344,241.625 26.375,241.5625 Q26.5156,241.5 26.6875,241.5 Q27.0156,241.5 27.25,241.7656 Q27.5,242.0156 27.5,242.375 Q27.5,242.7188 27.1563,243.125 Q26.6563,243.7188 25.8594,244.0469 Q24.8125,244.5 23.5313,244.5 Q22.0313,244.5 20.8281,243.9063 Q19.8594,243.4375 19.1719,242.4219 Q18.5,241.4063 18.5,240.2031 L18.5,239.1094 Q18.5,237.8594 19.0938,236.7656 Q19.7031,235.6719 20.75,235.0938 Q21.8125,234.5 23,234.5 Q23.7188,234.5 24.3438,234.75 Q24.9688,235 25.5,235.5 Z " fill="#000000"/><text fill="#000000" font-family="sans-serif" font-size="12" lengthAdjust="spacing" textLength="42" x="37.5" y="243.9102">Country</text><line style="stroke:#A80036;stroke-width:1.5;" x1="9.5" x2="81.5" y1="255" y2="255"/><line style="stroke:#A80036;stroke-width:1.5;" x1="9.5" x2="81.5" y1="263" y2="263"/><!--MD5=[a64a835c3d62471a77f615251fdde58a]
class Position--><rect codeLine="4" fill="#FEFECE" filter="url(#f12ogxqkcqnqo3)" height="48" id="Position" style="stroke:#A80036;stroke-width:1.5;" width="77" x="7" y="115"/><ellipse cx="22" cy="131" fill="#ADD1B2" rx="11" ry="11" style="stroke:#A80036;stroke-width:1.0;"/><path d="M24,127.5 Q24.2031,127 24.4375,126.75 Q24.6719,126.5 24.9375,126.5 Q25.4063,126.5 25.7031,126.7813 Q26,127.0625 26,127.7188 L26,129.2813 Q26,129.9375 25.7188,130.2188 Q25.4375,130.5 25,130.5 Q24.6094,130.5 24.3594,130.3281 Q24.1094,130.1563 24,129.7031 Q23.9531,129.3906 23.7813,129.2188 Q23.4688,128.8906 22.9063,128.7031 Q22.3438,128.5 21.7813,128.5 Q21.0781,128.5 20.4844,128.7813 Q19.9063,129.0625 19.4531,129.6875 Q19,130.3125 19,131.1719 L19,132.0938 Q19,133.125 19.8438,133.8125 Q20.6875,134.5 22.1875,134.5 Q23.0781,134.5 23.7031,134.2969 Q24.0625,134.1875 24.4688,133.8281 Q24.7344,133.625 24.875,133.5625 Q25.0156,133.5 25.1875,133.5 Q25.5156,133.5 25.75,133.7656 Q26,134.0156 26,134.375 Q26,134.7188 25.6563,135.125 Q25.1563,135.7188 24.3594,136.0469 Q23.3125,136.5 22.0313,136.5 Q20.5313,136.5 19.3281,135.9063 Q18.3594,135.4375 17.6719,134.4219 Q17,133.4063 17,132.2031 L17,131.1094 Q17,129.8594 17.5938,128.7656 Q18.2031,127.6719 19.25,127.0938 Q20.3125,126.5 21.5,126.5 Q22.2188,126.5 22.8438,126.75 Q23.4688,127 24,127.5 Z " fill="#000000"/><text fill="#000000" font-family="sans-serif" font-size="12" lengthAdjust="spacing" textLength="45" x="36" y="135.9102">Position</text><line style="stroke:#A80036;stroke-width:1.5;" x1="8" x2="83" y1="147" y2="147"/><line style="stroke:#A80036;stroke-width:1.5;" x1="8" x2="83" y1="155" y2="155"/><!--MD5=[b8d28ad62eb789052366a016ec5935c6]
link RolesUI to Position--><path codeLine="7" d="M45.5,55 C45.5,71 45.5,92.45 45.5,109.53 " fill="none" id="RolesUI-to-Position" style="stroke:#A80036;stroke-width:1.0;"/><polygon fill="#A80036" points="45.5,114.68,49.5,105.68,45.5,109.68,41.5,105.68,45.5,114.68" style="stroke:#A80036;stroke-width:1.0;"/><!--MD5=[e256e6e2ce374343bff3201f5816c359]
link Position to Country--><path codeLine="10" d="M45.5,163 C45.5,179 45.5,200.45 45.5,217.53 " fill="none" id="Position-to-Country" style="stroke:#A80036;stroke-width:1.0;"/><polygon fill="#A80036" points="45.5,222.68,49.5,213.68,45.5,217.68,41.5,213.68,45.5,222.68" style="stroke:#A80036;stroke-width:1.0;"/><!--MD5=[04cb80d5260addf718d1dae93d2f779f]
@startuml

class RolesUI
class Country
class Position


RolesUI - -> Position


Position - -> Country




@enduml

PlantUML version 1.2021.16(Wed Dec 08 17:25:22 GMT 2021)
(GPL source distribution)
Java Runtime: OpenJDK Runtime Environment
JVM: OpenJDK 64-Bit Server VM
Default Encoding: Cp1252
Language: pt
Country: PT
--></g></svg>