<?xml version="1.0" encoding="UTF-8" standalone="no"?><svg xmlns="http://www.w3.org/2000/svg" xmlns:xlink="http://www.w3.org/1999/xlink" contentScriptType="application/ecmascript" contentStyleType="text/css" height="329px" preserveAspectRatio="none" style="width:369px;height:329px;background:#FFFFFF;" version="1.1" viewBox="0 0 369 329" width="369px" zoomAndPan="magnify"><defs><filter height="300%" id="f1tx7gqiqws8bd" width="300%" x="-1" y="-1"><feGaussianBlur result="blurOut" stdDeviation="2.0"/><feColorMatrix in="blurOut" result="blurOut2" type="matrix" values="0 0 0 0 0 0 0 0 0 0 0 0 0 0 0 0 0 0 .4 0"/><feOffset dx="4.0" dy="4.0" in="blurOut2" result="blurOut3"/><feBlend in="SourceGraphic" in2="blurOut3" mode="normal"/></filter></defs><g><!--MD5=[ea2206eefe09474e90beb17e18e6b3d8]
class ShipStore--><rect codeLine="3" fill="#FEFECE" filter="url(#f1tx7gqiqws8bd)" height="61.8359" id="ShipStore" style="stroke:#A80036;stroke-width:1.5;" width="110" x="7" y="41.5"/><ellipse cx="32.8" cy="57.5" fill="#ADD1B2" rx="11" ry="11" style="stroke:#A80036;stroke-width:1.0;"/><path d="M34.8,54 Q35.0031,53.5 35.2375,53.25 Q35.4719,53 35.7375,53 Q36.2063,53 36.5031,53.2813 Q36.8,53.5625 36.8,54.2188 L36.8,55.7813 Q36.8,56.4375 36.5188,56.7188 Q36.2375,57 35.8,57 Q35.4094,57 35.1594,56.8281 Q34.9094,56.6563 34.8,56.2031 Q34.7531,55.8906 34.5813,55.7188 Q34.2688,55.3906 33.7063,55.2031 Q33.1438,55 32.5813,55 Q31.8781,55 31.2844,55.2813 Q30.7062,55.5625 30.2531,56.1875 Q29.8,56.8125 29.8,57.6719 L29.8,58.5938 Q29.8,59.625 30.6437,60.3125 Q31.4875,61 32.9875,61 Q33.8781,61 34.5031,60.7969 Q34.8625,60.6875 35.2688,60.3281 Q35.5344,60.125 35.675,60.0625 Q35.8156,60 35.9875,60 Q36.3156,60 36.55,60.2656 Q36.8,60.5156 36.8,60.875 Q36.8,61.2188 36.4563,61.625 Q35.9563,62.2188 35.1594,62.5469 Q34.1125,63 32.8313,63 Q31.3312,63 30.1281,62.4063 Q29.1594,61.9375 28.4719,60.9219 Q27.8,59.9063 27.8,58.7031 L27.8,57.6094 Q27.8,56.3594 28.3937,55.2656 Q29.0031,54.1719 30.05,53.5938 Q31.1125,53 32.3,53 Q33.0188,53 33.6438,53.25 Q34.2688,53.5 34.8,54 Z " fill="#000000"/><text fill="#000000" font-family="sans-serif" font-size="12" lengthAdjust="spacing" textLength="54" x="49.2" y="62.4102">ShipStore</text><line style="stroke:#A80036;stroke-width:1.5;" x1="8" x2="116" y1="73.5" y2="73.5"/><line style="stroke:#A80036;stroke-width:1.5;" x1="8" x2="116" y1="81.5" y2="81.5"/><ellipse cx="18" cy="92.5" fill="#84BE84" rx="3" ry="3" style="stroke:#038048;stroke-width:1.0;"/><text fill="#000000" font-family="sans-serif" font-size="11" lengthAdjust="spacing" textLength="84" x="27" y="96.9189">findShip(String s)</text><!--MD5=[95f401ea9d0c63da0b3e1cc781f0d3e9]
class ShipBST--><rect codeLine="6" fill="#FEFECE" filter="url(#f1tx7gqiqws8bd)" height="117.1797" id="ShipBST" style="stroke:#A80036;stroke-width:1.5;" width="110" x="103" y="198"/><ellipse cx="131.5" cy="214" fill="#ADD1B2" rx="11" ry="11" style="stroke:#A80036;stroke-width:1.0;"/><path d="M133.5,210.5 Q133.7031,210 133.9375,209.75 Q134.1719,209.5 134.4375,209.5 Q134.9063,209.5 135.2031,209.7813 Q135.5,210.0625 135.5,210.7188 L135.5,212.2813 Q135.5,212.9375 135.2188,213.2188 Q134.9375,213.5 134.5,213.5 Q134.1094,213.5 133.8594,213.3281 Q133.6094,213.1563 133.5,212.7031 Q133.4531,212.3906 133.2813,212.2188 Q132.9688,211.8906 132.4063,211.7031 Q131.8438,211.5 131.2813,211.5 Q130.5781,211.5 129.9844,211.7813 Q129.4063,212.0625 128.9531,212.6875 Q128.5,213.3125 128.5,214.1719 L128.5,215.0938 Q128.5,216.125 129.3438,216.8125 Q130.1875,217.5 131.6875,217.5 Q132.5781,217.5 133.2031,217.2969 Q133.5625,217.1875 133.9688,216.8281 Q134.2344,216.625 134.375,216.5625 Q134.5156,216.5 134.6875,216.5 Q135.0156,216.5 135.25,216.7656 Q135.5,217.0156 135.5,217.375 Q135.5,217.7188 135.1563,218.125 Q134.6563,218.7188 133.8594,219.0469 Q132.8125,219.5 131.5313,219.5 Q130.0313,219.5 128.8281,218.9063 Q127.8594,218.4375 127.1719,217.4219 Q126.5,216.4063 126.5,215.2031 L126.5,214.1094 Q126.5,212.8594 127.0938,211.7656 Q127.7031,210.6719 128.75,210.0938 Q129.8125,209.5 131,209.5 Q131.7188,209.5 132.3438,209.75 Q132.9688,210 133.5,210.5 Z " fill="#000000"/><text fill="#000000" font-family="sans-serif" font-size="12" lengthAdjust="spacing" textLength="48" x="148.5" y="218.9102">ShipBST</text><line style="stroke:#A80036;stroke-width:1.5;" x1="104" x2="212" y1="230" y2="230"/><rect fill="none" height="6" style="stroke:#C82930;stroke-width:1.0;" width="6" x="111" y="238"/><text fill="#000000" font-family="sans-serif" font-size="11" lengthAdjust="spacing" textLength="66" x="123" y="245.4189">shipMmsiAVL</text><rect fill="none" height="6" style="stroke:#C82930;stroke-width:1.0;" width="6" x="111" y="251.8359"/><text fill="#000000" font-family="sans-serif" font-size="11" lengthAdjust="spacing" textLength="58" x="123" y="259.2549">shipImoAVL</text><rect fill="none" height="6" style="stroke:#C82930;stroke-width:1.0;" width="6" x="111" y="265.6719"/><text fill="#000000" font-family="sans-serif" font-size="11" lengthAdjust="spacing" textLength="80" x="123" y="273.0908">shipCallSignAVL</text><rect fill="none" height="6" style="stroke:#C82930;stroke-width:1.0;" width="6" x="111" y="279.5078"/><text fill="#000000" font-family="sans-serif" font-size="11" lengthAdjust="spacing" textLength="48" x="123" y="286.9268">shipArray</text><line style="stroke:#A80036;stroke-width:1.5;" x1="104" x2="212" y1="293.3438" y2="293.3438"/><ellipse cx="114" cy="304.3438" fill="#84BE84" rx="3" ry="3" style="stroke:#038048;stroke-width:1.0;"/><text fill="#000000" font-family="sans-serif" font-size="11" lengthAdjust="spacing" textLength="84" x="123" y="308.7627">findShip(String s)</text><!--MD5=[b4a9ab6cffd58937cfea07eb2954e1bd]
class BST--><rect codeLine="13" fill="#FEFECE" filter="url(#f1tx7gqiqws8bd)" height="131.0156" id="BST" style="stroke:#A80036;stroke-width:1.5;" width="203" x="152.5" y="7"/><ellipse cx="238.25" cy="23" fill="#ADD1B2" rx="11" ry="11" style="stroke:#A80036;stroke-width:1.0;"/><path d="M240.25,19.5 Q240.4531,19 240.6875,18.75 Q240.9219,18.5 241.1875,18.5 Q241.6563,18.5 241.9531,18.7813 Q242.25,19.0625 242.25,19.7188 L242.25,21.2813 Q242.25,21.9375 241.9688,22.2188 Q241.6875,22.5 241.25,22.5 Q240.8594,22.5 240.6094,22.3281 Q240.3594,22.1563 240.25,21.7031 Q240.2031,21.3906 240.0313,21.2188 Q239.7188,20.8906 239.1563,20.7031 Q238.5938,20.5 238.0313,20.5 Q237.3281,20.5 236.7344,20.7813 Q236.1563,21.0625 235.7031,21.6875 Q235.25,22.3125 235.25,23.1719 L235.25,24.0938 Q235.25,25.125 236.0938,25.8125 Q236.9375,26.5 238.4375,26.5 Q239.3281,26.5 239.9531,26.2969 Q240.3125,26.1875 240.7188,25.8281 Q240.9844,25.625 241.125,25.5625 Q241.2656,25.5 241.4375,25.5 Q241.7656,25.5 242,25.7656 Q242.25,26.0156 242.25,26.375 Q242.25,26.7188 241.9063,27.125 Q241.4063,27.7188 240.6094,28.0469 Q239.5625,28.5 238.2813,28.5 Q236.7813,28.5 235.5781,27.9063 Q234.6094,27.4375 233.9219,26.4219 Q233.25,25.4063 233.25,24.2031 L233.25,23.1094 Q233.25,21.8594 233.8438,20.7656 Q234.4531,19.6719 235.5,19.0938 Q236.5625,18.5 237.75,18.5 Q238.4688,18.5 239.0938,18.75 Q239.7188,19 240.25,19.5 Z " fill="#000000"/><text fill="#000000" font-family="sans-serif" font-size="12" lengthAdjust="spacing" textLength="23" x="258.75" y="27.9102">BST</text><line style="stroke:#A80036;stroke-width:1.5;" x1="153.5" x2="354.5" y1="39" y2="39"/><rect fill="none" height="6" style="stroke:#C82930;stroke-width:1.0;" width="6" x="160.5" y="47"/><text fill="#000000" font-family="sans-serif" font-size="11" lengthAdjust="spacing" textLength="37" x="172.5" y="54.4189">element</text><rect fill="none" height="6" style="stroke:#C82930;stroke-width:1.0;" width="6" x="160.5" y="60.8359"/><text fill="#000000" font-family="sans-serif" font-size="11" lengthAdjust="spacing" textLength="15" x="172.5" y="68.2549">left</text><rect fill="none" height="6" style="stroke:#C82930;stroke-width:1.0;" width="6" x="160.5" y="74.6719"/><text fill="#000000" font-family="sans-serif" font-size="11" lengthAdjust="spacing" textLength="21" x="172.5" y="82.0908">right</text><line style="stroke:#A80036;stroke-width:1.5;" x1="153.5" x2="354.5" y1="88.5078" y2="88.5078"/><ellipse cx="163.5" cy="99.5078" fill="#84BE84" rx="3" ry="3" style="stroke:#038048;stroke-width:1.0;"/><text fill="#000000" font-family="sans-serif" font-size="11" lengthAdjust="spacing" textLength="163" x="172.5" y="103.9268">findMSSI(Node&lt;E&gt; node, String s)</text><ellipse cx="163.5" cy="113.3438" fill="#84BE84" rx="3" ry="3" style="stroke:#038048;stroke-width:1.0;"/><text fill="#000000" font-family="sans-serif" font-size="11" lengthAdjust="spacing" textLength="157" x="172.5" y="117.7627">findIMO(Node&lt;E&gt; node, String s)</text><ellipse cx="163.5" cy="127.1797" fill="#84BE84" rx="3" ry="3" style="stroke:#038048;stroke-width:1.0;"/><text fill="#000000" font-family="sans-serif" font-size="11" lengthAdjust="spacing" textLength="177" x="172.5" y="131.5986">findCallSign(Node&lt;E&gt; node, String s)</text><!--MD5=[131b5658647f7267b37e81a5cc329e0a]
link BST to ShipBST--><path codeLine="22" d="M219.88,138.18 C210.39,156.17 200.11,175.66 190.71,193.49 " fill="none" id="BST-to-ShipBST" style="stroke:#A80036;stroke-width:1.0;"/><polygon fill="#A80036" points="188.33,197.99,196.059,191.8856,190.657,193.5645,188.9781,188.1625,188.33,197.99" style="stroke:#A80036;stroke-width:1.0;"/><!--MD5=[b9c0692e8f69729281e4b784c306864d]
link ShipStore to ShipBST--><path codeLine="23" d="M77.85,103.55 C90.69,127.9 109.22,163.02 125.22,193.36 " fill="none" id="ShipStore-to-ShipBST" style="stroke:#A80036;stroke-width:1.0;"/><polygon fill="#A80036" points="127.57,197.8,126.9219,187.9725,125.243,193.3745,119.841,191.6956,127.57,197.8" style="stroke:#A80036;stroke-width:1.0;"/><!--MD5=[c6f8964c99e5115602083b099d9c3f6e]
@startuml
'https://plantuml.com/class-diagram

class ShipStore{
    +findShip(String s)
}
class ShipBST{
    -shipMmsiAVL
    -shipImoAVL
    -shipCallSignAVL
    -shipArray
    +findShip(String s)
}
class BST{
    -element
    -left
    -right
    +findMSSI(Node<E> node, String s)
    +findIMO(Node<E> node, String s)
    +findCallSign(Node<E> node, String s)
}

BST- ->ShipBST
ShipStore- ->ShipBST


@enduml

@startuml

class ShipStore{
    +findShip(String s)
}
class ShipBST{
    -shipMmsiAVL
    -shipImoAVL
    -shipCallSignAVL
    -shipArray
    +findShip(String s)
}
class BST{
    -element
    -left
    -right
    +findMSSI(Node<E> node, String s)
    +findIMO(Node<E> node, String s)
    +findCallSign(Node<E> node, String s)
}

BST- ->ShipBST
ShipStore- ->ShipBST


@enduml

PlantUML version 1.2021.7(Sun May 23 13:40:07 BST 2021)
(GPL source distribution)
Java Runtime: OpenJDK Runtime Environment
JVM: OpenJDK 64-Bit Server VM
Default Encoding: Cp1252
Language: pt
Country: PT
--></g></svg>