<?xml version="1.0" encoding="UTF-8" standalone="no"?><svg xmlns="http://www.w3.org/2000/svg" xmlns:xlink="http://www.w3.org/1999/xlink" contentScriptType="application/ecmascript" contentStyleType="text/css" height="430px" preserveAspectRatio="none" style="width:238px;height:430px;background:#FFFFFF;" version="1.1" viewBox="0 0 238 430" width="238px" zoomAndPan="magnify"><defs><filter height="300%" id="f1uoqku7mxykpf" width="300%" x="-1" y="-1"><feGaussianBlur result="blurOut" stdDeviation="2.0"/><feColorMatrix in="blurOut" result="blurOut2" type="matrix" values="0 0 0 0 0 0 0 0 0 0 0 0 0 0 0 0 0 0 .4 0"/><feOffset dx="4.0" dy="4.0" in="blurOut2" result="blurOut3"/><feBlend in="SourceGraphic" in2="blurOut3" mode="normal"/></filter></defs><g><!--MD5=[a0bfe97ac0a38e6e74cc1c7c7b744b71]
class Port--><rect codeLine="2" fill="#FEFECE" filter="url(#f1uoqku7mxykpf)" height="269.375" id="Port" style="stroke:#A80036;stroke-width:1.5;" width="86" x="7" y="147"/><ellipse cx="36.4" cy="163" fill="#ADD1B2" rx="11" ry="11" style="stroke:#A80036;stroke-width:1.0;"/><path d="M38.4,159.5 Q38.6031,159 38.8375,158.75 Q39.0719,158.5 39.3375,158.5 Q39.8063,158.5 40.1031,158.7813 Q40.4,159.0625 40.4,159.7188 L40.4,161.2813 Q40.4,161.9375 40.1188,162.2188 Q39.8375,162.5 39.4,162.5 Q39.0094,162.5 38.7594,162.3281 Q38.5094,162.1563 38.4,161.7031 Q38.3531,161.3906 38.1813,161.2188 Q37.8688,160.8906 37.3063,160.7031 Q36.7438,160.5 36.1813,160.5 Q35.4781,160.5 34.8844,160.7813 Q34.3063,161.0625 33.8531,161.6875 Q33.4,162.3125 33.4,163.1719 L33.4,164.0938 Q33.4,165.125 34.2438,165.8125 Q35.0875,166.5 36.5875,166.5 Q37.4781,166.5 38.1031,166.2969 Q38.4625,166.1875 38.8688,165.8281 Q39.1344,165.625 39.275,165.5625 Q39.4156,165.5 39.5875,165.5 Q39.9156,165.5 40.15,165.7656 Q40.4,166.0156 40.4,166.375 Q40.4,166.7188 40.0563,167.125 Q39.5563,167.7188 38.7594,168.0469 Q37.7125,168.5 36.4313,168.5 Q34.9313,168.5 33.7281,167.9063 Q32.7594,167.4375 32.0719,166.4219 Q31.4,165.4063 31.4,164.2031 L31.4,163.1094 Q31.4,161.8594 31.9938,160.7656 Q32.6031,159.6719 33.65,159.0938 Q34.7125,158.5 35.9,158.5 Q36.6188,158.5 37.2438,158.75 Q37.8688,159 38.4,159.5 Z " fill="#000000"/><text fill="#000000" font-family="sans-serif" font-size="12" lengthAdjust="spacing" textLength="22" x="53.6" y="167.9102">Port</text><line style="stroke:#A80036;stroke-width:1.5;" x1="8" x2="92" y1="179" y2="179"/><rect fill="none" height="6" style="stroke:#C82930;stroke-width:1.0;" width="6" x="15" y="187"/><text fill="#000000" font-family="sans-serif" font-size="11" lengthAdjust="spacing" textLength="44" x="27" y="194.4189">continent</text><rect fill="none" height="6" style="stroke:#C82930;stroke-width:1.0;" width="6" x="15" y="200.8359"/><text fill="#000000" font-family="sans-serif" font-size="11" lengthAdjust="spacing" textLength="37" x="27" y="208.2549">country</text><rect fill="none" height="6" style="stroke:#C82930;stroke-width:1.0;" width="6" x="15" y="214.6719"/><text fill="#000000" font-family="sans-serif" font-size="11" lengthAdjust="spacing" textLength="24" x="27" y="222.0908">code</text><rect fill="none" height="6" style="stroke:#C82930;stroke-width:1.0;" width="6" x="15" y="228.5078"/><text fill="#000000" font-family="sans-serif" font-size="11" lengthAdjust="spacing" textLength="25" x="27" y="235.9268">porto</text><rect fill="none" height="6" style="stroke:#C82930;stroke-width:1.0;" width="6" x="15" y="242.3438"/><text fill="#000000" font-family="sans-serif" font-size="11" lengthAdjust="spacing" textLength="11" x="27" y="249.7627">lat</text><rect fill="none" height="6" style="stroke:#C82930;stroke-width:1.0;" width="6" x="15" y="256.1797"/><text fill="#000000" font-family="sans-serif" font-size="11" lengthAdjust="spacing" textLength="14" x="27" y="263.5986">lon</text><ellipse cx="18" cy="273.0156" rx="3" ry="3" style="stroke:#038048;stroke-width:1.0;fill:none;"/><text fill="#000000" font-family="sans-serif" font-size="11" lengthAdjust="spacing" textLength="60" x="27" y="277.4346">getContinent</text><ellipse cx="18" cy="286.8516" rx="3" ry="3" style="stroke:#038048;stroke-width:1.0;fill:none;"/><text fill="#000000" font-family="sans-serif" font-size="11" lengthAdjust="spacing" textLength="53" x="27" y="291.2705">getCountry</text><ellipse cx="18" cy="300.6875" rx="3" ry="3" style="stroke:#038048;stroke-width:1.0;fill:none;"/><text fill="#000000" font-family="sans-serif" font-size="11" lengthAdjust="spacing" textLength="53" x="27" y="305.1064">setCountry</text><ellipse cx="18" cy="314.5234" rx="3" ry="3" style="stroke:#038048;stroke-width:1.0;fill:none;"/><text fill="#000000" font-family="sans-serif" font-size="11" lengthAdjust="spacing" textLength="40" x="27" y="318.9424">getCode</text><ellipse cx="18" cy="328.3594" rx="3" ry="3" style="stroke:#038048;stroke-width:1.0;fill:none;"/><text fill="#000000" font-family="sans-serif" font-size="11" lengthAdjust="spacing" textLength="40" x="27" y="332.7783">setCode</text><ellipse cx="18" cy="342.1953" rx="3" ry="3" style="stroke:#038048;stroke-width:1.0;fill:none;"/><text fill="#000000" font-family="sans-serif" font-size="11" lengthAdjust="spacing" textLength="40" x="27" y="346.6143">getPorto</text><ellipse cx="18" cy="356.0313" rx="3" ry="3" style="stroke:#038048;stroke-width:1.0;fill:none;"/><text fill="#000000" font-family="sans-serif" font-size="11" lengthAdjust="spacing" textLength="30" x="27" y="360.4502">getLat</text><ellipse cx="18" cy="369.8672" rx="3" ry="3" style="stroke:#038048;stroke-width:1.0;fill:none;"/><text fill="#000000" font-family="sans-serif" font-size="11" lengthAdjust="spacing" textLength="30" x="27" y="374.2861">setLat</text><ellipse cx="18" cy="383.7031" rx="3" ry="3" style="stroke:#038048;stroke-width:1.0;fill:none;"/><text fill="#000000" font-family="sans-serif" font-size="11" lengthAdjust="spacing" textLength="33" x="27" y="388.1221">getLon</text><ellipse cx="18" cy="397.5391" rx="3" ry="3" style="stroke:#038048;stroke-width:1.0;fill:none;"/><text fill="#000000" font-family="sans-serif" font-size="11" lengthAdjust="spacing" textLength="33" x="27" y="401.958">setLon</text><line style="stroke:#A80036;stroke-width:1.5;" x1="8" x2="92" y1="408.375" y2="408.375"/><!--MD5=[c2bb3f4cdf4a5fed5fe3b39b2c66af45]
class KDTreePort--><rect codeLine="22" fill="#FEFECE" filter="url(#f1uoqku7mxykpf)" height="75.6719" id="KDTreePort" style="stroke:#A80036;stroke-width:1.5;" width="96" x="128" y="243.5"/><ellipse cx="143" cy="259.5" fill="#ADD1B2" rx="11" ry="11" style="stroke:#A80036;stroke-width:1.0;"/><path d="M145,256 Q145.2031,255.5 145.4375,255.25 Q145.6719,255 145.9375,255 Q146.4063,255 146.7031,255.2813 Q147,255.5625 147,256.2188 L147,257.7813 Q147,258.4375 146.7188,258.7188 Q146.4375,259 146,259 Q145.6094,259 145.3594,258.8281 Q145.1094,258.6563 145,258.2031 Q144.9531,257.8906 144.7813,257.7188 Q144.4688,257.3906 143.9063,257.2031 Q143.3438,257 142.7813,257 Q142.0781,257 141.4844,257.2813 Q140.9063,257.5625 140.4531,258.1875 Q140,258.8125 140,259.6719 L140,260.5938 Q140,261.625 140.8438,262.3125 Q141.6875,263 143.1875,263 Q144.0781,263 144.7031,262.7969 Q145.0625,262.6875 145.4688,262.3281 Q145.7344,262.125 145.875,262.0625 Q146.0156,262 146.1875,262 Q146.5156,262 146.75,262.2656 Q147,262.5156 147,262.875 Q147,263.2188 146.6563,263.625 Q146.1563,264.2188 145.3594,264.5469 Q144.3125,265 143.0313,265 Q141.5313,265 140.3281,264.4063 Q139.3594,263.9375 138.6719,262.9219 Q138,261.9063 138,260.7031 L138,259.6094 Q138,258.3594 138.5938,257.2656 Q139.2031,256.1719 140.25,255.5938 Q141.3125,255 142.5,255 Q143.2188,255 143.8438,255.25 Q144.4688,255.5 145,256 Z " fill="#000000"/><text fill="#000000" font-family="sans-serif" font-size="12" lengthAdjust="spacing" textLength="64" x="157" y="264.4102">KDTreePort</text><line style="stroke:#A80036;stroke-width:1.5;" x1="129" x2="223" y1="275.5" y2="275.5"/><ellipse cx="139" cy="286.5" rx="3" ry="3" style="stroke:#038048;stroke-width:1.0;fill:none;"/><text fill="#000000" font-family="sans-serif" font-size="11" lengthAdjust="spacing" textLength="27" x="148" y="290.9189">insert</text><ellipse cx="139" cy="300.3359" rx="3" ry="3" style="stroke:#038048;stroke-width:1.0;fill:none;"/><text fill="#000000" font-family="sans-serif" font-size="11" lengthAdjust="spacing" textLength="50" x="148" y="304.7549">nearstPort</text><line style="stroke:#A80036;stroke-width:1.5;" x1="129" x2="223" y1="311.1719" y2="311.1719"/><!--MD5=[60b59e3d7d8b95aff167b5157d975660]
class CSVReader--><rect codeLine="27" fill="#FEFECE" filter="url(#f1uoqku7mxykpf)" height="61.8359" id="CSVReader" style="stroke:#A80036;stroke-width:1.5;" width="97" x="64.5" y="7"/><ellipse cx="79.5" cy="23" fill="#ADD1B2" rx="11" ry="11" style="stroke:#A80036;stroke-width:1.0;"/><path d="M81.5,19.5 Q81.7031,19 81.9375,18.75 Q82.1719,18.5 82.4375,18.5 Q82.9063,18.5 83.2031,18.7813 Q83.5,19.0625 83.5,19.7188 L83.5,21.2813 Q83.5,21.9375 83.2188,22.2188 Q82.9375,22.5 82.5,22.5 Q82.1094,22.5 81.8594,22.3281 Q81.6094,22.1563 81.5,21.7031 Q81.4531,21.3906 81.2813,21.2188 Q80.9688,20.8906 80.4063,20.7031 Q79.8438,20.5 79.2813,20.5 Q78.5781,20.5 77.9844,20.7813 Q77.4063,21.0625 76.9531,21.6875 Q76.5,22.3125 76.5,23.1719 L76.5,24.0938 Q76.5,25.125 77.3438,25.8125 Q78.1875,26.5 79.6875,26.5 Q80.5781,26.5 81.2031,26.2969 Q81.5625,26.1875 81.9688,25.8281 Q82.2344,25.625 82.375,25.5625 Q82.5156,25.5 82.6875,25.5 Q83.0156,25.5 83.25,25.7656 Q83.5,26.0156 83.5,26.375 Q83.5,26.7188 83.1563,27.125 Q82.6563,27.7188 81.8594,28.0469 Q80.8125,28.5 79.5313,28.5 Q78.0313,28.5 76.8281,27.9063 Q75.8594,27.4375 75.1719,26.4219 Q74.5,25.4063 74.5,24.2031 L74.5,23.1094 Q74.5,21.8594 75.0938,20.7656 Q75.7031,19.6719 76.75,19.0938 Q77.8125,18.5 79,18.5 Q79.7188,18.5 80.3438,18.75 Q80.9688,19 81.5,19.5 Z " fill="#000000"/><text fill="#000000" font-family="sans-serif" font-size="12" lengthAdjust="spacing" textLength="65" x="93.5" y="27.9102">CSVReader</text><line style="stroke:#A80036;stroke-width:1.5;" x1="65.5" x2="160.5" y1="39" y2="39"/><ellipse cx="75.5" cy="50" rx="3" ry="3" style="stroke:#038048;stroke-width:1.0;fill:none;"/><text fill="#000000" font-family="sans-serif" font-size="11" lengthAdjust="spacing" textLength="47" x="84.5" y="54.4189">readPorts</text><line style="stroke:#A80036;stroke-width:1.5;" x1="65.5" x2="160.5" y1="60.8359" y2="60.8359"/><!--MD5=[7a9f1a8d6d011e92b5a02adda580d3cb]
link CSVReader to Port--><path codeLine="32" d="M99.15,69.11 C95.17,78.55 91.07,89.08 88,99 C83.72,112.81 79.77,127.37 76.17,141.98 " fill="none" id="CSVReader-to-Port" style="stroke:#A80036;stroke-width:1.0;stroke-dasharray:7.0,7.0;"/><polygon fill="#A80036" points="74.96,146.93,80.9803,139.1354,76.1458,142.0726,73.2085,137.2381,74.96,146.93" style="stroke:#A80036;stroke-width:1.0;"/><text fill="#000000" font-family="sans-serif" font-size="13" lengthAdjust="spacing" textLength="43" x="89" y="113.4951">creates</text><text fill="#000000" font-family="sans-serif" font-size="13" lengthAdjust="spacing" textLength="7" x="88.7342" y="90.3557">1</text><text fill="#000000" font-family="sans-serif" font-size="13" lengthAdjust="spacing" textLength="5" x="71.2585" y="136.1821">*</text><!--MD5=[09395baae4d7fac52aa39f24b7ebfd36]
link CSVReader to KDTreePort--><path codeLine="33" d="M126.22,69.17 C130.04,78.6 133.99,89.13 137,99 C151.25,145.72 162.3,200.73 168.94,237.84 " fill="none" id="CSVReader-to-KDTreePort" style="stroke:#A80036;stroke-width:1.0;stroke-dasharray:7.0,7.0;"/><polygon fill="#A80036" points="169.89,243.18,172.2619,233.621,169.0194,238.2564,164.3841,235.0139,169.89,243.18" style="stroke:#A80036;stroke-width:1.0;"/><text fill="#000000" font-family="sans-serif" font-size="13" lengthAdjust="spacing" textLength="43" x="142" y="113.4951">creates</text><text fill="#000000" font-family="sans-serif" font-size="13" lengthAdjust="spacing" textLength="7" x="121.1336" y="90.4275">1</text><text fill="#000000" font-family="sans-serif" font-size="13" lengthAdjust="spacing" textLength="5" x="163.4102" y="232.7723">*</text><!--MD5=[7fab5acb1508000963a0598c7c0d1a77]
@startuml

class Port {
    -continent
    -country
    -code
    -porto
    -lat
    -lon
    +getContinent
    +getCountry
    +setCountry
    +getCode
    +setCode
    +getPorto
    +getLat
    +setLat
    +getLon
    +setLon

  }

class KDTreePort {
    +insert
    +nearstPort
}

class CSVReader {
    +readPorts
}


CSVReader "1" ..> "*" Port  : creates
CSVReader "1" ..> "*" KDTreePort  : creates


@enduml

PlantUML version 1.2021.11(Sat Oct 02 14:26:11 BST 2021)
(GPL source distribution)
Java Runtime: OpenJDK Runtime Environment
JVM: OpenJDK 64-Bit Server VM
Default Encoding: Cp1252
Language: en
Country: US
--></g></svg>