<?xml version="1.0" encoding="UTF-8" standalone="no"?><svg xmlns="http://www.w3.org/2000/svg" xmlns:xlink="http://www.w3.org/1999/xlink" contentScriptType="application/ecmascript" contentStyleType="text/css" height="438px" preserveAspectRatio="none" style="width:787px;height:438px;background:#FFFFFF;" version="1.1" viewBox="0 0 787 438" width="787px" zoomAndPan="magnify"><defs><filter height="300%" id="f1sq9hn8qpfpq0" width="300%" x="-1" y="-1"><feGaussianBlur result="blurOut" stdDeviation="2.0"/><feColorMatrix in="blurOut" result="blurOut2" type="matrix" values="0 0 0 0 0 0 0 0 0 0 0 0 0 0 0 0 0 0 .4 0"/><feOffset dx="4.0" dy="4.0" in="blurOut2" result="blurOut3"/><feBlend in="SourceGraphic" in2="blurOut3" mode="normal"/></filter></defs><g><rect fill="#FFFFFF" filter="url(#f1sq9hn8qpfpq0)" height="234.8125" style="stroke:#A80036;stroke-width:1.0;" width="10" x="53" y="99.6094"/><rect fill="#FFFFFF" filter="url(#f1sq9hn8qpfpq0)" height="212.4609" style="stroke:#A80036;stroke-width:1.0;" width="10" x="229" y="121.9609"/><rect fill="#FFFFFF" filter="url(#f1sq9hn8qpfpq0)" height="60.7031" style="stroke:#A80036;stroke-width:1.0;" width="10" x="329" y="213.0156"/><rect fill="#FFFFFF" filter="url(#f1sq9hn8qpfpq0)" height="100.0547" style="stroke:#A80036;stroke-width:1.0;" width="10" x="641" y="243.3672"/><rect fill="#FFFFFF" filter="url(#f1sq9hn8qpfpq0)" height="30.3516" style="stroke:#A80036;stroke-width:1.0;" width="10" x="723.5" y="273.7188"/><line style="stroke:#A80036;stroke-width:1.0;stroke-dasharray:5.0,5.0;" x1="58" x2="58" y1="89.6094" y2="352.4219"/><line style="stroke:#A80036;stroke-width:1.0;stroke-dasharray:5.0,5.0;" x1="234" x2="234" y1="89.6094" y2="352.4219"/><line style="stroke:#A80036;stroke-width:1.0;stroke-dasharray:5.0,5.0;" x1="333.5" x2="333.5" y1="89.6094" y2="352.4219"/><line style="stroke:#A80036;stroke-width:1.0;stroke-dasharray:5.0,5.0;" x1="646" x2="646" y1="89.6094" y2="352.4219"/><line style="stroke:#A80036;stroke-width:1.0;stroke-dasharray:5.0,5.0;" x1="728" x2="728" y1="89.6094" y2="352.4219"/><text fill="#000000" font-family="sans-serif" font-size="14" lengthAdjust="spacing" textLength="100" x="5" y="86.5332">Traffic Manager</text><ellipse cx="58" cy="15" fill="#FEFECE" filter="url(#f1sq9hn8qpfpq0)" rx="8" ry="8" style="stroke:#A80036;stroke-width:2.0;"/><path d="M58,23 L58,50 M45,31 L71,31 M58,50 L45,65 M58,50 L71,65 " fill="none" filter="url(#f1sq9hn8qpfpq0)" style="stroke:#A80036;stroke-width:2.0;"/><text fill="#000000" font-family="sans-serif" font-size="14" lengthAdjust="spacing" textLength="100" x="5" y="365.9551">Traffic Manager</text><ellipse cx="58" cy="379.0313" fill="#FEFECE" filter="url(#f1sq9hn8qpfpq0)" rx="8" ry="8" style="stroke:#A80036;stroke-width:2.0;"/><path d="M58,387.0313 L58,414.0313 M45,395.0313 L71,395.0313 M58,414.0313 L45,429.0313 M58,414.0313 L71,429.0313 " fill="none" filter="url(#f1sq9hn8qpfpq0)" style="stroke:#A80036;stroke-width:2.0;"/><rect fill="#FEFECE" filter="url(#f1sq9hn8qpfpq0)" height="31.6094" style="stroke:#A80036;stroke-width:1.5;" width="78" x="193" y="53"/><text fill="#000000" font-family="sans-serif" font-size="14" lengthAdjust="spacing" textLength="64" x="200" y="74.5332">:Company</text><rect fill="#FEFECE" filter="url(#f1sq9hn8qpfpq0)" height="31.6094" style="stroke:#A80036;stroke-width:1.5;" width="78" x="193" y="351.4219"/><text fill="#000000" font-family="sans-serif" font-size="14" lengthAdjust="spacing" textLength="64" x="200" y="372.9551">:Company</text><rect fill="#FEFECE" filter="url(#f1sq9hn8qpfpq0)" height="31.6094" style="stroke:#A80036;stroke-width:1.5;" width="93" x="285.5" y="53"/><text fill="#000000" font-family="sans-serif" font-size="14" lengthAdjust="spacing" textLength="79" x="292.5" y="74.5332">:CSVReader</text><rect fill="#FEFECE" filter="url(#f1sq9hn8qpfpq0)" height="31.6094" style="stroke:#A80036;stroke-width:1.5;" width="93" x="285.5" y="351.4219"/><text fill="#000000" font-family="sans-serif" font-size="14" lengthAdjust="spacing" textLength="79" x="292.5" y="372.9551">:CSVReader</text><rect fill="#FEFECE" filter="url(#f1sq9hn8qpfpq0)" height="31.6094" style="stroke:#A80036;stroke-width:1.5;" width="44" x="622" y="53"/><text fill="#000000" font-family="sans-serif" font-size="14" lengthAdjust="spacing" textLength="30" x="629" y="74.5332">:Port</text><rect fill="#FEFECE" filter="url(#f1sq9hn8qpfpq0)" height="31.6094" style="stroke:#A80036;stroke-width:1.5;" width="44" x="622" y="351.4219"/><text fill="#000000" font-family="sans-serif" font-size="14" lengthAdjust="spacing" textLength="30" x="629" y="372.9551">:Port</text><rect fill="#FEFECE" filter="url(#f1sq9hn8qpfpq0)" height="31.6094" style="stroke:#A80036;stroke-width:1.5;" width="93" x="680" y="53"/><text fill="#000000" font-family="sans-serif" font-size="14" lengthAdjust="spacing" textLength="79" x="687" y="74.5332">:KDTreePort</text><rect fill="#FEFECE" filter="url(#f1sq9hn8qpfpq0)" height="31.6094" style="stroke:#A80036;stroke-width:1.5;" width="93" x="680" y="351.4219"/><text fill="#000000" font-family="sans-serif" font-size="14" lengthAdjust="spacing" textLength="79" x="687" y="372.9551">:KDTreePort</text><rect fill="#FFFFFF" filter="url(#f1sq9hn8qpfpq0)" height="234.8125" style="stroke:#A80036;stroke-width:1.0;" width="10" x="53" y="99.6094"/><rect fill="#FFFFFF" filter="url(#f1sq9hn8qpfpq0)" height="212.4609" style="stroke:#A80036;stroke-width:1.0;" width="10" x="229" y="121.9609"/><rect fill="#FFFFFF" filter="url(#f1sq9hn8qpfpq0)" height="60.7031" style="stroke:#A80036;stroke-width:1.0;" width="10" x="329" y="213.0156"/><rect fill="#FFFFFF" filter="url(#f1sq9hn8qpfpq0)" height="100.0547" style="stroke:#A80036;stroke-width:1.0;" width="10" x="641" y="243.3672"/><rect fill="#FFFFFF" filter="url(#f1sq9hn8qpfpq0)" height="30.3516" style="stroke:#A80036;stroke-width:1.0;" width="10" x="723.5" y="273.7188"/><polygon fill="#A80036" points="217,117.9609,227,121.9609,217,125.9609,221,121.9609" style="stroke:#A80036;stroke-width:1.0;"/><line style="stroke:#A80036;stroke-width:1.0;" x1="63" x2="223" y1="121.9609" y2="121.9609"/><text fill="#000000" font-family="sans-serif" font-size="13" font-weight="bold" lengthAdjust="spacing" textLength="7" x="70" y="117.1045">1</text><text fill="#000000" font-family="sans-serif" font-size="13" lengthAdjust="spacing" textLength="136" x="81" y="117.1045">Start to register port file</text><polygon fill="#A80036" points="74,148.3125,64,152.3125,74,156.3125,70,152.3125" style="stroke:#A80036;stroke-width:1.0;"/><line style="stroke:#A80036;stroke-width:1.0;stroke-dasharray:2.0,2.0;" x1="68" x2="228" y1="152.3125" y2="152.3125"/><text fill="#000000" font-family="sans-serif" font-size="13" font-weight="bold" lengthAdjust="spacing" textLength="7" x="80" y="147.4561">2</text><text fill="#000000" font-family="sans-serif" font-size="13" lengthAdjust="spacing" textLength="77" x="91" y="147.4561">Asks for path</text><polygon fill="#A80036" points="217,178.6641,227,182.6641,217,186.6641,221,182.6641" style="stroke:#A80036;stroke-width:1.0;"/><line style="stroke:#A80036;stroke-width:1.0;" x1="63" x2="223" y1="182.6641" y2="182.6641"/><text fill="#000000" font-family="sans-serif" font-size="13" font-weight="bold" lengthAdjust="spacing" textLength="7" x="70" y="177.8076">3</text><text fill="#000000" font-family="sans-serif" font-size="13" lengthAdjust="spacing" textLength="68" x="81" y="177.8076">Inserts path</text><polygon fill="#A80036" points="317,209.0156,327,213.0156,317,217.0156,321,213.0156" style="stroke:#A80036;stroke-width:1.0;"/><line style="stroke:#A80036;stroke-width:1.0;" x1="239" x2="323" y1="213.0156" y2="213.0156"/><text fill="#000000" font-family="sans-serif" font-size="13" font-weight="bold" lengthAdjust="spacing" textLength="7" x="246" y="208.1592">4</text><text fill="#000000" font-family="sans-serif" font-size="13" lengthAdjust="spacing" textLength="60" x="257" y="208.1592">readCSV()</text><polygon fill="#A80036" points="629,239.3672,639,243.3672,629,247.3672,633,243.3672" style="stroke:#A80036;stroke-width:1.0;"/><line style="stroke:#A80036;stroke-width:1.0;" x1="339" x2="635" y1="243.3672" y2="243.3672"/><text fill="#000000" font-family="sans-serif" font-size="13" font-weight="bold" lengthAdjust="spacing" textLength="7" x="346" y="238.5107">5</text><text fill="#000000" font-family="sans-serif" font-size="13" lengthAdjust="spacing" textLength="272" x="357" y="238.5107">newPort(continent, country, code, port, lat, lon)</text><polygon fill="#A80036" points="345,269.7188,335,273.7188,345,277.7188,341,273.7188" style="stroke:#A80036;stroke-width:1.0;"/><line style="stroke:#A80036;stroke-width:1.0;" x1="339" x2="640" y1="273.7188" y2="273.7188"/><text fill="#000000" font-family="sans-serif" font-size="13" font-weight="bold" lengthAdjust="spacing" textLength="7" x="351" y="268.8623">6</text><text fill="#000000" font-family="sans-serif" font-size="13" lengthAdjust="spacing" textLength="45" x="362" y="268.8623">addPort</text><polygon fill="#A80036" points="716.5,300.0703,726.5,304.0703,716.5,308.0703,720.5,304.0703" style="stroke:#A80036;stroke-width:1.0;"/><line style="stroke:#A80036;stroke-width:1.0;" x1="239" x2="722.5" y1="304.0703" y2="304.0703"/><text fill="#000000" font-family="sans-serif" font-size="13" font-weight="bold" lengthAdjust="spacing" textLength="7" x="246" y="299.2139">7</text><text fill="#000000" font-family="sans-serif" font-size="13" lengthAdjust="spacing" textLength="109" x="257" y="299.2139">insert(port, lat, lon)</text><polygon fill="#A80036" points="69,330.4219,59,334.4219,69,338.4219,65,334.4219" style="stroke:#A80036;stroke-width:1.0;"/><line style="stroke:#A80036;stroke-width:1.0;" x1="63" x2="233" y1="334.4219" y2="334.4219"/><text fill="#000000" font-family="sans-serif" font-size="13" font-weight="bold" lengthAdjust="spacing" textLength="7" x="75" y="329.5654">8</text><text fill="#000000" font-family="sans-serif" font-size="13" lengthAdjust="spacing" textLength="106" x="86" y="329.5654">success message</text><!--MD5=[e3b165fa07c65dca522fcdfaaab903fb]
@startuml
autonumber

actor "Traffic Manager" as traf


participant ":Company" as com
participant ":CSVReader" as csv
participant ":Port" as port
participant ":KDTreePort" as pt

activate traf


traf -> com : Start to register port file
activate com
com - -> traf : Asks for path
traf -> com : Inserts path

com -> csv : readCSV()

activate csv

csv -> port : newPort(continent, country, code, port, lat, lon)
activate port


port -> csv : addPort

deactivate csv

activate pt

com -> pt: insert(port, lat, lon)

deactivate pt

com -> traf : success message
deactivate com
deactivate traf

@enduml

PlantUML version 1.2021.11(Sat Oct 02 14:26:11 BST 2021)
(GPL source distribution)
Java Runtime: OpenJDK Runtime Environment
JVM: OpenJDK 64-Bit Server VM
Default Encoding: Cp1252
Language: en
Country: US
--></g></svg>