<?xml version="1.0" encoding="UTF-8" standalone="no"?><svg xmlns="http://www.w3.org/2000/svg" xmlns:xlink="http://www.w3.org/1999/xlink" contentScriptType="application/ecmascript" contentStyleType="text/css" height="285px" preserveAspectRatio="none" style="width:399px;height:285px;background:#FFFFFF;" version="1.1" viewBox="0 0 399 285" width="399px" zoomAndPan="magnify"><defs><filter height="300%" id="f1lq482jndvfa" width="300%" x="-1" y="-1"><feGaussianBlur result="blurOut" stdDeviation="2.0"/><feColorMatrix in="blurOut" result="blurOut2" type="matrix" values="0 0 0 0 0 0 0 0 0 0 0 0 0 0 0 0 0 0 .4 0"/><feOffset dx="4.0" dy="4.0" in="blurOut2" result="blurOut3"/><feBlend in="SourceGraphic" in2="blurOut3" mode="normal"/></filter></defs><g><!--MD5=[3b31b93e6348312c3f196e025a82695a]
class RolesUI--><rect codeLine="2" fill="#FEFECE" filter="url(#f1lq482jndvfa)" height="48" id="RolesUI" style="stroke:#A80036;stroke-width:1.5;" width="77" x="166" y="7"/><ellipse cx="181" cy="23" fill="#ADD1B2" rx="11" ry="11" style="stroke:#A80036;stroke-width:1.0;"/><path d="M183,19.5 Q183.2031,19 183.4375,18.75 Q183.6719,18.5 183.9375,18.5 Q184.4063,18.5 184.7031,18.7813 Q185,19.0625 185,19.7188 L185,21.2813 Q185,21.9375 184.7188,22.2188 Q184.4375,22.5 184,22.5 Q183.6094,22.5 183.3594,22.3281 Q183.1094,22.1563 183,21.7031 Q182.9531,21.3906 182.7813,21.2188 Q182.4688,20.8906 181.9063,20.7031 Q181.3438,20.5 180.7813,20.5 Q180.0781,20.5 179.4844,20.7813 Q178.9063,21.0625 178.4531,21.6875 Q178,22.3125 178,23.1719 L178,24.0938 Q178,25.125 178.8438,25.8125 Q179.6875,26.5 181.1875,26.5 Q182.0781,26.5 182.7031,26.2969 Q183.0625,26.1875 183.4688,25.8281 Q183.7344,25.625 183.875,25.5625 Q184.0156,25.5 184.1875,25.5 Q184.5156,25.5 184.75,25.7656 Q185,26.0156 185,26.375 Q185,26.7188 184.6563,27.125 Q184.1563,27.7188 183.3594,28.0469 Q182.3125,28.5 181.0313,28.5 Q179.5313,28.5 178.3281,27.9063 Q177.3594,27.4375 176.6719,26.4219 Q176,25.4063 176,24.2031 L176,23.1094 Q176,21.8594 176.5938,20.7656 Q177.2031,19.6719 178.25,19.0938 Q179.3125,18.5 180.5,18.5 Q181.2188,18.5 181.8438,18.75 Q182.4688,19 183,19.5 Z " fill="#000000"/><text fill="#000000" font-family="sans-serif" font-size="12" lengthAdjust="spacing" textLength="45" x="195" y="27.9102">RolesUI</text><line style="stroke:#A80036;stroke-width:1.5;" x1="167" x2="242" y1="39" y2="39"/><line style="stroke:#A80036;stroke-width:1.5;" x1="167" x2="242" y1="47" y2="47"/><!--MD5=[a0336aaa8110b78d9cacadb9d45e00a3]
class Border--><rect codeLine="3" fill="#FEFECE" filter="url(#f1lq482jndvfa)" height="48" id="Border" style="stroke:#A80036;stroke-width:1.5;" width="69" x="7" y="223"/><ellipse cx="22" cy="239" fill="#ADD1B2" rx="11" ry="11" style="stroke:#A80036;stroke-width:1.0;"/><path d="M24,235.5 Q24.2031,235 24.4375,234.75 Q24.6719,234.5 24.9375,234.5 Q25.4063,234.5 25.7031,234.7813 Q26,235.0625 26,235.7188 L26,237.2813 Q26,237.9375 25.7188,238.2188 Q25.4375,238.5 25,238.5 Q24.6094,238.5 24.3594,238.3281 Q24.1094,238.1563 24,237.7031 Q23.9531,237.3906 23.7813,237.2188 Q23.4688,236.8906 22.9063,236.7031 Q22.3438,236.5 21.7813,236.5 Q21.0781,236.5 20.4844,236.7813 Q19.9063,237.0625 19.4531,237.6875 Q19,238.3125 19,239.1719 L19,240.0938 Q19,241.125 19.8438,241.8125 Q20.6875,242.5 22.1875,242.5 Q23.0781,242.5 23.7031,242.2969 Q24.0625,242.1875 24.4688,241.8281 Q24.7344,241.625 24.875,241.5625 Q25.0156,241.5 25.1875,241.5 Q25.5156,241.5 25.75,241.7656 Q26,242.0156 26,242.375 Q26,242.7188 25.6563,243.125 Q25.1563,243.7188 24.3594,244.0469 Q23.3125,244.5 22.0313,244.5 Q20.5313,244.5 19.3281,243.9063 Q18.3594,243.4375 17.6719,242.4219 Q17,241.4063 17,240.2031 L17,239.1094 Q17,237.8594 17.5938,236.7656 Q18.2031,235.6719 19.25,235.0938 Q20.3125,234.5 21.5,234.5 Q22.2188,234.5 22.8438,234.75 Q23.4688,235 24,235.5 Z " fill="#000000"/><text fill="#000000" font-family="sans-serif" font-size="12" lengthAdjust="spacing" textLength="37" x="36" y="243.9102">Border</text><line style="stroke:#A80036;stroke-width:1.5;" x1="8" x2="75" y1="255" y2="255"/><line style="stroke:#A80036;stroke-width:1.5;" x1="8" x2="75" y1="263" y2="263"/><!--MD5=[a64a835c3d62471a77f615251fdde58a]
class Position--><rect codeLine="4" fill="#FEFECE" filter="url(#f1lq482jndvfa)" height="48" id="Position" style="stroke:#A80036;stroke-width:1.5;" width="77" x="166" y="115"/><ellipse cx="181" cy="131" fill="#ADD1B2" rx="11" ry="11" style="stroke:#A80036;stroke-width:1.0;"/><path d="M183,127.5 Q183.2031,127 183.4375,126.75 Q183.6719,126.5 183.9375,126.5 Q184.4063,126.5 184.7031,126.7813 Q185,127.0625 185,127.7188 L185,129.2813 Q185,129.9375 184.7188,130.2188 Q184.4375,130.5 184,130.5 Q183.6094,130.5 183.3594,130.3281 Q183.1094,130.1563 183,129.7031 Q182.9531,129.3906 182.7813,129.2188 Q182.4688,128.8906 181.9063,128.7031 Q181.3438,128.5 180.7813,128.5 Q180.0781,128.5 179.4844,128.7813 Q178.9063,129.0625 178.4531,129.6875 Q178,130.3125 178,131.1719 L178,132.0938 Q178,133.125 178.8438,133.8125 Q179.6875,134.5 181.1875,134.5 Q182.0781,134.5 182.7031,134.2969 Q183.0625,134.1875 183.4688,133.8281 Q183.7344,133.625 183.875,133.5625 Q184.0156,133.5 184.1875,133.5 Q184.5156,133.5 184.75,133.7656 Q185,134.0156 185,134.375 Q185,134.7188 184.6563,135.125 Q184.1563,135.7188 183.3594,136.0469 Q182.3125,136.5 181.0313,136.5 Q179.5313,136.5 178.3281,135.9063 Q177.3594,135.4375 176.6719,134.4219 Q176,133.4063 176,132.2031 L176,131.1094 Q176,129.8594 176.5938,128.7656 Q177.2031,127.6719 178.25,127.0938 Q179.3125,126.5 180.5,126.5 Q181.2188,126.5 181.8438,126.75 Q182.4688,127 183,127.5 Z " fill="#000000"/><text fill="#000000" font-family="sans-serif" font-size="12" lengthAdjust="spacing" textLength="45" x="195" y="135.9102">Position</text><line style="stroke:#A80036;stroke-width:1.5;" x1="167" x2="242" y1="147" y2="147"/><line style="stroke:#A80036;stroke-width:1.5;" x1="167" x2="242" y1="155" y2="155"/><!--MD5=[dfbe5b5b3f161c49668938220e8b8432]
class SeaDist--><rect codeLine="5" fill="#FEFECE" filter="url(#f1lq482jndvfa)" height="48" id="SeaDist" style="stroke:#A80036;stroke-width:1.5;" width="76" x="111.5" y="223"/><ellipse cx="126.5" cy="239" fill="#ADD1B2" rx="11" ry="11" style="stroke:#A80036;stroke-width:1.0;"/><path d="M128.5,235.5 Q128.7031,235 128.9375,234.75 Q129.1719,234.5 129.4375,234.5 Q129.9063,234.5 130.2031,234.7813 Q130.5,235.0625 130.5,235.7188 L130.5,237.2813 Q130.5,237.9375 130.2188,238.2188 Q129.9375,238.5 129.5,238.5 Q129.1094,238.5 128.8594,238.3281 Q128.6094,238.1563 128.5,237.7031 Q128.4531,237.3906 128.2813,237.2188 Q127.9688,236.8906 127.4063,236.7031 Q126.8438,236.5 126.2813,236.5 Q125.5781,236.5 124.9844,236.7813 Q124.4063,237.0625 123.9531,237.6875 Q123.5,238.3125 123.5,239.1719 L123.5,240.0938 Q123.5,241.125 124.3438,241.8125 Q125.1875,242.5 126.6875,242.5 Q127.5781,242.5 128.2031,242.2969 Q128.5625,242.1875 128.9688,241.8281 Q129.2344,241.625 129.375,241.5625 Q129.5156,241.5 129.6875,241.5 Q130.0156,241.5 130.25,241.7656 Q130.5,242.0156 130.5,242.375 Q130.5,242.7188 130.1563,243.125 Q129.6563,243.7188 128.8594,244.0469 Q127.8125,244.5 126.5313,244.5 Q125.0313,244.5 123.8281,243.9063 Q122.8594,243.4375 122.1719,242.4219 Q121.5,241.4063 121.5,240.2031 L121.5,239.1094 Q121.5,237.8594 122.0938,236.7656 Q122.7031,235.6719 123.75,235.0938 Q124.8125,234.5 126,234.5 Q126.7188,234.5 127.3438,234.75 Q127.9688,235 128.5,235.5 Z " fill="#000000"/><text fill="#000000" font-family="sans-serif" font-size="12" lengthAdjust="spacing" textLength="44" x="140.5" y="243.9102">SeaDist</text><line style="stroke:#A80036;stroke-width:1.5;" x1="112.5" x2="186.5" y1="255" y2="255"/><line style="stroke:#A80036;stroke-width:1.5;" x1="112.5" x2="186.5" y1="263" y2="263"/><!--MD5=[deb4e1f6eb1e3c1256fdb830f96abfbb]
class Country--><rect codeLine="6" fill="#FEFECE" filter="url(#f1lq482jndvfa)" height="48" id="Country" style="stroke:#A80036;stroke-width:1.5;" width="74" x="222.5" y="223"/><ellipse cx="237.5" cy="239" fill="#ADD1B2" rx="11" ry="11" style="stroke:#A80036;stroke-width:1.0;"/><path d="M239.5,235.5 Q239.7031,235 239.9375,234.75 Q240.1719,234.5 240.4375,234.5 Q240.9063,234.5 241.2031,234.7813 Q241.5,235.0625 241.5,235.7188 L241.5,237.2813 Q241.5,237.9375 241.2188,238.2188 Q240.9375,238.5 240.5,238.5 Q240.1094,238.5 239.8594,238.3281 Q239.6094,238.1563 239.5,237.7031 Q239.4531,237.3906 239.2813,237.2188 Q238.9688,236.8906 238.4063,236.7031 Q237.8438,236.5 237.2813,236.5 Q236.5781,236.5 235.9844,236.7813 Q235.4063,237.0625 234.9531,237.6875 Q234.5,238.3125 234.5,239.1719 L234.5,240.0938 Q234.5,241.125 235.3438,241.8125 Q236.1875,242.5 237.6875,242.5 Q238.5781,242.5 239.2031,242.2969 Q239.5625,242.1875 239.9688,241.8281 Q240.2344,241.625 240.375,241.5625 Q240.5156,241.5 240.6875,241.5 Q241.0156,241.5 241.25,241.7656 Q241.5,242.0156 241.5,242.375 Q241.5,242.7188 241.1563,243.125 Q240.6563,243.7188 239.8594,244.0469 Q238.8125,244.5 237.5313,244.5 Q236.0313,244.5 234.8281,243.9063 Q233.8594,243.4375 233.1719,242.4219 Q232.5,241.4063 232.5,240.2031 L232.5,239.1094 Q232.5,237.8594 233.0938,236.7656 Q233.7031,235.6719 234.75,235.0938 Q235.8125,234.5 237,234.5 Q237.7188,234.5 238.3438,234.75 Q238.9688,235 239.5,235.5 Z " fill="#000000"/><text fill="#000000" font-family="sans-serif" font-size="12" lengthAdjust="spacing" textLength="42" x="251.5" y="243.9102">Country</text><line style="stroke:#A80036;stroke-width:1.5;" x1="223.5" x2="295.5" y1="255" y2="255"/><line style="stroke:#A80036;stroke-width:1.5;" x1="223.5" x2="295.5" y1="263" y2="263"/><!--MD5=[a0bfe97ac0a38e6e74cc1c7c7b744b71]
class Port--><rect codeLine="7" fill="#FEFECE" filter="url(#f1lq482jndvfa)" height="48" id="Port" style="stroke:#A80036;stroke-width:1.5;" width="54" x="331.5" y="223"/><ellipse cx="346.5" cy="239" fill="#ADD1B2" rx="11" ry="11" style="stroke:#A80036;stroke-width:1.0;"/><path d="M348.5,235.5 Q348.7031,235 348.9375,234.75 Q349.1719,234.5 349.4375,234.5 Q349.9063,234.5 350.2031,234.7813 Q350.5,235.0625 350.5,235.7188 L350.5,237.2813 Q350.5,237.9375 350.2188,238.2188 Q349.9375,238.5 349.5,238.5 Q349.1094,238.5 348.8594,238.3281 Q348.6094,238.1563 348.5,237.7031 Q348.4531,237.3906 348.2813,237.2188 Q347.9688,236.8906 347.4063,236.7031 Q346.8438,236.5 346.2813,236.5 Q345.5781,236.5 344.9844,236.7813 Q344.4063,237.0625 343.9531,237.6875 Q343.5,238.3125 343.5,239.1719 L343.5,240.0938 Q343.5,241.125 344.3438,241.8125 Q345.1875,242.5 346.6875,242.5 Q347.5781,242.5 348.2031,242.2969 Q348.5625,242.1875 348.9688,241.8281 Q349.2344,241.625 349.375,241.5625 Q349.5156,241.5 349.6875,241.5 Q350.0156,241.5 350.25,241.7656 Q350.5,242.0156 350.5,242.375 Q350.5,242.7188 350.1563,243.125 Q349.6563,243.7188 348.8594,244.0469 Q347.8125,244.5 346.5313,244.5 Q345.0313,244.5 343.8281,243.9063 Q342.8594,243.4375 342.1719,242.4219 Q341.5,241.4063 341.5,240.2031 L341.5,239.1094 Q341.5,237.8594 342.0938,236.7656 Q342.7031,235.6719 343.75,235.0938 Q344.8125,234.5 346,234.5 Q346.7188,234.5 347.3438,234.75 Q347.9688,235 348.5,235.5 Z " fill="#000000"/><text fill="#000000" font-family="sans-serif" font-size="12" lengthAdjust="spacing" textLength="22" x="360.5" y="243.9102">Port</text><line style="stroke:#A80036;stroke-width:1.5;" x1="332.5" x2="384.5" y1="255" y2="255"/><line style="stroke:#A80036;stroke-width:1.5;" x1="332.5" x2="384.5" y1="263" y2="263"/><!--MD5=[b8d28ad62eb789052366a016ec5935c6]
link RolesUI to Position--><path codeLine="10" d="M204.5,55 C204.5,71 204.5,92.45 204.5,109.53 " fill="none" id="RolesUI-to-Position" style="stroke:#A80036;stroke-width:1.0;"/><polygon fill="#A80036" points="204.5,114.68,208.5,105.68,204.5,109.68,200.5,105.68,204.5,114.68" style="stroke:#A80036;stroke-width:1.0;"/><!--MD5=[ca71757eafbcd614ab7a651a42c81a0a]
link Position to Border--><path codeLine="13" d="M169.13,163 C143,179.99 107.44,203.12 80.49,220.65 " fill="none" id="Position-to-Border" style="stroke:#A80036;stroke-width:1.0;"/><polygon fill="#A80036" points="76.24,223.41,85.9639,221.8461,80.4286,220.6795,81.5951,215.1443,76.24,223.41" style="stroke:#A80036;stroke-width:1.0;"/><!--MD5=[29b798670717d373a3ee4c8c71240eab]
link Position to Port--><path codeLine="14" d="M237.92,163 C264.34,181.19 300.98,206.41 326.92,224.26 " fill="none" id="Position-to-Port" style="stroke:#A80036;stroke-width:1.0;"/><polygon fill="#A80036" points="331.31,227.28,326.1795,218.873,327.1965,224.4377,321.6318,225.4546,331.31,227.28" style="stroke:#A80036;stroke-width:1.0;"/><!--MD5=[cc5a6a00cd2a7735902bb7ed1466e66b]
link Position to SeaDist--><path codeLine="15" d="M192.57,163 C184.19,179.14 172.94,200.82 164.04,217.97 " fill="none" id="Position-to-SeaDist" style="stroke:#A80036;stroke-width:1.0;"/><polygon fill="#A80036" points="161.6,222.68,169.3054,216.5459,163.9099,218.2456,162.2103,212.8501,161.6,222.68" style="stroke:#A80036;stroke-width:1.0;"/><!--MD5=[e256e6e2ce374343bff3201f5816c359]
link Position to Country--><path codeLine="16" d="M216.43,163 C224.81,179.14 236.06,200.82 244.96,217.97 " fill="none" id="Position-to-Country" style="stroke:#A80036;stroke-width:1.0;"/><polygon fill="#A80036" points="247.4,222.68,246.7897,212.8501,245.0901,218.2456,239.6946,216.5459,247.4,222.68" style="stroke:#A80036;stroke-width:1.0;"/><!--MD5=[2031c300b3dd2379f521911fd1792ad5]
@startuml

class RolesUI
class Border
class Position
class SeaDist
class Country
class Port


RolesUI - -> Position


Position - -> Border
Position - -> Port
Position - -> SeaDist
Position - -> Country




@enduml

PlantUML version 1.2022.0(Tue Jan 11 16:16:42 GMT 2022)
(GPL source distribution)
Java Runtime: OpenJDK Runtime Environment
JVM: OpenJDK 64-Bit Server VM
Default Encoding: Cp1252
Language: pt
Country: PT
--></g></svg>